<mxfile host="65bd71144e">
    <diagram id="ehYFu2yMHRYDkQx1FQz_" name="Page-1">
        <mxGraphModel dx="1288" dy="730" grid="1" gridSize="10" guides="1" tooltips="1" connect="1" arrows="1" fold="1" page="1" pageScale="1" pageWidth="400" pageHeight="300" math="0" shadow="0">
            <root>
                <mxCell id="0"/>
                <mxCell id="1" parent="0"/>
                <mxCell id="2" value="" style="whiteSpace=wrap;html=1;" parent="1" vertex="1">
                    <mxGeometry x="-400" y="-298" width="397.33" height="298" as="geometry"/>
                </mxCell>
                <mxCell id="3" value="&lt;font style=&quot;font-size: 48px;&quot;&gt;IPreferToBeCalled&lt;/font&gt;" style="text;html=1;align=left;verticalAlign=middle;whiteSpace=wrap;rounded=0;fontSize=35;" parent="1" vertex="1">
                    <mxGeometry x="-400" y="-293" width="390" height="44" as="geometry"/>
                </mxCell>
                <mxCell id="5" value="" style="shape=image;verticalLabelPosition=bottom;labelBackgroundColor=default;verticalAlign=top;aspect=fixed;imageAspect=0;image=data:image/png,iVBORw0KGgoAAAANSUhEUgAAAqkAAACRCAIAAABv8rZ5AAAAAXNSR0IArs4c6QAAAERlWElmTU0AKgAAAAgAAYdpAAQAAAABAAAAGgAAAAAAA6ABAAMAAAABAAEAAKACAAQAAAABAAACqaADAAQAAAABAAAAkQAAAABfz2fhAABAAElEQVR4Aey9B5hdx3WgefN9qV9nNHIGCBAESZCgKFIURVIiKVISR7IlWskKo+AZBaf1t95v1l7bszM76bPHs7a1tiwNZUujLMqiskSJVGCmwAASAAESRI6Nzi/cd9P+51b3xUP3e41+QDcAkayvcVG3Xt2qU6dOnXOq6tQpPY5jbbaDKlPXdVUwr1ESbNPSksQoDCMttiyLDJJZ13n4flCr1TzPqybB933+pxCCYRhktm2bp4o7jpPNZnmapjFRjzZen6YFgdRHZn6iKj5KIRmvManXNE2Vfu6ftJp2BYQwdl0bAIAZOFVvpC1KAYu12EjaF4ahAptPFQLTPL92EUUngA0qFPCkEKAN05CuCcKAn1Q8iiNDF/zUaj5EUqlUxpIAkZTLZaiFROgHtPAhRMKHhUIBXClSyefzvLa1tbmum3FdfiWLqpTnRP2SAAB16SfzpImvRM4SA+A3ivhXY+wK6nWGp8FACA26OI7DmhaFtunoQgOWRu44ENrXjTAy/CjWwjgK+VyvmdI7FMD4tvXYlj4ncxQJw+AX6pDAUJPRFmtRMtz5VD6ONRMykThFqP9+XZ9VTYODmPCIKPIgX8tUrylVg0I/1kpeOFwplapeGGQZKQwcnrQZvprJZHhGsbAU1zVdx8rSAZZmW/BXLRtPICiOfcGldAyo86R7wO/48JGOijW6NEHzeUBmFDH2pUvpfoAhhKGw2RrkIfghhJAGZEHXC0Zs4RWgLcl7cuD7kZ1QEu2aaLg0LXbGS1XZTz4RZ7yQWeUfL47a4WQT6VB5+oEfi8wC0HFunyAwIV0BMf0kzU9SHAWxFkCvYDfQrFCDfpMSAs0F3dSja4yM2JTGSKfMINCTUtnsBuSuGnwUS/wkUiaohHRqrVS848ePnzhx4sCBA7DxwcHBoaEh+Djsm6/IIy2cCKoQiiVkbNEDYOKIf7h5VxKIFItFngQo2Ez4QgIA5ChtVC3lc+LnPQBMPaH4kTYyMnr8yOHR0dFSqcSvCC0a2JGEzq52x3aAOZyQ9+nn570hswUAOg0IUb0DEaeDDvJEpkMkhMOHD4+MjEAzAwMDYEnRiXQrOuVEUIUIlRgG/I1fVSAdJUDxuKWLFkMqfUno7OzM5XKQE3TBGOar8X5JPiOuXieKf+X/WcAAozFhhDLGGZaRZobo6LGWUWXrvrANzRoux0cHvf7B8pHB2mjVP1auHBqtHC0Ho7W4GllRrEeeZhpxxorbMkZvzurJ290ZK287CzrtQsbqas90t7mFjJmBHahBT4UitSIfoSCagG5rjvDNC4IltIxYKHQcYREoC2IjdETB0ZEAvmH1VyuHj1b6hyq7j44+f7y2czh8fizaV4lKtUgPZFw0qM8sIBIdM+hwwgV5fVUhv7I935PJ9PQ4fbnMyvbc/E63UDBMJ9TRxpBsJtLI1WLbD0XqIPWtmBg9I+PxfAychKKS7oSHRACSSIGq5uVjSwtEMAIn/0N+AqLKPgUTgQkFkuektFa4MsImhJLIZJVHFUmcUk9ypeQ3UK6wrht+UrgBCgPQhSLKu65bhsWcGOmnmKGwnoQPOrofhHoUmsyDKMnQQ9cSHIcRcyRb86WhhqOGFPiPtWRSreCZ5jknsj+tr56hw6lNyyqXq/DuvQf2v/jiiwcPHhweHk7y0CodaccglXGaBApRBDqJTMlJUTxJR0VgwkegEF75FMHf29s7b9489STS0dGuT8yV1Sd8Sw0pkOc+EoW+YdoCM9OdINix6/nHH38cbCDPaIvSnAASwNS0dfXKpVdeeeVFF12EBkCbU8zw67kHfhZrVC2lwEl0Au1WKlUEPDiBTvbv349eCGbQlxSRIMUJdKLqUFUOrwppvFKgSiQ/QVVBIoE4OoEQje/zSXt7+6JFi5YtW9bT07N25QqKReVSbaRwIqpMlfLKc1Yw4AeRLdJY+okhgJ7L/MsD2WF06OjQoX7/+eP+o3sGnzhe2V2Jh33NQtAY8DnYXmgwGTWYgcHV45zuemFUjaIKvY36EBmyOoZ4jyooBfBJVIFV7eZl3e5lPdmlRXvZgnwxl+ksuMUs80CZ8zGYgMBKFpmmNu1C7npFnApmOCLzd9pTDeMjB6s79lUe2Du45UD/w8OGj0KrM4eKMqbRYdodhp3TTTsRE2nrVFE8bS1AKHmRPqrpo4E2EoVeIsoyFa9Kf7l6p2ttKriv7StetaSwpCdXXGj15rN5JSLR3oAhkgkpHTQBmPptKmrnKEUGvmnaVI8ENRKNLwg1x9T6x8J9x8tHh/wTg/6J4VKlWmOJydNqIIEAH4BL8CTwurAgo14FBahCUbky3q5J0EN6BFYr4TlMWxM2IwvbELb6kHQi6knEDYpoaH4c1aDe0PdgVqQa+mjoIA4Iik0BwPjnmjnmx8MoCXGct+PFmXhVu7Oo6Kxb0b52ycL5RShdCBnK15m88L/ME08f5lD2AzcBbAIF03pY+VPPbtu9e/e+fftoXjafU+xbMkws0pGfZoMjhXeZ/iUiUGEhKU8eFtq+0qAS1qzyUIth6enCL1VQMrM6ePr6Vavmz5+/ePFiNAOyUT5PKTqdXfJ+TgMqS8hc88DBw9/5zne2PbeTFWmwoaRUCpVqL3CFfqW/vx/xf8cdd/R0dYMiNKRzCu/cVEZH0EeqmYpOWPhhfv/sczv37NkzTifZbDIpl8GpJmgqvxpICleMXUUP6gmwKp1XIgSVmXQ1wlnbHI9EEcueBPQA8nS3taEHrFu3buXKld3d3dTLJwrIuUHAy7RU+KKs7UeiwTNoh8rB8/uP7N538DP725/ZffhIKdTynez0dFnhfDssBKXQzgdajOrHfJNFXAOmIiv2qPSyehqb9DJsjxlQbEc6S9+h5sJbPT0oh+Gw74/6ei1kzseCaXl+W/ba3uJr+/KXL8iu6Mv3zMvaGWRFY54u4F2QIaVzBV25Euw9VHl4d+WencfuPXCiFEfZbK6o6fOc2GJ9XnbK9BqCHOZq6pHJ3CmdnZ5sHo01AvQwMCsr0lYUOXGciWIn1kMHOaZX4mg4jvpDv1qT5WctNBdk42uWdt28NL95obF2UVuxvUAPUKLMZCdQl0ZO1jSHMQYrLMVKZb9XC5k53P24c+/BvfedOB7rGcNsc/24EnuaE2h+YRyWSQTg+6nwVxnG2cvEWvKkFpiB0AkthRDV9giCX1IS9jMps7waVeF7ItpFaEsw1YxX4OdN+iLRQuSdjrBCfmYThsSaH6O5yJ6XxYw/XGaXPn79mg++bkWHMRaGnuO2hzOc9Qt4k5qdQDLTR7o4m4wRxiaAwlVZoEigl2JY1N+2bcfTTz/Nwj4DFQnHuit5yKm0G/KcFQx1sFIm2CFQO8mqCp7sI/DKDG/16tXr169fsmRJe3uRfazxuT/VT+goZOZb+k9trvMVQAKtlBYw55BIS+Hk53X7IDVZq9GfeXbH5z//eaQ46/rsvQE2tTcs3ESDNXX0JyD56If+9ZIli5gvsalxAXIm1QTakjYkwcC49GVYki4YThhEsuuKPNarfsAQfXbbjueee+7IkSOu4yB3lTJE11AmTz5Uz7Tks48oOlFPVT5mBPQFJMpKwMaNG9euXdvd1U5jqF+hW+EckKS/WL/hiTRK2ou6SW+mPX724P26lBBpTBfZcBdGJlNo6V15+qZmsZhJOm/JBmdFQ46YFpMUQxv0q9v3jf3k6cEf7BjcNlAd1eL5bpTLZPOurP2r2Y9M5icsXWaODT6hUroVjskT4ceT4Jijxz3zqO96NVPzSr2G99olxatX9l29ylixuK87b2XYfgB4QyuxI6AbmYBNVl+XHSVmtdgqaWNmUIisCcYxc4hazBkGbEyEgksRY5i40BRQy8zeRbPRPZNVTtOpacbQ8ep92/d++Wnj58cODJbH3GJxQ7aQ8fzRSCtnc1qt0mLFjbOzeAD2ULbACVhQ+GRQDIZjI1VtqMzuSbyu03396tybL+rYtCjT09sts17ZX2FVJ+GnulbTqnooNhka6gSTtwj1wYIMoAU7ydm47lZSEeamZ3iuiXJTiMOtA95d39/zP56uFJzBfCbblslmkJcyew6EkyQ4bVh8yr5oNRlStoMC1DB/mmHSr02ys9Qk3GxqCNlJOV1QIJGLiGv7Q1XzwKC2qjf48vs2XjI/F3h6zCbX6QpRv5+V7A99WcZnSDBQEUsnMZVoNPv3H3j44YeffvoZlrKZ1xIqNY9sYBZkKYZOnKAExswAni4XxQKDAoN8vKpAFTBl4kCCHsBeLxoA07uLVq/K57NSYpIPrq2merKTJfZH44J/nJvTX427XgpoFlJJQA0Axqu0V9f3Hzj4qU/9PfYKiBlA4ieQAJANy2FHFHCQhex2txfyn/jEJwqFXBihDLasizQsf7YSVRtVaaqlqi9YCaPVatbOr6CXwE8Y8Z04Mbhjx44nnn6Keb4fBCzMsPuOwSe/EsisaEO9Uv5sgarKUVUQVxGAZN0IEoUM6BSohXWjpUuXvvqqzcuXL3ddJ2LmSWCdOiHapFFSEssG9F1amir8ZfRkHhVjp4dgIoi9UbKzSffR6dhfRa4s7ge+mc2wLG9Udh4t3f/EyJcfH3pgyK/l4r6C3mvAsOzjlRIkbbNSmiyCsjiglAaxYmolwHPpI4KMYXmOj9uIBYPQy+hB1jXR6I/V4qPVuCp7u8GqjP32tb1vuqT9oiXWvGKe8UYhI1pYDDMeO9khancOCyUzEonrzPG4Yy3alIVqkfrMr7XARfp7OXZ4K55m5SK7poV7Doz88+PD/3nXoXDA07LGiozbZxqVqj/mY1Gdie1a1Sg5wQylQIKm5g8lw1KUil6VoFd24CB6U0M5KAXxoB+VxFTD+N0N+m2XrL56RWcxq5k2i+5hzMZN7HpOwEpE6GumQ8eGOpqVaVR1a3agBH5qt/0S80/NfXLrjhu/uq9qa1dmM0NGQVQ6eA6TU8CBrOAtKIRNyEpxp0n4SJhbY37bbOA3k/3N6kVRmlSpep3E99Lq/Lha0IuOpu+sDdViY8fHVi3vWSzErui+YVl1iWcl+ykHNCkOiPjnVVQBTdt74OADDzzw5JNPEu/s7AZWllWJK6BpCV+p9pDC55PaRs7ZDVRHoCLEJzUqK3H4dW9X56WXXrpp0yZ2BCz2DxPAqJr1ZZhVCpv6xHXcCR7SAnSUyefpB2pqyLz/U5/61LFj/ch+MjDXROYhLAlpzvqIkv00AQEz2H/8+uuvf+tb7yDDyXLrc5+/uEIgz1SJUc1XyAcucM54wFITUcAe0IMPPrh9+3Ym+tlCvr29kwxY6pOZ4xxpUURIB4f1aJz1JqrC6R0oRMFJChoAPcIyQOBV2TC65pprMLkotOX4Ca1XqYkCs+cpEwGInM9Vk2cdwgu6QIY+RmKhL2tpiAIMvkz4PQpcHj0XyFluh4bhEE/tL33vF/v/4/YTkECvo/dyeEc3RqOoFMYIWyzLpbtZPWAthcDsUGYREs6s+XwIG+SpuC0nRVi6Y6MXyzgAss3YFZurqLOSO2iFe7wqQK7OBe9d3/HbV69dtCDPfrEZV4MogzBxkBnYtjlE+WRmzPXMgBaRLwEreiPwHd0OTQwaagWaYjiaFz4/MPi5Rwf+6lfHK553VT4bug5LJqyiRjE8Fj3HYnnVjGJL9lRmGU46A8DS7oCjSjeJosc/mdUw8NEHdg7EFa22qsN4/4biuzbNX7Wwg7ZwGKGdjjXELsFF9CvQQg57sD09O3AGLNXbA1qt68mjQ5v/9tnlHVbBMvojrSDQUTe1yt6Q0BXvLOVIQuNAsyb9IFQ0JVHlSREy6ZOE9ielyavZpN5Wyw8MP6N3ROFw3ul5aqzy/jXR37/nsgzrUo2nkJMhOVvZrzACv07mQtqhQ0ceeuihBx95GCJAsGGJz0/wRLKR0gxHk4E663dVEahU2IQcYeIKVJXCU3SOwMfwkInmJZdcctVVV7HLiwZA5Z5fcxO7+rQc+ZYhP5keWgYUMADm6W3bP/OZzyxatIRlfIpAilA+iFKwTS0UXsOMkw/J5qApV6u/93u/19nZftbgTK1qNlNoEcWBZ56i1nBET2eNR8OCjwWhRx99lBax7IHgZAIAkZBTUIFCmehAgvMk8Dlx9Tqb8E0piyqAGTAAjAiqAPUjztlXJs4RjPm986677rrLLrusrS0PPwk4DGQLxSTQjUN7DuCcAvh5TkBk0mMWh6f4g7sjchD2yEifmZhnG26pGj+1/8RnHjx0145jWtbeVOio+WNeVPFQFLQsu5l8y24ztv2CvUTA0Asgn0E7zbiYSbPrpYqOVolRgB7WQgwEZX8i1m0UAs2sdWAQYDI7jcIg89xIydTL712z8sOv7blyaWfG1kuWlmU9uRYGdobzVTPkrTMBr3EeOdBlMeWHtEBQ4FcdIbPg4ID26Qf2/z8P7w9i8/IOiwOwZT9rGYFtsLjviE0bC4tGmaVvO8zkw0LFnJ01/3oc1outiEk7c1VWQdDcJia5bA04tSBvxGOhsatcdXXvQxf1fOTaZatWt7nxmGn1IPwrNls/KChG2dAySI7ZYmSyOxIdj6sf/Mvdzw5V2nNWqI+5lZ6qOwJdgWooiqENUcGOsKZPpyiNe2FKqipkSvL4nHZqelPZ30SQNCt/askqpWawfWZYtWrF1ldmMr8ciLd+aNmKFZ25mel8ZyX7BVZZxxauB3P85S9/ef/9P2extKu3i8R6cUsGqCSU85cS5DXRoSiBoOLqp7N5UpQqfFIhaXpaqcrGNJSdCJ61ShmBumLFiltvvXXlyhWA5idzuPqZnGiKzGtaD1Mb+L++8tWtW7dyShFChP4AQDgR47yJ3T77/fg+ICcodS3WyU984AMfuHjDOrUx0TpEc/UF6EJ4g+T6JkMYTLaw/qFWpP7Pf/7zLU/JghAHM3li80hmGq6+Ag8MSgxfVAlKAJCNdAKvxOcoUKPC8CR4VHVASO24FcAasbuj84Ybbrj66qtxzEC/KVBT0lCvcwTkhVks5/ExxXN0M5BNEUSWyYwKoy/W7NH2Hnnx4Kfve+GfdlUiO3d5PmPo1oBelYNWEfM97F4w4cd4DNWQQ2oyI1KDlJaCSQKUUS9vWsJAWpSim6o1xpKEAc+PbUtnCVDghK4q+qCVb3OqtsXRQbPSqQU1O/9E1dfLw5+8dNF7X9e3eWEnxvIlkzmqnZGJq1i0zV3AS4XmxKic7JaM6EHesmuh9uVH9/7r7x1xYn+jg2w3++O2nIlx3rDjmWU7ztc4rB57nPvKMH/hFKP4SnHQdGYjsGCuJDv4VH2hXhmpiH2LXkb7Y9OHLsNGEL2PgzJYZtYqvS7bI/lHB/rxxfCWxUv++PbVm1Ywy/e1mouaIuc3NNvTOSY4OwETPbrwni0H3vGF/RsXayNjNgsBeVfm98kwxVBUBMSEloIK11jpgOpaAigls0lfNaPbFIBJ+Zu9Tio/Bc+18rXhfr3g1GK/YFg7TlT/8sblv3/7qmblTEo/K9lfYwsPnqgbzz+/+3vf+8Ge/ftYu4b7I8wUN2dcUR9MM5kZhPB0XmVAz568r28PxfIKplJkqRQBIAlp7So91fuQT8z+R4fkINm11157y61vyGdzStiQc7w0WdpoTCv1MEyNnywh+Q0l42///h84tJbldEwiJlnzZ/rLjzI5bhhYDrVkK5o5KIPt2LFjb3rTm26++fVnAk3D8ucmUSFZmm8YAwNDbAOxIEQbOzpE6tMc6ackkAdsC80khx6V7FefpxmknCZrbrMFPuWnlRJRQQBIdvcR/qRA3hwRxBQAq5FbbnnjlVduwpwNDYaZmWg5ahV0juGcrfbOVjkYlulyrgi+z+ozh+d9i+372Hj8ePmff7z9U48fcwo9lxfNSq08SNdGPqtwPo5jJI5Jm471vh2Z2djwjRolSC+wEA/rkP15zFxZEGjGRWfUAnptPB875nGI6TuWsyT6gErfIi5YIGcfzmKlp+xyENzJxUGlW/czcc8vSkcKmvFXNyx81+sWZJ0MuglGdnM/7sCheB4KdB/59MSLI//1R7u+sn3s0r7OOKzUwG3ghOwDyAarMWqW2yNXw9eBjoVg0hbIEHsGR8NJ0qwEpTlN6gOR9nI2U6320Gcob1Gi47M1YpfZ6dcYKbXAqCyxnTDIbynXrGrp/31N9/tvXp7Lt7OyEemRg4knu2xGYnR11rBKc6P4459++jMnhl4dmScKdnVsKDa6M6EneigAJj0HgaEeiVDwx+eiM6yZDxvmPElgDX+ekoiVY8PQ1A7g1NxpdZnAK2ezxdCsOTV3zHnKPPZ7K5b99W+t45DlqV80fjP//M//vPEvM0iFxBiVP/7xvV+7+xulcoXTdMh4Np5sh/nQuBk/DF2sbpMAY6RUhUHVgGbYnEHlDbJQWsMCkTfqJ/UrT6Ai4DEBk3KEMXGKsx03k8vt2LZtYPDEhosvJpGcMHRAhVAAvIma2ACS+iRVKQhREVwa3PeznyHscVmj0IIKwq8KIfUfpnEOfKJiIfhlYs2GJafRurvXX7zuDAFKy52DSNpMQKW94A116tFHH//y1776zLPPdnf34lUPXYfGJqNPRiCBr+RDMbQQnLM3AGiTEKKwNwcgnyySGgGGd6WE0S+KMPA4SZRE3hNIY5wEsmr42GOPv/jino7O7nk9os2gHAjwMoIb84iTNb20YmI7pdkVZl2yl8kyT/ZgWf/8T7e/7WsHHh0ae9X8jqJd2xMYpluMgxpn+232eULL5RhAHHEsV5bTjaBq+yYyGO49vt8t/4FQ/hgbZ4yweipKzrXHHMjy2WCADyGuohACZSPONWuW5mUtjlFZ1aAqtv1h7oheusjNdxvO558a3HOsdt2qXjeLREUonzE4M/uQ9Q+f9ZAKlo933bvvzm88t8XPXVk0Bzmpp2e9mmfbYpHqaSUr5xXQU1hvsSxHc3G6A/H62KRixO4hnGdW3elygf36DlAopabYz+uhiYcaRgVSn+OWrPqgeGCd2BFl2ZjgtS3IjwTOiBmtzBlrMrlPPTd0fKD22uVtDg7a8FfjhEaMHdXsAKrX/GO18u/8ZHhpVPXY3MG03OlgiV+UdkVJQk3JAGUFgNNoLNYhzqf8KV6cPKE8+YO+BQPJU2Gj/in8akohpMDx6Yipf41zz4Bp1BMz4ASWbwZulfVQr4qru6O+vlyPb7+yD2vZ03Wp/D4zq4AmJZ0YOHHPt76DuVZbe5EV7NKY2KvDPZGm8E0CjDLA51My9SddyWAi0gEg5SyGdEOI0jLHqTNR00hUDD2tTmUDNuZw5UqV/WZ+QkQpwLrn9XEiEWPZO++8kyaQh7rkWwZUurDbsPppE0W2JU1G8iEXqTTZSBYDmXSZJIVwUknkrFYrfMKAF5RyhOXsZkKTyp+tV9VGSqOjgZnICy+88OMf/3jbzl0YzONGTykENERxcxCiUkAy+xp8TttAgjLr5td6wBT26lNmK15fkeoC+p0IeKYKOogAEeH6D2iJ0QtEeOI/il2Mf/zHf7z26lfdfPPNbYUcnwg/mXPhMFtNn6VyWK9ir4dT4Ahu0/7RMwf/7+8998uh/OY29tDbDw7DDbBC10vlYZaAcza2HXJMTU540dORU5EDbBGze2GyEDYyRDgEuwHMDGVB6GygVJ2rJnxVLUKacmAdOwIhNpmowj5jdOpId8LYKtU4r6HlDTfyI88OOvzagYxI+3XLOv55x/Gdn6l++f2bl/VgoyNuQuYuMC/UM1F/Kft/3f30l7YeWdjZlw+DE2wJBpmqxhqhU438MCpnyTRmV0IM5WtmwG5G4FlIGsMKQkt8Jp0yfM4G2nSNGm0JfKKeq9IirAyl08TjAgOFJRHsDMWITrcH9aod+gU82LkWlrFZP6xE5nCUu3Jx3+e37M1amf/2m2tDB9mQdzjqdzbA1X3L1GH0UKVUHezJdh4KyobttPm6xyBmo0kdQBd/wyL/ZUBjG8lUtVFgJyrhAycRiKSn4c10UDhWo2KaptG9DX8DyMbpEwgXDaMuxF7ByRrHOI2i5yrV2M1Yx9l5w35lZmFG835MnWB/MlykkclBBF3bvXvPP372c8MjoxzYBzMylGRLFODGJ0+KjSaYhhpEaQJ9hGkAG/9k2jzTfJ7+dNqKyCmQsJuYLOSOvybf05C2Yse2HTu7e3sXL1qoypQCWx9LNEdqSYIgMOlaTMYe3/IkSkXaWCl74leVedITmhDXAgnxcWYZt099vfMuveSSSdnO2SsoAmbVuvE2wnmkoSQn017DqNT8H91731e/8c2xcrXYVqSJKWHzeaJMC6HTcNV2pVxLIcL3JUxtjnyYhPTXFIck18fJQLEqs0onrr5Kv1W/TvMkp8oMRFJ6siqgUtSTb9ESUGVe3LN36zPPFjs6++bPS6aFMlbG2yU0IJMEDBkSP+jTVHih/5SwODoaUY/oxhYNNzGaJwb6Nh7PmFWPjcT/9bsv/O6/vFhximuKwVBglBG3sh4CfSQISXz3wi3oXWEKYhwgdI3cIEUIQjArCIPRCgUkuJO1IMk/+a8hp6Sb0t5JEaq+lcqET4sTVZFWST6sDEV48RW9CdXgKphM/Mp8wIqytVj3fY77X5zPPDIysP9QcNtlPa4cvBM2yNZEQhmyZBWJ1yHKaCEwKzIwdcDBnB5ZGBriTy/KsO3B1uhT+4bf9c9P/PD5+KK+Ni8aAI2JQiRuXVGNBeUaVrGgCq477hKW5gATfwCD8kR7aJSChtaIwONXIiRNwKkyKHTxZH9BQoLnFLeUI92RJKrS+En9iVtkOdGJPYBUyxAW5U9MAsAfyGZij1UHBeIRAWjBrjZYqq2fl//Wc6XFxeiypV1ZDqTjka0FnJ3MWt/RxOXVNHYcqtz15Ik+PDPg8wkapUrLE3NOiELWa6R1BEAVFUVeG/w1lPGUf7LuU2MJ1lp4jGNT4bTuKZyi0Z9QrKyHTf7THC4kYAxiwspBVDapTywwCm99zYKs9PHpw4xyqZN7YFb2kWT9XHv88S1Yqk8tfhoETc2cpiT0Jm8Kfyq9Pp7mPDcRJuLMU3/xi18kV8MojWd2ap7UKF7PDGOzA82ZlgIdKPHPNJcmEFdchTioq/m1gwcPf/rTn/7Rj34EGhGNqp60pWQ7s5pleSCxuUs/BxICr5Sp4kSoCCoFkjS9/qtUgUgLOeMIJgtUSo3s/bOVc9ddd33/Bz9mCZkqqJFigYQMouqIZjyjhbgzBuYcfEi3YbSFGV+tMoxVufjdsTQX/7lakI+DJ3cdue4ft/7ZA0evWGB3a7WB6ox4y0zAFj+p9OnEX8oEG357xtQ1tTQ9tmribNN0fWt7XLox1/fN3du+9Mt+tuDInCxTTFCy7FdNxKcW1CQl0sCd+MLl6zL2j1FHhZNycXTv9hOv+uzOXQPBZfO9gbGqG+aQq7Yx4YSuSWlTk9WI4InUE4GMNqD+oMskqE8m3vAsI0hOcoJFCXw7iwbFjIE2K+6vhavatE8/uLc0OIaak6wLT4X9fKbQ5Jb+UClm5Q/dq+Ef52Ab/uESTfMHe/BLya0A1WPHja6OtqAdu9CZhRmNTzgXnmQoEH+7lm0+9NAjX/rSl9xcVtGHqqiemGZW9Sm5KKr+PX1VVaSv9XnmLo7kYD8eT3PPP/88tWDMyJMGtlpjCnb9t6pF9UWlY68+8QKPqxYx6wXORLwh7/BlHbJHsuVXT/7d3/0dhxHwmsDlQ6SrBta3aCoS6n9tFmelPd3vULilZMonv4oIEMmaBICx6ZAmqq/4BD6uNnGaVdFSOlVQMtTCkwMj2Lvcf//9bAEcPnIMWuEApwJSQBKHhjMaay0BcK4zG0ORn8XeLWe3ZRJX5CEHYrLi8+6fHtr7mk8/c6Tsb5iv7wltDOIjPz/r4NWTjcKtqkKlp8/ZqpdpK7vFcnFNzu0Oc3vDgTXFpX/xs0PHRjz6kqkuklImY7KKcSbBRosKq5jzOTFH9NoCI8Tj6bdfrN32T/s26mNL260Bv9NynSEb5RFDRDkP3FJQ4049KQLRrv6Iy9T/1D9RUCf+ZEtEhpQMLkJLlU6TGQ6BLoH/ofaM/fjR2tN7BrhbY8ZL1NMUPMs/sRV1Xv5EnWzlrxPKs10vGMTI0S30OKPllR2WmZvpHGNG/IgZPwsq0ACWuT/72S+++JUv9/TNE+OSWQqKOusLq0+pj9fnmbs4TASKR/zv3r2bo8eqonpe02rVNCEt5GzKabXeOcrPlBohqpgCko9amNQyR0A//OY3v/WNb3wDhoWQVZYNOOqZLTBS5j41oqpQpMITqAhEyClzl2S1AICBnMn6bMFDgWgSqliqQDXBb/ShQ4dQfX71qye4M1gWFJN9AZ7oB7NV7/kqx9PaEXjsRotRA3N+05KTZWPeH3zjuX/zjSNr57XPd4fHYp1DVV6cK+RmTWZMklLqlSlsGtJ+V5E0/SwjcAGEJFokJzs4jK5lbI7bHaqYL3DQni0MWfcQIKCx5CaV1mtDojvYuUAYmJGySR999/5Dv/Hpey7P+WE2NxY5vnfMDMoZHNQmByFareAkWmRpWzYN1B9xBTYRFdRrfYaT307wrlZrn5off43se2FK47HWke96+GAJ4wB1sdDUzOcxBYvJ8/J3cmEmXaGZNlIzKlEtg6mKZRc8v1KL/PXzukUZnVmYEV9G6ov3jVjDYPub93yrr28BEzCIA67Kc2YVTZcrLQRCJF/6Wv9NfaLKVv/r7MaVqRetw4cuJfuB+Mmc60pntwlzWhoCD8kKQhB7yFVuXmfl+/DhI1//5t0vvvgiZxBQBpRcZGacrr1PAonP6/t00q8NX6mXTyiZ2lUGCiEoYOgv4iqdbARFn+RPM6s8aUrDWmaeSGnoN0j9QqFABPBoLOLfr1a+/OUvYwZ42223ARKKB2WqNZKZF34B5uSEHKwa8V/hcDb7t4F5YGT4Q1/cdf8h48pej6t1++Ni0RTn83pUwb5hpheKna6pqltVn56StwnzScnglMxn8IJTnY7eyugIR+hKVqa9apftsaxm7DwweM3FvWxfJxN+MXaTvePWQ8gxQgze4nJoxZnAfWjL0Fu+t+OShStLpRPsI2Wq5VquQ7bzywOaUciUx8bc1s7CQZ8pUMgVNR8EZoYQKAKfKWLJxuvJ5X0WBWjRRJv4KS3nbCLcvsiJzsgqiI/fyNk5UPWMXE4MHWbHD8HZwFb/bbOreuvz1Mdnjd6aoLkZ/jkr4wZmJcaRUtCRC7VKftPKBRxvwFK0Hrxm8RnJfogA9wjPPPMMJ7V6e8VaW+Z5E3y2WdGtpqcFElGtVU+Vnv5KsfXxZnhptfb6/JSJOIGn48iF7VsTbxlKztWNpfr8p43XA3zazBd+BvADcpCgIlzRM6No74HDX//613FasGDBIowZ2eMnDzNsskmeRryjYeL0bVdTZ5BJsSqnKkTpasTVKxlUUFUDHoH86tfpq2jpV2qhpQCDPyuejAsgEV3HtDq6e37+wIMs+7/1rW9FAUJ1BlETvLSlSi6gzBiTa7rHgTjO4qMEPLf32BV37fGC0Q1Fd8BqM0K9Ewe4Wr5m4qLRk+PnJ0XP2bWCaQdhChUxLNNy6zu3CQtN8840knHc8ugwh2vtyGO9GrO0HM4JgpEjQ5iwyMI5BCCSX1445CbisqXAxgjX65lcqxvUfvFC//Vf2rtxSdvICDcGFHU/HzplKyjVgoxj5gpBbSDjsjXQakjRog7PwFjpE9FVEmQCfFqgwI7f4gnuKnmSQBtV5Oyf2G9y8NDRw4rpduiVfcMWN9LlWD6etRrOHkYpIUXaDItrNX/TYk/2RtMs9T8YWl5j3ag2ltErW4c7fnuVdtEi7hSUu6dmEmaUjW1+/Ml88YtfxAEOQhHBT2sJ8PWZ1HHaPIq8piey6X89bRUtZUBU0DqmcXBz4nailpLSUiHTZJ5UFE1TYZpPLqyfxKo/OcDJxVy2+eyO57D/AF2sco+OjSFxhUgmgorPCvwTeJL/KVChkSfilqdI+KTjVF0qD1AgjwlE1CeTkF8P2DQ/1WdL45xlZWOI2pHuVK2eRKgavYf1jyee3jo4Mvqed/5WR0cRy4fk0vr061/DCJ77cDGlDZl6x1M7j7/6i/sXG8aCfA/3yVieXog9M1/oL/t5K+uzUpgJuLttVsI4l5kQQqpnKZlIwy6brYEaRthY+V4UumLnrGdCo8aZQCPns6fKij8uAupnx60LMCz9siilkfbUaHz7F15cPj8ORrl9N/YgpQCvw+1VqxyHow6OkV0cH81z/OGW8Mm2PboJAQSie4Ku8bm8oG0ykviRPGolg99QCwiySMCH40sGLVXeIDMTSG7vwSk51OFaFdvI6LWS5s7tgckGcJwuiVOgp8syJ79zhKOlcqvVES6bLOCj0rMib+z3b1mGmwp8JszQsmhGsh8vZtgwZ/I5/POLOEzohokO7LYlWJtlFpqc0Denz6OyKcKdRL68qnKaldBSOny8VBpl/RaRxodqGaClEuoz1zewHmziyKT6lPqvLtg4W+gghEbhaOiRRx77xr98C0s3oYekOaqxZEDi8gSBPGelLRTF1B+JCxFSJqijUoLqJsQws3AqpS7RAqIIAUxQlzcSATwy8xXQzgo81AgYlIn4pzoBZWJBAjCAE7/FbIJw5OFd73oXNy/PSqXnsZCazqQtZ9Wy33ux/02fe2Jdsc2O9SPiYRaPotoQfqfKUY9rjVQHnWwmrHIObqZmR9M3Kp1QQ1oqkJ+IyLYp4n8WR1PEnYJ+ychkx7xKGz59mY8bec90LTcvQpQ9jYTWZINV7olrOXCOAJdIR0bNf3vXU445ljX6atqYXjV1txLiecY4inc/BCRXHNU8rqLrZ8el5TrEUFlO5HPMjqda1fciUcrqEQUaSclxw1Ji7sdTDqvIqgDrBfWrAy3XX/9BoFntlj6iW/OCyvPlaGXRzeVw53+hTfu1rNkanusxWd/eVuPNZL/qnamlLXRqg1H4lGdZQ+49H1x60eIehoR02sym5KfIftpANXQ6/FE9FWu757vfY/rC3TywtpTnwoXJNhUglcJPZCC/KlCVzFVTpKMx8yqkBZAJ+0Z/hnt6nvB0VS+sk8BJYvJQgspP1QQyoMzyK5KAoKpIsAPk4x7ZVCKZ+ZAqUiAVGOqVuGoO3xJUFTyR+kGIzw/2bsO+hQu47JlbtGlHci3WKehKiz1tRDWKwsmJwCCouKqXRIWN05ZzjjOw9QGE9BK9A6oFziBZ9YGbYP6paQ8++PDd37qHE270bHLmCQOocZWZD6Wnks34ZmCzq4gDeH6lN6mCrgX50ABuj0ik+9RPehQiuUkfrtUQ2/N6enATxCECXOt0dHRAltkM7tjG7xBLAE7mLNCYnM0W4z4Cy+8cPTh69CgbE4eOHunv74c+KY2q+ZYAtDSCfqEECQnQQCgpnOdOdB1FMGTkKwKFk5FXVQJfEJ/4VO5cplLE/9Do2F3//PmPfvSjvd3tXFuMXzYWk8ksJSu+N46zpMoL4BFqcm8t96qXDI0D7tzNWw2NDB7bxCeu9v2n97zzK7vWdsnBsyGuj+VmWyZ04kAFStFLKEO2G7I7wKVzTULFNNzAyse6Z1S4dib2DNss+rGZM0bpFO7PFkurMOQcURvHilhOD/OjOLcJawORjwYn1s3iNC6u5mAFXFvGdXx6wbIQXS4uonQzzwRdw+Igqgq9cjqO3mRVPii5getxf49bwJsfi6NRzNwTMztDDzBjYF9T/AqZBh9hvEf/Blo4rMfdgVUyzBE931kby1c4aV9ZX7BG4yVuBr/13E7oMis2Y0aH3CDbsMUxS/tyyk7UUiBhOQH/xRyV5GB7Tdf+y707HhuwNubbTuDF38piZRTjTVg2iWxZ5OeQOv/EWY9YlUJdEBu1KAaiqvO1jBlzo49fhlsZVlF3glo1tON233Rsuk0b8bV9Na2C50XNz5ha1RHWx7cyxIS8kwJRpjEXAw/oMbaZtbV2y+g0uYpRFACuCvRlu4BGBtkwHsMDYgjaYo7tB7aW8fWSEWcjsBrixp9LhMmZLCEIgMAMtACf1/wo5P6BfATqhivrOhxuJ9ExvZ0th/6KkSZDmHapqgWCJgFxYeo2YxgzotD0TT/KhdkjtvHCYORmDa88zNVP4qeYMU4L6IUmQhUm17gGdLtGQVhno4B/q/pk8EYgBeeTPIVdwNGSb9Vulx8X2sL+91/c8fEPbLxqWQ4fzkJa9kx9JZ0CHDUpRkZNxKkMErn/Z794/PHHlyyRS+c4xIzcUnkUWPWwpnHFtaFRJf5VOvkRGKyVwTEpge0DCmdOVhoZ9oKQBdI1q1fB0DkRzqUABFg6IKhvyQ/rx5yKuRSfs6PMTjx8nFv4gIrqKIrqcrmC2mmm3jSRb4kr7qxIkDIBhhR+UnGexFUhyAmOdwaBXN128cUXq2YShxcoYFp6SofVicO0upYKOV+ZgTxBo1yvN45PXAwJ/5I17a3PbMOibdHSZXQK2BNqQa1rJQi/rcnyAH3KM2vbVe4scC1wzyuBTqejOfG8cOHCFStWrF69GvLgKB0b6NSDascTtYwOVh2aVq5wDlM3Ddt1LL1Y6JvXs2rlcjIA6milyh4WBvlMynfv3k0VyGmCm81wNR95aAY9LjTDXbSkJANBEQ9pZABgYFP6EK9TA/iBFCmT6iB1yPwf/uEffufDH+qd100JchhSpmEsKNfsRNGZWsJ5TMFRKB5acHiXZ/7nGmiArCoGrPJE0f07Dr75m2OXdhUqRqYirvvLXaY+0oSXNWtCbPsuqzJIe5QJT6fj/dJQxnKqHlflZLmuJgO3c+x+L3xh0GPlSHOO0ONrcu7VBXdx3unIiM6PC+XaaM2LtQE/Plz2945WDpdrg+gciCg/dqwI5aQrZ2dYo8I/LkWiJATVOI+2UMVW0TQyzK0zJc9p04fhqJ7Pwn6GSUgt1Lk0zzHLNQ9doifI+/pIBGsJx2oZZwTdx3EW9HZzLH+c1hkQqvlyJ2HjILbtokvhaYblZHgghtKcyKYA6/tbB/76kWOv63UOlnOO4flO1UFEiphpEGi2Gmjpb9AkcRsDi3BQt3PZGqIeb/pePlPJxLl9VuloRdeqerFDv2Nl5qqlmbUd3flCcb5jwcYhTkXMDG3IlVFc0Y3hMe/YYGVPf3X7idqOIf+5kWBU1m+cNidcx7pym6VXMoOsnKFloAZwCxO39oWmhz9hLkTjWrnYjUFoWAJOmqe0CuIMJMfiNJqN5/n8aFDlSsTQ3nBRAcUmdBH9M7JNS1s9ixERw+BwvC+lJ+mYP7rE7ezI+jU5D8zJBOEH9B5KIo6MGgV86jVK5rvGR4omxNrkj+JTlSDFxHja+NCgMBZvEjGH4TkdR+jLacsXrFm7qFi0tTDA06g4D8OJVjMdZVJ9k+UZJaocqPKUdeDg4Z/97GdM7KAMflK8DLZIdypoJhWnXiEs5DSZyamyqWID9mXVPa2xXN/O7XmLFi266opN69etpQrYumKmir75RMnNCdEpZSekLjNMAtlkLjg8fODAgT179qAH7N67j8FAvegNPGHQkLWSImRW3JxXviWdV4S9EjDUBWZJUZkh2WqlsmrVKu5sRV1RhUiVLQaAIVAyQX2qIiTyquI81WuLZZ+L7MDOUT1qAgOqPsQtmGQytm37c1/4whfoPmXZx+V9DHR817UEFh0EqfAJ/Qj34SSV9A6zOtumW6l0ycIFr732mpUrVzLRLxRyMkgnRmmypoNuKuRKP06tVyE2RThgk4dXQjGfa1u+fPWK5de/5trh4dF9+/Y9++yzO3bsOHG8H3gQ1SwikJlPCGqgASofUhEpRJSKSXxqvSoF8lNdD1GRnzKxB/z0Zz/zOx/+SF9fLwPI80U5QDER8e82nSI3K39O0wNuAMd3nNTBjMPXTSw3XYxf7t/Vf+P/PLC+0x+Kigka/G6tNBBi8c7l7C2E9nK+qo0ys63Y3DhjmaOjvo0lXW1eNlcJ/COhcRy2UfY35vU/3Fi8cnFuzeJ1hazV0eYUsyy4C1zYm3C+LsEabi41/MPUfG20VB0eAc3Vbcej505Uf3FwbMuxctnjmgGjtxB1F8xO362Men6UGc1ZmUpQy2pu1oazdVj5UYs7Z6NsFDiIfxxD4WAv42pVHOswWTU4Mh1nItQ9k/UB3V22qAuyw85EyFEIEke2rIeltDkZFSiPAjW0isCUC0LRNbK2Mdo/EN/5tf1Li9pQBeHIkia3WwECMnWcCU8qCIqC5HjCrwiKb0Bdejxgal2ZmjFSG82apYJmbh21aoF3dYf78avnv/6SjvVFyyzm20zD584l8Z88vuCUrHOJ3Sb6QxTnRO3BCZ8szDLX1AZK/qGhof6x8iNH/F/tGrrnaMXfH5hF6xJGqcs9OEHFcljSELtoxizzL7nugvhIhasSHZFPrKQAZEJKLH0Eoug7WTuvHfSDmxYbr16b56CDi0PniUE9qb1n8Aoyxgf5DMpM1oPERBN0w7lABH6lMe/4/ZtX981vx60DwlSmFYnsx2+hOtcxFarYaCzjmy1oNAMt0k6OI0VYE3WpZULBkxBZMjLlJ72E/YSoK1yjwWwfUQOyq2UtNyM3UJNlv6InVSWcDV8lTKxxcc/EBY4MB4T9wciUaE9FwgSI4/8rIUpmpu/IBsWayQxDJM7BOWZql264eNOmTUuXLi0WC3EovvSTZon/btVCFsdgtoww2XFSMn9CXib+lmW/gO0i/hYs6Nu8+UouXKFkZnKcR9i7d+/YcBmAYeWs+LEUAmRqtAAVcUiEX4ETqGDBJPIrKTAC9AYGGGC/5z3vQjlOmwYMTQd3munUiBDiqUFaMtEWflEZeNYnnvrF+X9TU1jggB4Sf1fmli1PIviRx36yiaOAD4OkE1uBF5yDfzWBphdQzygKSmNpa9OlGzdv3gx50AUgTKS+cFthLeSBivAUC/6ojb6j44ikOEzRTuHk5DVNUdAl5CBRiuV43saN3Nx0MfU++eST27Zt27X7Bb7ChgANANgAEnqgCp7UBd9TYCsiVwVOelIdecCbUiVVIRRYLo/9f5/+h3/zkY/Onz8v9b51oQl+2sLQw67d1a0qrqTl0rEx28g9dsx50xd2b55nDoXZKK6y/p8No5rdlTRzEgJO8xpYo5av+zae8nFI7wy6hRWG7cejj+Iyp1K6vCP7v1++6ObVHcsWmfl2lEGWIOAEbFyLRJTRwzosroLlmLhISX7idksKy+czC+aJKomzawgCffLowNhz/cFDB2r3Pndiywv9YaGzI6MvM/0u3R/JaQF3n7OrYRSHYq+NFYcoqOAi1zFdOFDoj+meb8V9LBPoRiku2+xE6fr2kcrH1vX0dmaZuiV75wkbRlbKpkJT6wZcICfzSwsB4/DgpmAYkmX/xx+9wMZ7l1ssVzn3buPbxwo4G1GKtMZn+ZTgh7oUVUOBiub1uNezQt9DPep6YuxoPFz7yLq+t71q9U1LCm5OCRFPC0Zxt69rbsmwchN2EjBb6SpUAShWi7OWzzjDizFNgYC7O+yeds7rdt50STzwmnn/abD2zJHox1sH7zp0tHoscGxnjfQOLn25SYArA0WfYEeBZTKW9Tn0gTgSHQOZKX0mw9MqdgWVwRWZaOeB+I8/sjQXgHW/VrWd8zTtx026AozmAx7AsgXihYEX4aIa5xxyrEX8NGMmwQKYRh8JBU4NaMZTEyVFb2zsmsruSV/FUSaVGPV5Iu51ktKY9MIKWYMQsAnsUcjR86SH+YFNGMF2rtAYSvVN3XOy7IeeYHPJpF97+tkdv3ryKabjCEKEKJyUD6EJxfUgxLpyTonC7JCg5EQYJzxdNkQR/F65NDQ2tm7duptuugm2zsIdwIJzTLb4Hr4ucabgCsW8JJMLXsfbqiohnSYq3ZT9jwlsWbYBqGyvXn755azi7ty5c+vWrSwJEC92yjVrUnKyiK0aAvwMIQLMi5+IADYZSB860X/j9a9dt2YNX7FWIZNRoWAmcAqCFp4peA2/oSlkSBrU8PfznKiApwfpcfHrDPFF2q5du778ta+LOpjcfwhh8CsoBYdnAC5tpwQ6PwhqY8MjkM21V7+aQD8iZKlO4Z+uo1+oQtXCVwSqA0IllVU8fSpIko5T0fGn+iolqKRDpVPREHL5zPXXX7f5qiv27zv4yCOPQDxslkJRUAW9JBgwTbWYRJxKAVXpkadUkLxQi9JIgFZhhicpmMqiXH7pS1953/ve293dqVo09fPznsIUVEYkXCaKbbo1CF880f+G/7kr74QlLQveYTS65cqArYy25Qp0Xoswy948q3YDhtcV+Tmn+NjQcbb1P7khuu3S9detnd82Ifsol+XOnIw/MUKT/oLTyTyNPxbxYUHyJ5woUehYXYd9ONqoiZC1zRVd7St6rVs2aB+/ruvYUPfPt1a+t+3od/vLWi2zJussibwBx6pqbqdvlpjtZ6A4tH+vGkau7bRHesX0ghp29mFnrf2YPbbCzbAi8b5XddrMXdB6ZeQCj9ydR0cLOTYJbIqzwa+Htgnztl14No6CHnzR+5snjm3uzA5G7ZX4QJvmsA3BUjgmIUiehoFaIHgCv0JRBPXq21X2Nfz2+IWjIx9csfgPXrtg6ar2NpMb1pMFGfGmpztOhs/YvjZiTCbY0xFksqg5XhEQyvQbdoR1oWxfg1KeMjNG9Hlml17sWhitXBjdfEXPvztx0S+3H/3u7n1f2FbNWcZKl80GF+k/FHGpXJjByMbNM2o8TvInijJdA5zEOR251Cr8cMj98xuLN122jKsMHECYVcGvBnhD7DVMJL9YQ9JSkfOClORwBLacWC6LASdKHigQHQabi4ZFwD3k14bh5NSx4c+TEhNAJqXJK/qpaldC+SSM14eCi7ySnosjNsGAkFucmVQkG7Py4fThVNkfj1tlIwk9z7/33nvhd2ziJHMeOJW4uoPgEJYwQSKKEU+tQM2kQSWf8xW8kgUAdlg7i23vfve7kc3CfJP9Ln4VjCdBaQAnS+OHqeIk4fhKJxC9m2ImZAAfMgr5AjmO5HjNa6656qqrXnjhBdZyH3r0MUCFXwMYT+LUS37YMZ8DJHRJo0ihgdiCbdiw4c1vuV3EPei0Uq8+ZyLbTjZnIkazCBNv4/CnrxdaBPwALUioVFmrdA4eOfylr34FscfCD0/QCN5AIHl4QhKtwZ+UzCdDQ8NZx73xxhuvueYadRwOulO6IP2lyqQKRXJECCQCm6KfNKW+dgU5TwLpKa3Ka6JiqsyUQAB4dtH4Ketm1q5ZtWbtqr179t9730+5oxKaaWtrh4YJVAQqyEYc7ka8vsY0Tjby8CsAEyicn8BeteJxvfWxE/3f/va33/Oe92DnRDpagdpYST8/75HIZAU973JLPKv/ulcOcx/9l52l0F2SxXAsrnheTrcCCAKPNDm5Q1xj5b6VMBxr1djrRmzk5j80OGyMDf7Zq9b8q6tym+YXmL8zDhmYVsy0XDaMc2yCJmfPuMwekyvuZsEOkTklS/GIKX5CTskaEH+yj8qCPe72UVAsODfmBAR+6SrkigV7w2Lnfdct29Vf+Zcn+v/bjmO7SlZ30V5uD1W0fIACwSV+3DmDrY8r1i1OJeT0FGKzL4r3hQMXFeY/uG/3x67uvHRFh3AaMXyDIyvjViBNtiKaIQG3KxZ3rVTZOahoes6OKmH033/4YjZnlbSCP9afLfZWKoezVh+usjC3a1YMhMpPkJaKQNIEqKszGH4q6oiP+1/5zQ13Xuz4ThGLRz0GevaAnZqBnsWVS5rL6ESmUQbL7Ek5FEVEDR9RA+R6JuwcY3wzibiTHxl9Zuj6XFSEOZwVWpj+Zbq1d76m57c25f/weu1Lj+3/y53HogO21pPbxNXD+cDy/BM+VnJC8/hEoBzssQHYq/iLOrp/cWDgNze2/dvbVmrafL0orwAAQABJREFUgBd3OfiDkPENMmcvJI2aSXF4OIbEaKUasAoPfMjsW4hHfgBN8ge/EZw0E86CzjkMAJaAooBJAEpqY6IvmgmsN7lFiqUJ7nGk52cIyinMC1LgQ/oJguJoMuvnCxYukmmx6EMS1FI/a/7wPlibIsGpNaWkySfEEfz4ONu4cePb7nhLV1cnVSSbXsIvqBHyZVcoKX4c6ASMJJ6Idl5VCjmlEwgRCi/kAhbGExgOEpe3REXiiEqoY+R18fqL1l205prrXstGwJYtW44cOUIhwA8jJqI0GAYPQGJwgNTHfvCKK674jbe+WRSLZEFbul8Y9DgHl5dWgoJcPfmOZlIvT+LSqgkyVSmtFHwu8oJFFlSZ3bHUz9r7SKnMOX5wlc21wZ3VMglNADk8lWhsCSzk+ujYMLdEvupVr7rhtdczyZaVfKyMlVOYpF+ojsLlWrKEzSm8KXTxJPArz6n1ksi3PIVsJsJETqhlfLwmNEUhwhflHDOliSTRVqxY9pEVH9y+c9cPf/jDPXv2JesQ41sAqjCoCAxMFHzK/9QCUTFwiKA6gB/iNFb0hkhjOGzd+ux3vvOdt73tX/GZ0gxO+f58v/iaxcaY3LLLQqLt/unXt9y7x97UVj7m6ZmckQ/HjFwfe+GGnR2slNrxfNMi72uPOlytvz+uPX3gxQ9dtvL3b+xbLlbzWfoAWzuXGRdn67iNHs6c8F9WPOkSR4YiCwGsy/KGL/ykW+Uh/3wuBBZNHbhdByNEvJuN9zuLF0gycUbCKlKhYG1qK25a3vG7Q8t+uOP4Z548ct8LkdYxuMHu6Y3M40F5zIltlAcOEbhGVu/24xPVoHyx4zwx2H/FvL7/8/YVWebOwrUgFcawVB3FPnNHuYwwgahB742L0QywB3hEdbQHnhv57o7+1Su6ykMjbrbNKQ8FOWwPUbqwOcywT96gECpK6BmCJ0DVSvVkJG4rZ9++Kvfv77hkRa+4VLAC2WGv6iXXyrOIzyyNjWtXM0oshnDMDnUuARtsnhw3wkoxZqNBssgqWBf7tuROPpbuNbuqRy5HWXFgJLZvDg5k9HxhYz7atGjFXxyZ/+09o1/dMnD3sQGMJqxMtJoplCnbu1w1A8zYjiCfsK584MTRP7y890/f3sPQ0cpdbTmvZris/0xzJKQhHpolJlq9tAT8qDxETrZxymfJ7jIthYnIN/yTOBeLx6KAyT2OfJLoj3J+QjiNKDRTA8N9aqKkoC60FJJ+mfyFtAqcT4S6RXBR4zBTQ2dDM0uUYvbCElprRogThST/nyL7YZOwMySiVwtY9kQc0nNko9FEoDb4F3E1XQZHp5RU90Kvw+9Y3oQ/ku3w4cPcbv7GN97CdhMNEdqZsIQiJwXWc2eK4RMSVTpxQlp2mp6mqIjKA58nA3E1KhTwFD6vt+umG6+/9tprEe0sAxBQApTookU0h5x8iOXa2972tssvv1S5mCaFn8hAFWfJoCmKQiaA5H9p4KQmXICvAAnq0SqTw2/46v8mBpUcq1PGH/Qk/BRU09dgSYm6llpxvP/omjVrbrrhxrVr1zB6FEqgNSKKJCYIA+4tk3X+qfIFsAmqUJF6fKY/JcxfhrR8pUrnN6Em+ccnBKqQNFWaKPjjGgMxal21atXHP/7xX/7yQSxeMXzhVCHqL1oOhE2kGVVANoh8iIqcxCkTZsgruik1Mi7mzZt33333LVw0/+qrXgVnnsWrMaSlZx1cbGA4gmDZWlz9ysMDf/v40IbefBlWiFiqVoPcEjMcw74N3T/jZHA8gwFZS3V2auXHatGKLvue2ze8eX23ltMqqJd0EAt3mI8lXIIxyAw0EokqbCPpMpgViy5i6ks6PSY0A1+UXmOSm4BARlgWN8ayUyGaAmoDhxTQuRKdgQsHmRiFbOQG3Xn7N69ZeMuG+U89t/OvH8s/fOj5Z70hDI4XW0U2NSk8b1qBN8wS9l6/uH2k9pvL2v7T+9YuzGbGQq3A2n1CUONUI1ukiTLZjOWaVRywoU4hI4rmWMVzvvGzA35BSKid2xD9MVz3OFWjbPtYyNmhkZhqN8Ao9AYtQULQEnFIF1piMP7JtUs/9saL2sVsVBcjO/YxwiCjtWkG5+8MZi2cc5A5OTAKLkEJ4EugKBVR9M+pR9ZUoFL8CMsQYWsDNcQIbRZ8SQ/xIUcPgNaAw2vJlX92zc44S5y3Lcnc8aqu3YPGT7cN/XTbke8fD6uDJUp3cVSEh6dKKZPNzZs3/+6b3bdeMQ8Q5YBOlo0irMFROGa4RK0gne5Ja6RFSaOIJG2YLj+rN9KDtFjYv6ACXgB2sFVADeWIEElkENUR8pSDfo1lfL1oPrW+ZgRxaq6JN0h5EszC8SSpsQ6RjAsm+jLdlzJk5JBbmTFMFNr8/1OEkCAgOe35zLPbP/vZu7rnYZDMkYemSx0KX9CNIh31Sl3qlQi6MZPp22+//aYbX5cmNgdmrn5Rol3gSVZfkVIc7+a0NxoAZsFwZ+ywli1bxkEyLL9mEU7BpmIPScsUfhjw//1vPgUMMgtMJs1Kwk3KXI8LtHgGo0gjsbE3SqNjl2+89F3vvLM+z9nHFXiTAB6HStd/8pP7/uXb31m8eDEYmxDJM65TF8O3XFbkHwFBiBxF93rTrW9gxo8chczoGgVAy4XPGIozzsjAOnasn5n6M9u3sQCAcFGgitxRXYxFWGIPSEPqETipRpoGsfFUuilD4yMf+cjaNSthzcmGlxgHgAeKOjdIYCsd1yoyOTGYjnLKnqVypjnMeziqJavEW/aVr/sfj67v7apGZTMqhHp5UovUq8KGajjPceTwm8nJI7/dyY9wFM9xcAWZr4ll8vMDwR+/dv7vXj+/G+N0jR1F4bARK87Kcr9hHXOaWPK3HB377q6BH+wZefq4N1ZhBwBMcJgg26OXb16af89Vy2+8aF4uQ79z9LG544KmQHLOGLFSC3FkoIWP7By75nO7XlP0jnB8sZVQDb2sXcxw2hmr+kDPFatP7g+/cPOq97xxeSvFzFreROBIaSKi6jSJPYcH9/d7u476x8ZkvPe1mRuW5Ncsbp/X1pqOOD2g40MvyUScwOrLtx8/fMfXd13daR/B2T0gYZiBsiLcs3Hg4EWEusTpS9hPVLX07HY/2P07G5cuKHCAUdc5FSHyFKWRsxrJlKFxOb+OqUpbHoecccsgZAUXQyc4MtiEl7kO13WiQzcIkjsJ5Ex/Jk5/88p+8PEjh9/4xjfeeOMNpKWZ05znLKI4KYDBWwGDORliHl8Cl156qYJBwX/uIVQ18qxH4DlDS1qREjkKGCBJgQFvJEIDO3e98NOf/lTNelsVS1JCGOZz48YB0BVaF2cE3vEbb1u2dDG/ohawbECEkFadwnYhRBgR8+b1fPCDH/jFgw/ec889iUcgsXeBsYANDgGiz0FUwI/kBl3NUITgR7lkokaTyc/i/9133/2xj32ssy1HM5XIV32Rvs5p8y3O72H+5cvVe7btyLaHGK5pLj5nwgpH3//oi9t7i5gjyFTUD0p4uG0GD21XP9X3IOc2us3imKdxIszzSz1O/GzI2b347g9c/Pp13UXTq3IyOmPLPk8QMR1sVvicp2fiK1a2X7Gi8w89bWC4MlKqsr8tc8BY72h3uzszGVm2rkHGyP0zgFJNqFCrKBVnqN965gjHB0silFoLhYyteR6+jxBV3Xb2yaNDf3Xr6nfevLy1UmYv90lqSNg/U07V+6sWdK/si24YZ66sQYhXKBaVZ6/mV0qaBQxMpj+E+ODQELvj+MlhF5ca6gfzpArVgE8zpBGmNbA/WDwG2294w+tZU8FTXjOGOKnMuXhNZZua9ys4gYd0mkAk5VxzUXvDMoGBQL3nvuqp8Ci0kK6gqu8pZud+EH3rW99CMgEqT7VcMbWQ6VJEG5RlNaQmKy6bN13ODTcIP1JIR/CrGonXVz1dgef2NxZNMX3FThR/AMuXLP3K17+Gd4p8vi1iKznZGEKKgyhWRNB3pwENPKtVE5qMHsCTMcJywm+/685U5J9LVHCcTNM7MFdLjquFst6r2Dk+wW3jb75z6MGR2g3FjmeC0sLIqbjjFrJTG9iMhvH1ezSM2CfwjHBxLvfwidqVee9zH7rukoUs9bKEgCMf8eXOGfHENwSGZq3Ng6dCcmYpgcn9MihfQd4K8vMQUW0cYxi3QkvWWzn4rssGNosTHL8vY9jeUkWYM8n2BIfFtWhw2PtfW/sX2eEo2/4tBrtSHjKyppWdF1tbqv3/2/pFf3DLMhzuJRZ5LZY1q9knEQD+hNiR4G5iuelZRr7uE9PZ23klXEAYOEUXE14ca/jJYWpCV9FrMHrmMdPAyyf8ypMABRBgXsThcQvm9bLaDzfh9fzy9FS2qYYoOImTTpwGEgBS/UqrVWQunmnVaeGkpPHzGKH5quFpT5HC5byW7TDTxdNOW0cnWGpV8KvW8VRdMNh//I433f7ud78TrwzgnvaSrmqkcBVBCp5HPDSsGkAR/PwEjSxZsvijH/rwmpWrhgdOpIQtGlLi+oImTCK2SQXyiWog2UA45o2/+tWvHnt8i3jkSqb+4Io854YqcFbNYi0CF9LnYprxXeC4EsbBQ89W//zRPVf15F6o1DpCe8zBcZM4F5t5oBXVuJrVR5F5S9zcw4f7P7TCuP/j11+yKIKsSmZuTMNpmrRZjJSxJk0Mvmde/izmxLIRsynuPwusDCbCARN0pLSvVXC0x9FqHcNvzcV5CnlY+Z04eNICAHDZxGaGye8TByr7R+JOLECbGYg1L7diZ3Jxm6WVdpRGrsvbf/rm1fRbxTvpEKb5p+foF+iW4GgRo4WtLXG/ZOKF0XUxrJYzg6+ECwgDp8h+9jEBDfcmzM+UOISXsdvRLDC8VSADXa6eRPgKIxTmduzskqr2OM87TweAehiAE+B5Is8IAA8vJkVJoGZNPuN0Sk6/VVXUp/CTQmCa5xxHwAwAKBjAA68QAOL5ySefevjhhwvtHSxTAzYZJoE9PZxkJmRsC9cO/HHC84YbrgcTUAV1KDyo6lKRmUamL/lc/irIoYMwF0MbirX29jbu5nn9618/OjoMPljkoo1M4rFgheynoR+VDcgpUPASxygN2E7+4Ac/OHr0GPTBQjNoT/qB2uY+xAUUewY42i6u/KgP20QsucdGjfd/+7nFOWuoPFxwMqzHO1quJHb0jYMim0m/kZgzPOyje3PaQ4cH/8PmhX/1gY2ZYhzLRY9iv4f/fz2oYkzEln+Zw9ON7agmlTonrzW7hB9cOYKPvx+MpjVP40i7W8kivzCE8DmXh9jHhJDD8Wz9tgwoTFaspvinad/dwR0IqBeu3hyfzRrpY2Bv6102toqVP7t1XaErG9QcMzM7F1M1q/QM0tkjEiMSRkuIt2+O+WGaeV47+Aza8DL45BTZT3uZr+/evdtNdmd5xSmjkosNUQHzUulq8KsnidyAh6dergBQcztKIDE5OdWwmDlPVEIdoaLkihI2POe84qSCFEtpdUo8TE1PM5z7CH2nui/FFcLs+MDwd77/g86eXrUlD1RnhjS2wxFpH/7whzdtuizZ/BNv+fQFkg8pCDaIUzuFoyae+7aftkZFNoAqV0ex8ev52ax766233HbbbXit4HNxL594JgZp/NqsQFpKk8lDBtEnksA2wfBY6Uc/+SmOfhGK5FGEcS7IAyUMaYZaI4cosW+T0V7T2/72Z3t3jVQWOG7JdPCrk4v10WDENZvKmGaglqtGd1v7I3v8P7mu93fuvCRrZDkvr2epLuDoucXROBzyQVSJ8biFa7jzFJw4b+J4BzvLkKPwnFl0OdKu1fCUYsdWVrOzPo5+mcNwb43OdSuTeeZpoRatEc9gGD5XtJ88f2IBfncTS/nTfjgpQ6Faiq3hJ4czn1i/8KrL2vFryL0D6IuTsp3/Vww4aC2GMFZGHEJDZIl+ef4BewWCOgycQjfYSXLBCV78YErwIP5Nz+sV8+KpCoQFqMD6Fk5aYIiJQ31h7tL1E9nqaj9HUQGgrnbicHOVCMBwYQKgTMo2R8BRe1oRtVPLONLqIJyjqqcpVok3MtDjKo4Y5hwauz+8sjev0hXA05SjfkqxrZrG55/85CeXL18GoaAIgm2eFMhEWdWlyAy0TKNonrbSOczAelDim0xVwfo/Uzho+sYbXnfnnW9n758W0QRpGke0k7MkDYEhD23kJ/KDEyJggCMPrPw/9dRTTz+7TVZEEr+Z8nlyw6FE5i6gaojvMnFqxkZ2hDdZQ9+2J/ovD7xwWXduILQ46lTBb3vMtfXcedfami000JdzfnVo9M9e0/knb7u06LHG5lf1clXOT3FLAsf18SGPuaSPKoRfeI1zg+cpcLaNVYcAVxYcTKJ/koNWnLazInExBKXi6BQgxZe/WP+3HkCvTITj3YfGXhj2urnODFVAzgm2FpwsFxDpfqX63usWFXGPb2u4QWh5FaK1Os8ot46iIz6CpI0cgOSP9R9Rn14JFxAGTpH9wIUTHgYtLBsWBp8iTDMVI2caVJv4EAa3HDa/bAkpeC6bhhWeSzQoIVQPJHESgR8ICURUColzDZiqKwVmrqubefm0HVSQn4k+lMD9jcxKWccmHTJAYqWIalamoodJvzLj54wAMwFK4CdVBaRFXFGXivN6DpA/CbYZvtIudGFoW0HIk2WjIAyuvebat7/97fiuphyl0NR37qTCabgaUCon2KAcAqsg4JmTFMPDUo4qYZpyJhV7xq+xxmk2PPcnU+8IV/Is0Wp3f+fx0VwxKkWlOOgK28bQc3Jae+RkZnAMm7YoYBTwj41Ef7Qp+HfvuNiNPMfkLmxu1ctlsPsSqze5gUQcyMpKitjBaU7xjBtylh9aIYZpBi5bUUuQ0ZxYC5i2WBzJi/AHgD7EWW8UJDas8fnjNnG8czoYaHG07/holet6xOkgpD4+ZTrdhyd/r0bO85H72yv1tcvaOBfP1Tycx0Q7OZnjHMfo7fo/JL36wzSCLjZCbijArwCekjTZ+5flrlfChYOBcdmfsCDZj9p38ADWtzgZhSmzIwt5Ku+MDSEe/yphiGrYw9Q4tbz5yk2wxpS04ZjiLoLSz1+AGSl+BAjwXwKRNCWFK8mVAp4mn2Gkvvz6uCpOpokTe96kTM1whrW2/lnEvWUy4RdLfulTUGTa3/3eDzD7oDDWqIETaIlLVzYPQkAJRwO9MlNmKhkF73//b8/v60ULJCipX1+AWgBPU1S/pK8XSgTuL1O+kytD6IpQEEZytPO6V1/95ttuHxseko0McScvUNNYhTTQCep4FfwmIwUkkEicxqZ5kP3cPcHsX7CfWIGdoYhpBWV6mMW/CnKNO2RCk6P2HY9uG/wP+6P1ju1bZju2+FbJ8fWoZpXZjpGZa+MQ+hXc7AVmZMsSNH5kCniseb4UfaLX+8Q7rreNcuiXMCmU65EpROb9okew5Z+gFcyKLQUJjUs/B6lAQ6/xTCJ0lgXVgxnNJYKqIiDwkAxKD2gNJpwf6WZWC9zth8shVoN4ItJCPEM1K4VBCAyMJNFDEtqDYEhss0y/FP/Ghi6X1Qdx2at5OC1qckl8s8JnM131XPpUw0T6E3RCxLAM9df8bOhsQiNGFcKmEgVUEJjMZHi2Wgnf8ol6tvrtr1H+cdmvIPaDkBVIhbWUC0+Du3ocqTgcjRPMuC1LP6dkVUJ9yq8RguYIVIWTevKaBs9zBENabOJYRgQbKWLNFmsc8uQqhDTDDCNCOawdJ4cmWM0eGRx677vevXzJkhl+/muXDbypxl599dX4sZALKhMZryQ6ao1aLGFQEJmk5dQ3FowT0LTwOMmJARQLXqfqSfWfzFZcHOVGXIErQnk0rH32vj1FVy65SMunRYT0tWEk47aPMQFlcbc0yvp9MVMd0zIbc6OffN/rurD5jl3TaefDZEotFg0NC3kJJyYaBf4BtP2j1azJNUDgQlYSZhpwLp6IonJkZMzayiV9ohNwkZGcDREF6pWgMACd1pMuiZNeX0FUPQZOoUBssrj1Ts1LZiKqYQrwNYXihEXIebmenh5kf5pIhJ9e6YN6pCvkTMLJpNdJ+ef0Ffs7NHUFAFYalUqV9edCoeU1WAQ/ercyDug/eozralavXn06wTGnLZvrwsXLNTSfzThveMNNl12yAVsZNcuXZbO6YyPgVqG3GUBkBm8cr6UE8qA9NMs5m+nMu1nI5hlyS0vt4SdPfHPvyAJxu5AExAoDfKK+8ROAE6/1/1e5jzbmKjnHwl1+rWRGtX2Dhz71W69Z0ymn5LgaRqzjOcNnyTEvjObrv305xNGKWA4ZrdWeHhgp2hFHKVgCo5Nbajsz6QEv3Fg0ly8qslnEt3N1JKklsC6wzBAuVCvIqdNfLzAYLxRwTpH97PIy71eyf+YAKtHOk0/gg93d3cz5YF6kqETUCHpCaQkzL/almlOhJWGusrJHM887mWJ4lfYOQ+aJJ57Yf+hwttDUrrtZ19AQ7Njpbs6+33rrrZs3X8Ecjzt/muV/CaRD8GpCj5X+nXfeuWThgvLoCPQPKhgCDCUCvUyeacQ5echPF1AayjdoUYRxjvCDax/M/ILy3/38eC7vmmYWUSXSKgmKXKeHxIlGaka7pXNsw+nLGU+VKp+79ZKrVue0YEScjbNVJIfnxNSLeOblJ/vlJIPGNTfBztFawQYV4kZlJpbv9WRAHNm/qa9QsAPbdNEc0B0woZi+a15ev4LTZC4KrhRTVc+XFxJm3NpTZD+TFcW7QVmKtXr6m75YcsLgWPMnW/q56oyZrCJMX/hL6VelDKkWKUTNHMlzhAdAkqlqrI2NlR588EGucWIRqNW6mPIixlj6Xr9+/U033YReg8kIgrDVcn7t8kPkHJLLuPY73vEOkKAO8hFRnYtEV4sB07SLnHQBZMDBCrKlw2eaT87+p1iO1WFsj2O/4LFnhr9/ZHiNaXA9n6qdzZ900j99XVwalwksxzYz4eiDpcz71y9+502d3Birm52WhbdmVhew/cKk35Or3MWhz8ssxBhO4dlaG/GiHKdAGRXYxZzcV5mMDeYEdIHqBbLxwhMLE8wylxa4ClIp02JZI7YIJ5dmJpfzMnyfRsN+GWJj+iafIvvhWRAcDCghvPFZ6TTfC8s79TgyHyo2hwxQHyrZT5yc0xT1Ev5JjeH6BqbIOe8iX0GFcFIR2DRbzoePHWeeSj/WwzyTuCIGx7EQgQxCGi68SbY3X5qBNiosKbFNI+f1dt/xljfhJAOUKmzQxQyB6VkSGciGksRXahUhHTVzijjdknNXyJAgtD71yHELr72oMPjfRmmrq3gqAdf9KNFAy2eDgRrGbJEbGtW/uHEBXvBiPahFckcA+9uc+IIdmOxPI6+S9epJJby0XzkvgLVzgMlfKFaENBa1KnGsMNN2Qx4E4aGymOTIkLJiOZ75kh1bM8XMpHzpwIFowdhpSXfS5y+r11PksfJKlmJN4W4a9PET1Ai+6rGssC+UmgS1nvmywun0jQUzqaggJzgkpOia/ts5+hUBJsZoslMTP/DAA+mWTavVwYg47P6Wt7ylo6PoOmLcLtbwE5TQamkXfn5F/HQfoBJX8/vNmzdzRxRx5D2J/MoQYFCocdGwUYoA6ALuBeCsP3lS7bBh/tlKxGs9oxQRsmV36Z69Qxuy7glbcwO5dFhVAWCE01aHPxyc/s4z7CdGh754y7KlC9pCDUt/y1GGfSKjMGyXY21iX+C87JapI7Z0cAxQZbaPQwP8Q3EWBGP/U3jvKUhmKi+z+eSPM/KybBBZXHeghzVOlnJSQFa2uU0Czosa0LycUwp9WbyoUZYSMG2uj78sUDDjRp5CN3AfPlToY8yDtWTsNx38aZ766tSEj0JUaaoQMsyEidSX8xKOK5lxQTVQTTe5vxHnTiz4AxvSq1UI2au+5pqrL7/8cj4UKoJwZiA5Wq3lwsmv2Ip60t5kDYC93OCOO+7AmzUIpKOVBoAsn77TKYTVAoxkkf3g7NxozGMRMtnXQu+7T+7nqk45LFatsW/DPF0WlGccnCjIOJ0PVvXfWtt+x+bFIefXDLtKCbLHj7kHDgygBAzTNS+MZEvjZRYQ/Ahz34swegxxcMryh9wcP1MUn9wdwN2TKUspQkukIvsZp03Z88sMy0lzlfBSLZ85hl+OmJINo7pQyOYiXzg+WEMYqL3/aaYg5EHAkwGMK9bGlPH48eOcF4c41a+UNj3Xq6v/JRhF41HNT/UkcEu8/lUh8Pw2XsnoRx991MnmEFrwE3XwryFUdDcwq4aQQe5mSezF2nPuLTfdyGFe1rhFEIqFl5iRvxzCBJFzvt9qK2RvvfVmH2Y/sSmGrwNQykV5XFYLrlQET6f8STzZKcPSdtOmTSCWA9JoDJDJXOPNNKqab289Ef7n5wYuyxdGQo9j+hXpV5EsUwMH07Bg5HcomCsMcdZT1cKMZpRtreiP5UaG/o8bVmWdqh5n8euWYYJqQgtOVjNl+4g/03ZNq+XTI1Ph+HVLsbmrUovcIp6U8o5exnkCbq5qLP83CywJwDaY5+M/ggUCLhnSjVHf1zOZJw4ftTQv0IMR1LZEsbRx7ftKmMBAiAOGWMOiQsfNNpdsy2sjUk7y29hRmE6MAYotrkisABsVuJZvxHI9Eu4ceSIgZd2KLZaX3P7KKbIfvgPL5gnroblEEiHVFHcICfgADI6vyKkmOsj+sRL+20UpRfzzpDTyEHklXJgYYHQgmw4dOrJ//35OmiHGVFc2g5buRuejx+lWkQSyrq9j4veGN7yhq6uLr6Ac9S3pzQp5CaczqDZu3HjRRRexiaZG0wQWYtfF8hEniTK9RsrL3TmxDB9yMuNns4B0MHNu8JaNbd+On94xGnhlw2Sv30UPkav9mgTkvW6LQyp88wS2kfG1bvP/Z+89oOQ8rgPdP//dPT0BwCBngADBIEaQFEWJEiXZsrWSLEumZVuWRFlW8lpavX1vn8/b4N3jPWffeT4+u36SbB9bwbYsK4uKfKSoRDGJQcwZDCBAgEgDDCZ1+OP7blXPj56e7p7pwcwQM5hC45/66694q+reW7du3cqdNMLlZnLfaPqRa7bs2NIvhF+4viU3AQL0skj6PVQducaAqwEStkAmxJjGy4U560cH40PHIiwDcoiCeQabmFpiHHrJzQACSCZxDYoXsFTzM/tmUOHZTTKB9rNqz2i/AEXtVuJpVSSfABMEADTGk1dyQPALCSEfUhGoBQNkdZYAtBWszuhw4ZXl/kZ0+3WHoukH+W9VZ93XQrvUjQ94hoeHNm/exFY3yTXjqNMSoVUmizvcd+x3vv0d1Wo55ti7OumAEYUgjspBlQNvJgbalLI3NuPZBAaAzJrr3/XbWPejK8YhP+egMxNzKBr5zkPH8yZm+8RCHKWzpm/TNbpDNU6go5ndhGCwj9vtb7hyTQ7b96izN4gT22R3dnyCAUb+5TOpcowB0XyA6ridr4bMKKlE/c8eGUbQ5mDM1+biQe4cXHIzhAAbWxD+U4RJLBImiKqYj5KjZmDHp8OpaDMs7YxLNgG/sEnJSh3MrnG6Ju1tqkw0HBGIqSND8snhVw88pC2SEqiX/ppatMlq6dMrCAGGN/QGW36F7iIIHUe3sqhvUyWmB32q5wOdjrz6TW96E0QOYpClovcz/1nlwc4/TUdt4lOf+CSCx6GhQa7/4eq/XD6vbgXCIJuyCQz4gLNhHDt86A/e87u7du1UHLJcKj0/4OJw30sHqze/PLy9q1hKsVUf2SJiFuLd1ImJ70jGBk8s01Y980RSXekWnhkNP7qre9faXCUYQ36AqWPhJTXqbJrR2RYINCwE9rkNfnI8Ddg6wbZP012V9oCJ/G47OvHV+19CbUKE09wvbCW5FpPsrJ197WFY/xUEJ6IssbIk229MBzyexZKmLtbiPUJZ30qDZUehUACPaw5A04A6MDR6wV2a5OuY0AM8mCZ96qmnWPozPrUOansBcmOmS+/zDgFu0j14+NC+Ay/Rg/Qpji7TTFvTuuhoxIH8E210dHjnznMgXZpr5GuW6uxEQK7NIewYbLJm7ao/+ZM/Wb9m7dFDh7FwXA3KWLx3XHQC4A3i0bFhfrm89/GPfxyRCcyWkr8I8KCvTMMMjLProVO0g3f76RMjpRT7++qmOlP4Nj61Ko5PTHA9QvDD6rFDxDBAh/2Tl6/z7dDi2ga5k6+KiFuszi45DQF4Ia6z7fIvzLtHk4hdH4/7TYQ/6sydrAyds8n9p+cqj+45GlvlMOa6AXVLXrNs6KZmwUthpyAA2YcDg/sW4b8EY9AipneyBe2pqIvRN4H2M5PRNAbpaPTN9G4/gIiAIzJPHVNvcNqef+P3vl+/LgR07bNajLBdMG3iuiY0/PWIp9J0KH76tFUDuKkWB+onGkJezNG84Q1v0MyyHjlaG4DkWZ6tslqU4XpSgFY8x125csUnPvlvb7jhBuwdsdivlMpDgyeHTw5h9mD71m2/9fZ3fPyjH9uyeaMQzYlzhMk418Aph8aNT59YXfBPBqzhXUzMq7sEJuCE+jrIPr6jzita5lgS+kG6zPReOHHkt3f179yKxf7QszDfT6/LduEM1rX1ZS0uPzI0M2dbly4vokcLGIEPS8xO22jZaAmarND+7NbnBku5FCsKCdfltOyvTvM/2+IzTNHjgzDV+DDGbJr6iGRqXJM6aTn+sviAM4E3B31v3LjxsSefop0Z1s7o+uTGa/LAU3t0BL1kPHz48Ne/9e33/t718P+sZnCCDNQFZZPzWQp5ZSFQCcMnnnoSGTWdrhTShfzrrdymFaOLkUsLfjdNFv1bt27dsXO7UqqtoSG6W2aU2hTQ/qb5LN5ACKDgdwBF89kGO/+CXRdddOHQ0Ig22YuwBMdpflT/wC0idVT7LDyBPE+c1hKYUxA9+cKJR45Xthbzo4GVd6tRggIADEBLPQ8qQ6Ni9KIVxpQVv9of/PDlayFKKPjbvhNgt9/IS7XhHRcv3uysX+QkvuWlxq61y61HT8D2ITzpLAcV2zX9EyPV803z9uPxf7rxub/5wx1VjlNxkkapqy0trjoFKcyXEKVxHiw10cqAmQKQM+mdTkt/xeM38ozcsy5rOjWlmedgrjZVFCApFE8ckuAHo+m0EJIHHnjgBz+4CR1/EJnGg22yWvr0CkLg4MGDx48fR2Cr+w6cjqPLWlWJXqavOY9OBA6CvvrVr4ZicWw5GwyabunB034ItSpiEYSjCQeHhEOY73BMK476ertZ4m/etAHzf/y4AUgZzkdAHunNFqBIF/AEgMyauQbCE88fKmNk1wkLRjGysEWY2hxoao330E43Y1EG4tnt+GHORsn/3NUbLl3jC8fgdbPoD+yArQO5bIbN0yWnIQB5AZHGRv+K7u5EMCQHn2YAmygtrDH946l5ZbHnH54e+Z9fuy8qhdhj1lmdtRNtBpCsdYui8WCtLAdgKKZIF+8ef9ZSPDX8TvtxjM9NmzZ1F/KikswShAvm0U2SZUk7R0JBB4oJENgpP8Sjr6/vF3fe9ZWvf2NwpIQ5KtP1Q26xmJhTbbwSyuygMHQEiCKRmBsyPWSeqCOCxNRuYgYL4I1qU0vgwxO/gnPtqV+z8HlojK6MLhFgK50M44Xn9qLgxWFiy1InuFRtgXyr+tBJURIhlA6CysrlK87beW4WmSyyVNAw/PUh2afF7VG3tKHPJwdca7OD864oAShHoDAEyulRgUmAbCZm4NLQmx1AYQwuLempF2Np1zRDMwgj85Z9BaOPDXvfdIaSquckaCJEjtwM29yhDoilPkz0uV56MojW+MnLg+afXJD0Lu+ysTAL/rDSouGx8IeV4TBD81zOwlDO4TH93eiytY7TY4+aflrNmb4YvdZOg4TBoF0rCPlG5aSb42qESjh8QdH/syfS/+0bjw8eH8COBlia89bqwiSUNsTivzqiXklSdC/UDQoarYJQBdUKikXBNza4vpmfoGXBu8rVlz45pP7rGedHRR+m07IZw7BbHF2pXU3RoqLw4yFWAFIjx6mLCDPLICzOYHIOA3MMCnEp1K1ZAT19WuS0IINPYWpd/b6+3g0bNkC5GYVq8Sd0vdOWaXExyIsjy48++ug//MM/PPHEk2SCnJhnBkQ9sHhC3kXRCaaBspgkElRTv6B08uHZflZ0WsN5i0+1G8oiRKN+wrOvmach8py+Amx+aOxhy4+lPGVBwqmJpjpUsk3pnE6nU7j18cILL0S7U2yVLbmpIABsm7qp0s3Cd2ucEsPQywQz0sODY7e9/OK2ihiIOYEWuu93YTMWm3zxqZMajQVj0Yc9IZOr6JOcZRwrc3lf5dJd2xujLb1PhECMZl9inIyD/hXeR3cu3zt0vNgdwowxg3AMCR1doT0A3JLnrhjlBPFMOMYybdAcucTr+9wLw6/63LM3P3CgFBsu5iAjbgl00zBxw4CrOStWzoTFMG0uEeYyAZE+wGOq9ZcIujETHLtmZNnw/ZA6hZezyugqNbxObNZieKOBGtx4gAkPemQxNGwabZjQThQeGYcYFwOncyKFS/0EINO9zetUaawI9S1wqA329vbCQ3z5y1/+3Of/ce/efWNjcjscy00C8WhAI23GhzVUETGAmfjJUBREUz8TmBvU51QxC9BH/XFIdGkLjuZrD4F45qFBFKRLyYrDJs++ffu0ZhnQJhzazzOL2aRWqqo6DuZoZJEHS9caZzXJYSloHiEAthcbsIwv+VlJGNiG/9zR0tFypT/vV63YC8TiUNWWM35YH2zrUix/mm4+Z8f7T8av29a9Y32hbfyljwL1xDL6kkLZDK/ZYXdX0i4jiN0a7s0mWjYlW4EsTHpyUc7v6j/q9iyz/BPOscuL/dW0/11fPfyxf3ns7v0DVbuUOqOoAIQONF2ML5lhakUpZhYxJwDWlUsEuL8JU4CIfiyWW2K+U862oZxjyQmOyUU3DZwc7cwMAaRtoErTGvgsyL8mSc0gcWY2cea1mkD7yQYCjEJyX3cPFkn1VmUb2LUqFroO/YCQkAOa/3iQ/3Pq73Of+9y3vvWtxx57Qo4SOA4rCD7psQWsNSEkT0Lw66fuCV2Qjtmq0DM5PIMhTcBp4kogfp64+a+8LpaSjx49igKa3qHPuoB+wbWvFT27af0GDoYQEZzxirSifQ2XvmoIKBVbRfvVuyM7feYjB0eNfDF2YmT13Ua+EmGCuMIxdK+d3ji3/WJu1mTfn6uagiD+jfNWFWQJWXOM53Hv0t9TEHCSEAVJRMmWkb9ic//WNfmjFaeHxc6401EFNSh3KuVEn2dGaXiyKwn6YjcoJ2kYlMtH+oMTW9elX3u+/PrP7PnjL+658/HRsRG27lwPgbZbqmK31kGFE+xatewyG6tx5GOPiYsBIHOIu+VHr2F9SFiUReKmiYtAcMCbNtfHl/2Cs2MYT6D9YnXSMIrdBbS3BgYGoAdAYaKlg2kNDsgGYgNNtjmRAqmDGyC3QnfPU3ue/eI/f+nTn/70rbf+hLMAQRijBKB3nRl6EeZFsA5PZ3BgSJ8kUyvRrFQ6CbFk9rrk6QgC2RDHo5EMtP/QoUP46SwAS0+Rof7ahvYTGa6Oo33nn38+3SqGRZW0oKPKLEWeNwgIEyfyTNW1vHCUwDDu2ndCWPOxUQ+C4lmRGedSq2LK8q9Vxbg0jtRsD0XVILXsroJ9ydo8dgjVWJJHq4RneXiaBH7qsOQeNYyVy4p/dNXmF8ZMDlV2Chb2WZK8dTI4nkTHx8yxVV7fYMGPPLsyZF7RHe1aYXxjb3ztP734pr+7/29ue+7+A5VwxPGx1GxUvWAUxGoGftWwq2ITgP0BeDgR8fBjR4C1PxoondbnTI6f4bo2ldRx9DMbvZpstUm1aD417unCxDPBL7/88l/84hfl8lg+38UavVNwAEfUv4GpTph1A+SkqNxYpfqjn/z01ltvRbfgHOU4X7BixbJxhQAxuoBqtEZWJCchWQl2Gd+NXlgdQLV1hWkLDiqrmiKL/uzTfLaoVrra4If2I/AHwvW0X0smWlWJyFLzJN2yZQst4xeG7WwBtcpnKXx+ICDGS6ABwtehoc82b3J4MLn/wNA6Kz+Sd32Mw1VHsWdmOl5aDVj6K967SdXYOIA1Z31QcJ3BSrSrN9q5dhlS4yZRl4LqIGCa+aqNDmSSY1u+kPz2hX3/+10HR8sIT06hBaIzp3SiVjhhtBwVvK7I84edpDt1DlVHV0W5EczQdpkvhZy59Tb3hAUvd6gafvLmvYa7/zfWLH/t9v43bC/uWu0X+3xTuHQ5f2kmyPzhIwTXwwiK37RCTLDW1XmBejMYZvUXYLbgaoTMjMcjGmlxNetmLSfBeIKF/7eR9tMiVv/Llve+7nWvu/2uO8HyM2gjtAR1P6DJch/HQgGYCnVJUlcdnyQC8gA+HTsxeOSuu26//XbOOq9du3br1q2bN2/u7+/PF+RGGYYkSxM9E8ghq0nm15+y8DPfQ81xMEbUHAdMeFJtPDSXT/PTBArS5cLYQftZu+sQzZToahChVX34hMAfdg0n6GTJndkQgPLXzhFwQyCHCszk4NHj+6vGa7qtfQ4EHyN8oxzKD1KzICqBLdEeaJEdZK767C3m9h0vv/Mib3kRg4BgjDO7/a907QJTzPAgdu/KYX4/3LQi/ey1537qpjs3eiupWjbL2sw43QKvYBtjpR43X0q8KpyE6Y9yYWauqxyVPGz8mCzpzcGhkm13vXrjOfHwiV+ODt9y/4jx86iwzL5+S8+1O4sX9Xf1Leta3dcD18GRXtOSUwAczUbVD3EPtD+rTAYzjSiy1zPZA/qU+tdhUVX5lkiVyOg6ZC3i7dTGWBa6eD2NtF8ILqPUtK699tqHHn0Elb1cTi517QgCpIKckErnli0oWU3CaHLkBChrog4TYOXz2I6HV3jxxRefe+45qCB645s2b8DK0KYNG7ETwGEBdhD0EJTeGqdbVKne31EN5y0yNWwoixAgkzUn8zREm4tXXRY5Uwcc+haQcE72c28vPYXLekrzIq3qADNXGStt2H5Ob283ceAPNXuX5d8q4TyH08Z5LnF2i5s9eLKZW5vprPEAyuDIiOF2JXbUNWiyEiz1mX1VO6ikroeJn1D0AZo5RoXtwitEMeMmSq86ZyW3NyC6Xlr4N4PWqTAviSPHrnKDrxX7sZvYY++5qvfLj6w7NFwz26w7mqf2tBq3aZyPctGYPZZaeU5hI79x2KyplHKuZ4QB10PGZtqTo5dKL48ejws9m0rMbDfiVGHF/Paz8T/f/7LppuuWFX97vbNlXe/5m/q2rcqt7nJ6fY6cqktqta7/OAeQVUZ7TrVncflY/WvHqJd7OMadtPrU23joIvo7gfZjY0QdNUZn2ywU8u9857s4nud5OREOqYWpY4vuPc0HLnhajQlovF5BakDVRRZYykG+cfKDh5ghmduO73pQeMY9fMCe51588unn8HC/AItLtgbWr1+/Zs2aFStWcDk66YmGy/LHr+sDASMQ4gpvoUuRStIAtbwWllB7yIH6o7g0905DiRriwWlPw6sOb1UXiQxhHge4TtsqcpvwWtGJ4snUjsyho8eqcYpGBr1AQr3fjwcwtimFtcJoeXTbti3EhKqwGyN/ZaLMLRWgSpSoYYVf9zUh9Q6ZivCdMacVgHX9l2n46xYBE2Izfl4RVzdcpfzx11AZ2BGtO+Xqmbbm1Uzs2IHQW2Wnmk8xFezsOYikd2zQQMlPmtZVygVpRO9x7SDL/jpR6IT82FoWKlbO5bsDw63uWOfn5DJ58psQbemlEQLsZbKkcSCtLkdqUfnP2ck/vn3Fzi8cuagrGqwaPTkzCkdCt98InC4n4sAF85G+FXwxjmnxWOmYyG+iHEQpJxv2FnwavcZtqWqnhsMaosyP4zI6txqXXKvEQisKmQrr85aVL5AnU/Xze+PK0weN6Pn+nHn5yuJrN/detLG4dpm3ZTW8QpHLbIgvpgjZyxM7AXGPgREnA6PNsi/IhQ3sHpGPniygDZBohM0H0R7kKwmV2lgjDObhHdSu8ZguC4hBFkSM1cIhV+baSSgF9EJ2ObXaP8pMohwpjtURy2BBbiIdAXTN6YUoT4w7EqqO0xhDwhXM5TMZ4JdX7smWjkBgJnY+KAZHbSOii8INJrbIhlkIOpUGpFYo934yzy2MqlVLhl9gtkp9TmuXZsKs1VSZOkFAqRLi97e97W3f//7316xdJ9CxZBcf4LLIo6KArB7Q0rjTcDQ+4yrIGUdmlIIbGhpCLs2+ADgdrXJYgW2bN8EKrFu3DnkAFEcU1Bis6qgZ7IJOToZUr0bMMpw+Tvgl83kh/KcBklNJAYIeSqeCZuQjnyydGm0GhznxZIHT9JAEgQ0iGeJLcpVtfebTzKfTaLoI3cWa8Osxo8chwxJPRvjDMO5YTVXhzcm1akULJ8fUITMAadOsaI5uJl91noxn5ua4WoxgOj1T2pfoypY8yII/LiglCJK9wxVy0qnap51QsZg7+iBPESzCqu7cCr9LdkxP4b0JcZde6iGQzQ4Nbc+1WM/8/eudT/30+ctWLts/eiLv97nJ6KhvxBWxjqqj6VRZ2voMp+Mnk2zC49fznL8bvZGuQtF2VpyIjZ8NlX70qwHjniP5NN263LhkZfG6rd2XbcxvWpXr6+nyzJwX2YFjdHMw0DIw4yGaoDJNTMy12VbZTiGcbOQK9eeooBxlwCruwhwSGkKglADqDMllzZik6tQLqk1sDtgGZyXrXIZNNc+guwkaTkpwosBIRSYcyCuYQawkDCkLnSE/DSiLRBIFA80cuhTOSscXvk6Z1IBZcOBCJIkZ+hiG5KYQbDfl6iozA+8E2q/5mhoNlt0p95prrjlw4MATTzyBil4k4JCbJAQ6QQAamvGgbKgo+EuG5rgT/kZp9oHa4DmIDJlZvnw5r9CqEydOPPbwQ0wPLAewL7BlyxaeMARdXXC1cq0c1SMnciBbkuPRr9IHypEhflxDNc7w16zCNOL0q0omtB9gziArOgL9DGBOWvJBOVRJW2aQ00ySZAOPamjeji7Wg5bXffsP7N27d3BwkLOLnQKqVfwM8jOp7mmkkTGqRikVw+GngTR29erVW7duRUfWFaxbk3LpCE1LU9fHw0ZA7QXZlCrlh0+UesSYoHSfTqILapo8C0TTz2F6uebBKHrz+u61hV5BX5LlAptKWYvmywMKEikpYHLYZudYpW1C/j9y7dpnD574qz0Du7vzL49VulbknJMnnd58MqYoxWkjqGzFQHZwf6xeCaHH0e0YCYNqWHUNa4dl5wp5zKmEdhKUo5v2V7/yQpWTf9vyznXrCm/aUdy1vrBrZY9XzIv0NET0Y4+62CdIvDgNDN9wYAZk58JjEZt6EEd+p0mT5qtTmlABughM4nPXJgIMpg1TRmqDGQBYXFQkWu19W9hFVYtXiDOQFjuLwDlwQ9kQ1ct6hAOK8hPuxEVOsWEgC83ZgKOYDA4hSXZaGq46VlWmuIUstteze/KY95arhbE/yOCxuXHArJpY0Ebd47Tv+ppA+zUypWBIuyt3scd5z37n2982MjICB8A2PJSVnT6e4CCcRrin31UaAWXYh2yznClF9wflUhBFs9Z3+3pZ/EHXn3nmmYcffhgajxgADmDbtm3gRL0JrVGaKDbBSikcRylkhTv9Cp8JOQgPOKOmaAjoJ7QfCE+/OToVsIcVw2YDCSVkFliRaVWBHsQxPoktgihVcwYto4WBcejw0R//+McMCYYK0eAXA2XMdFpZ60haYDopQb1C0KSPTQI0lJp86DBI56MaLQ9S03YCn3zySY7hoBL7lre8Ra4HtGUWty00EaRvhlbiQf2Hq5WnhoIexXB3VCM1jxLXSUrl+NJVft6D5eIauSWh/xRQ1H3Hkz5iutCHEVvzIHvf+g/v2XDiy8EX91WuWma9POy4Xrc1VuGKBZ1jfcIpymj9WYocZ/JkDCHJh4HDci3aG6BGK60YCRs31SguOP6m1ICmIHw+nkZfOTDyheeGjch+9YbgrVvXXHJ+75Wru1Z3+cWqlfqwDQaWWwqWC/pA+SO0hCR5RuTIRoG6zKl1lc6cLxo4PDWo8YBMPv/z5xEfaqDxBfDprzC62kMcPNoRrZzITdbsxHFeHdPAbDhWoe0Yxrf6wE54oVXI7KH06gLU5JDnhBEGNPkZJbQzyA1o0k1jJdstGFaejTfHCDYWkot7czt6crt3Lrt6pbth7XKTC0DCvEja7KrU7/TcBNoPMqU9tF8W4uBT2aUy+vp6/uA9v/u1r32NG19yXUWQbAap0yv6VGoAxAvZ4rSHp66JhnL9V0IqYgIA282OX3DzxW5icl7gwKHD99xzDxh/69atIEQ2LDg0CJkAZ9aYbtWvRNYIlDzPNqdBKoNMQZsnRv3o0E7hwLBG6JLjKhrlFDGWyaAy7jSzDuIzPBgqmvZrppBXHCjz2ede+MIXvsDYoGJdPb1UhiMMfq4zk3PQ1aa16ZS3ofSm+cwskFaTYX2enJIhq+Gx0he/+MXXvva17373uyiPqdp6F0vmAWbbWXnwb7gaDlSM1T120ILXaVVPxJGoqbP7y7U0m5Y7/JVd4Xlj/VpV64wPF7ymkA/jU41b1jDCcI8Ywap83//4w/NK//jg1w7mr+qtHqrmHJYr2NlTnV6P/U6zlXQUQwiqQc6V2M4ndg45QBqXDbmW0UmdHiMXmtGoKToF1ACsymEAs8A11O7zg+mfHzlq3H20e7n9wQ3L3nbB8l2bC6uXF3vk3js5RJJzHLRIQOIxZh/sOb97+jRB0ZAcsAATHai76d/9bIDVLSHjnxRygz7bch5Kh2ceXhNIMvSIT5BlbvEQTRwRGhj2EQlMWDuYmAxiGYrHNpwudQCelXy3aS+zxL4jOwscr8t3dwdpUDVHGQDo0JZC92eHwu/uD4z7j/l9+f/nsrE/+jebkb/ExlHTWAW0JxBv3YBOno3JdWtBr+B3OAAawck8iOgHPvCBL33pS88///zKNWv1EhzOBQ2ATspqGVdjc4rWpROPPtBOp8nCmQzgep4k0al4JQ5smuz9K76KGwTuv/9+tAIvuOCCV73qVeyrFfIyHHUqnSH++vx14MJ6jg/XDmpNk0/FVjYYuIuPXj4VONFHfCA/MUy6hrHB4QvCmfiyDTWPTtc260oqQ9c/9viTKKUiikBVibpxhpJRQTjsdkdVa8W8MPU7yme2IuthTxtx9XkilkMHljau37T5rnvuZT6+5z3v0VKQ+miZX/QxlVaMsAiGeWKMzVuUxexA7UJm0ab0gMOSVHAbWHF1j48wQXFLE+o2ZSZnYQTdj+Arxm2tTxUUug1rNI5We/5nP3hN8cv3f/754PJl1RPxctuQGzJ1p+v4vOLpFHRZ2iwhI5xcnCSumknFYWc+9bicCRbAiEpW6ATsCqHfxh0/3AyEPMdmOW9FVnfRW52mxdQ8UQ4+u+fYpx/Zu7LffO+OHb9/bv+2rb39zLm47ESIp6kzFgPL9gJZ92uQ1gMWmNNHl/R3KRF7DWw6AoCLDe5I0v1SG/O6j9j1IA6zjEOTkG2R7gtIUw9zWcojnAApFarEH6eah4APEASLqCCMhP8YNKsQKjstwEqQnEm/3rO2umZ3d260Uv3UXft/dmTkn35/4zJ7VeyO+UmXCLRPwzXifQYo4nTWghrJUiFwCuDoLhY++MEP3njjjfc/+BAbvagNEU2UEGfDUSggoCyemYeM9Sul4yeOXurhh8xTOriPSurqEZNoYj/A9XqX5wgEP95+191333sfewG7L3nVzp070RMkrSwHOVg4j4fpKXRWnIYMWekBN7M8VSYCWXKBZgCN6edGTB0ZyLO8pgLkJttgyqM/zaxW00yVQYDuow48cViH/OpXv7pi1Wo6nUCy0p9oYae6fuTftCaKwjX90jxwthjau4EAAEAASURBVEChR7501kTH7KPjaDtqsDBh9z3w4LYdO199xe6JsU69iUSAPOB3YQE44FdiG1J0tpq6DMiTv/IJpSMRujnxqmI3CwNMAkA8JsdcCqmHQAZSuow+1a88jcQuYvLUtFb4xl//0RUbv/vAf7vzyO71+WMlWXfJZIOWqh2u+tw69ZMJSaQ45Xj1Y04JYB84xYxqmV171PQ4CAKV92LGCbqkKgnyh9ROqhwirCTxiOsFhhPmgvOCcnF518kg99f3HfrrO4+9YVfPBy/oev2u4uZlYAIrBJ0ooVSnlXxl49NeDR/dQSeQfYyDSyom4hJxrN7lqfz6of2YxNSvGZB55ajAGIwQTmUlzIT0uPRCao4pISnqN8gCOB5BNgqP2tUyU1RYbJMLCUkAf1ZxzMFKwc+N/Voh/f5jo59ef/TPf6OHQ1+pHSqLDFLCzNwE2k/VgQI4tC4vEQzp9kIy3/ve31+7YeNNN92UL3TxCrGtizlzL2s1ysWRBdDXENRPKoPTE4YncYhQDUSZH61l4T8M4QAIxe+5otynW0E0eBTIwLFjx779nRsRAyADuOKKK9auWUt7wkhyqO/Fmdd+7lMqUMxOZRVw6FIGlrBBGlxTtkCDNItGR7DuzF7xNESo/zTrfjpa71MwGKjJHXfcgWZN0fO0DINANR6EN8XUSUelM+maxmd2duRYO3UUv1Vkfe0vbWwQq9NANfJR9xGBFgKPH/7wh+eee25/n5hbmOxkllIjLPKpmT1aCTlxLte6jDuARg+Ov7X8y6rfEbG/rBz7cl2w/gGnjvRypmWipQ+C0zTuAs7aCWkAtTPeUtcKqmOODzT//O3n79q8/j3feHFjXvha8J5OqCF4+lOMopn2LE2j9ARsIDp/qeNbZp4VrYngvxIpw39yWYPec+BawIrHcdK4K+AmwHAsDvqsnrF8//Ew6LesC5Y5vjn64MDwbd8dWNGdfupVa37/NZu2r8x3Jmo780YHcM5z85Fa1kIM9bwQaQlO/yFIOQL4yxMDjfIRB+skc1/IKLPLSgQYEpfVg+bAhLgxifoTDukJWWULDl4QOQu7PIYfwW5hXJktBO5ZYukvGoHca+/Yph/4j7hdr9sY/be7D7z/8m0bVhkOmpqnt7sygfbr+jHgqNa4E36EISpjl6DUfNPrX7thzUrIPxe/9vUjCqoZ2CeV+JEYyaCumeAlRDCXgot+EoLTfmLq1/oS9dcsiU6eveqv7DWwFUEg9gZ4KvCJP5tgEqZM6OCBTizvX8M+we133nPv/Q/t3r37yiuvXL16JZUgvl4jMs2IT3VUbrJiFM9sON1GnpmHQpFJ6CarQgUI2dfmZarjWMBfhhDioDiG9FLX5pSqeRYSShJdLl1KYhQhRQqSE2sgkxPpKum66c7V4BVYmQZ6/lIf8ASHUSXbCQNpcm6zEqI6CNGOHOVQ/LJx9Njxhx5+lMoAUiqmS6HOCWeaGSQdlipTsZmrnfZt9ql5WKcd0zwXtIXVuqF+OuqYnPUVlTHZmKPV7G4gAEDp9c1veB3fAU796OLVIyYLO26SNQIrdV485sd0l5zSGnd1hJ9+Hw9t/Btx/VbCVfRGkb3JYpgahS7hvmrK0I2xl97rIKB7hIBx8EqnmoL0bcvz2XpH2dvy8m+7yNu7Jv2j7718/9HDa03Pd5cPxxhbDOC3PLeAbh2G0SAwomjHpAP2Bjp2/PGhLoz62myV4/eg4oTj40TDz1M7pgQfMMqMR7pZlGFrxBpjtnK3j5oCKAGK43R7xG60K9weOoCWUWb8hEEX2m2ERMZQ3LPVGu3pN47GXX9+d+l/3f/ohy8rfOI1K9evWcX8pGKov7k2jXQZeaAt9OSTmHsNxieqEXO/AHqFZDg7bryhQIcGiqxrei4DER6ZVjIx1KzLQKfnhKyYtAN7Ko96cq6xFkyJElKLhiKshPMG2Mcrw1uSlnUUHaiGhNygKVHE8qbsLGiHUhsINh9jqiHJm9UxKjDq3LVv8L19/SaXM5we8VctHC+pzV8gAlyoJUgW+fnHPvaxX/u1Xxs6cZwLXfiEI5zkOd+DMrEuwY8HRxK+8soIzUBMIK5NcbP7CRRJ6YipwZJ33303e8O33HLL4MkhKgYhAXsSgfqoxTDQn/OKZXCY3WZ2mhu9A1hm0BEk0X3aaYmnG398AqnOYkQZ6J9q7ZPTzXlBpdfwp+8Yujxx8ILo4ihhQEZdap76/gUFCXIBC3fOGAEhkCmilLE4Wub6ymaAQG26GGRBQXieKis4RxA+CJJFPh7fszm+8b0PXPjXrznv2fKyx0fdDY7lhk7R8MLRI34aiYUermZg1RhXAphDE8Nry2EEUcDWh6+YmFA9jDmwizzXrfBy5UHT3A8/aUe7VgfF3uTTT4xu+JsX/tdPXzw0WA4T7mZ3hiOoPyaDo1TUG32uaaFaoh8o9wgn8BOcpF9y7SFQiUPWak6KpjOst7Pv5QFlfvl0Z95004NfdP0gnxrXvPnNb/7EJz5x7jnbhwdPIG5lDx4swzpSJIFYD1GLD80E4OcTVJaBjsOPy1pLSOafO4+WjpI/HACUHkHx3/7t37Jk1NJZTcmoFUzC/GCzya2uh8ncwSHLGahr2p+FTN8DuCbUdl56UKo3Pmx06bxx9HT61V6sMZlfzMqMDQI49aNLYCUU/9SM4+gjGn/8OgUICRBunkyS9X7Ok7WcWqjMx/TttKYLJb4sqKgrgJW/CsXmc253zv+jX9/25CfP+cQF5r0n0yfZrHFje/ma0AgqVnXUCziLbzq5HKr6llm2yxUzqnKhrwgxxXE5sJ/aXdacH7M3uVbIyYHYOeNXClDw87f7uYty7r+/7ciuz9zzvUdfiIJKjzU2JkYC2TcbDquqsbKjrQ0OcMIg8pfGz1SjFd0c0Q2RvRgXNcEDA6VImKeOz2c1lDNd2g8G0etj0uPRItaNG9ffcMP7P/zhD2/dtBEZAIZ3IPbaDIBGQGAlBjeOEanX1oKJZKBLh+unDmmo1uy+UhCrQyqgC4VNoZIE/pO4fx44PsiJTGrIV+qvazW7FWjIbXIR8wAEXQeKltIZTIwm5WZQdCPtb2jeHL9K/RUbwFDijKKc7zj7HF1HL/BkMtJ6Ri9+LXvjVYNoMlSE5CdGNYhY96NIPDlC+xBWlKwvR2Jov++hLsNxZ8VWtE+19HU6EGAw04No3wkH4JTLYfW8vr7/+12vuv2jaz+8pfLY4bFnTwz22YUVkbO8kvZWiR1VsemfRtzKk7ew62+zK6wnJr0MtxDP/Q1LjDpOsmM8uBgbOY77RdVqMlpxShf2etvj/B/+y6FPfeOZI0diLBQH2KNLu1wODaqLg9kaZijJcTgaCxe65NpCwPFcjPpgrlkUCqykHFkVdks6nr6NZXRA+0mq1/FgFtYZkhNbTHG8Y8c5nAC84YYbdm7fNjY8dPzokQz1MBb1cCQuNCYjM0RgoEsOIu+abh10/Bk84UwpmoJ0/RGNMmoJwSowtwd99rOfRV7KJhQcAPDMKjmDgpaSzDME6KyzsL/0/NINz/xTwaE2y1gvVKD9KDHNUFqPMTJruRyvQYBHb8/55J3nETWfxdF3Wa+J3B71ZW0rNcgXTEzmGY5bvnrr8r/9g9fe8/HLP3n+hoeOlx6tVEcTs9LjFGyzYmOfJ3J9u4pKGJoYcukHTs50YIExpZfn2FFYQBXzuUreZR8fozZG6NtJ/2jsneyuXrwi+NyeaOPfP/vTp0dQSvMxexMPI+qX826xFcYowTvoNGobEXNc0wWfvehmqqOD0Cf4/FOKB6fRsmlN3Ww9IZyp0qHjidPlMmpzvnv++bs+9KEPIgO4+uqrWWGzzuY2P0gsXAIrM4iuTquT1KOt06j8dJOKyrdSQZAtifHFPfUZKZWxVoTuCRoAP/nJz5h4coPGdHNdkPGAvAAf7KCUxZi9WT9Ovz31XTn9VLMVU+ovbKfkxw6O7tPZynxB5AMEoL30At3HFKPOvDLCaxz5ZP61blCjnVkNMVguW8IzaGzKKi21PRu6ktQWbDPJZgYlL8IkMhXVYM4mFLAEncZexKo4sAw/9M1SbObDq87p+st3b3/iT3f/593rhjzjmf3R42FhddLXZ/m9JysI/9GgM8KEg/aoL0csEpnWc3+MCb2DfBoXqmW3VMUgAKwKeoFhcqAQVJeV1g4YXee6Yxd61m998YHP3/I0AoLELchFeSnW6E10CJnBKJ5wUmvJtYcA8h2wNVcLIFsxORgSl/M2lgPaJ5r6q1JEnCoaOAUUA6LBEZdlNE/GazZ2eQ2qVcf1t23bgnv9G6976qmnHnrooZdeemloaJDk3AKAmLBaxVTEhK3iGRCeqSrb5Dub/fAi4EdqAh9AtXWLuKQAykEdOB3+//3oVm6z/Z3f+Z0m6RdjEDgHgOgO7bR9GaqqJVT4q9NMZhKf8a7Koss00sR4g/bMJLcFm0Y3P2s4HoYxBq319kcGHN0+ea35wLbsvKZBiMyfTeGO2w8GCjHabniYcBV1LZgMJLZyWHCJ/ncMzIYEdFMWkpojkbHMo6uw7u76iTGWM9BTjnZu8v7rpi3/12vW/uDFke8+NHjjkcESdzLl40u5gZkTu5ji5fwT1/px1R/2Y8w0h4rYXLowHkk9Fwmquoq1wokFbvNO3OVBld3fATftH/OKhhVfsnbFx27e/1zJ/LdvPbefmx+xGgenYLNZgRY79B9MNJe1XPh5y/kL1GtQ44kjTuys6vVQucUCgFKamHnzpkX7yT6j2XqdwStOF6vZAugrw1c0iC2T1dhrrn41h+k5W//0009jfpwDgRxD6u4WY6skBFvhgYSQA88sq5m3o21KMCOrIgrVZVE0kgkKRTJBIB7CUa+FWeHmgve9732IMdrmd7ofKbQhC6rUEDIPr5r2z6DorO/moZITihiHGxXQ9gS5xwG2ckKcs+OFSQcLrocxAxhlW3W1j4xbAU4dhySvE2mzmnfTnfgN4IxMjgeCdSqyfFNjFn0t7Lk1RFt6nQ4EMtSnEaDqKTbrTSdeJuRQ9vQjRKZVs7dslrvQ8ceYMozWKuPdK+13XN73X4+sv/Xpk/c8O/gv+w5xrK9ge8tyXo/t+2wMw5tF8SBq9HPpLHOZGURy1xzb/QilxWa01DrMc264GIdlN0IXxzoRnrh8S+9f3nMkOfr8Jz7w1nV5J4lOopAQB1xolJvFA9Vz2dZXMm/PdcuypZNiFjipxhtW96chNn+hnqfFNE0XBWTkCoJRDwbCsxD8jvoIYQfdsPG0ce0afm947TUoISMDePqZZ48cOXLi+AB2xsZVAhn2HFOukX9wGRNAZ8jEIAuFp4TzwPEJRylcjqDrQyCVIQ7hpOJZX7fMn6XVISotkYVNIQlsAUwAZ8SR/z/25FPf/cEPf+dd7+C2SnAbCxoEBiyn4jBCqDozFKerqmtOBfBoP09dMepPHcDmOmZW7cwjV0iCXeFdVBKN9+UID5ozEjx9zCvMFrMRwSD9RgUQx4Rx6Co71byqr7WHrp5+kb5QTBJPwgE1nJzMcz0YpHxZRorZgLl0qvNNJDeQPYBANfpXLLvqyt23/uwXGG2kpwinqvLJUbegotC2kJ0ch2rmOFGPbBfFKT3+uTSEm5UuuOA8HVcH4tcDg1cE9HKSyk680B61k9DEZGkJAIUdWgR32a1N3LA4eKxSNMd87murphXXPBt1LZt1S8dhWU/plKq/FALVKJb1sLqnUTbLUaIXVA324y9LQMGR29b5H1vX/dHrNvyHwyef21v+zp7BH7w4tP94ySg4uby9MTXWpt0jVlgxA06ss2QMQHfIPk3XLI9ViqhA2S5b8Bxu4uJ4BgWZGx5IUSx2gJlYkMvAwQKByB9qNVQYQk9yVVvsOmr7AEw01u8154RMPFaBHjJqMIPtFQfLxo5l+b96wTrynWf+53s29BtFzq2hMyYj0+QCgZmc8NfDe7xMPdohDL6FyqFRtNIx1B9ZJ9uYtdB2MrKo454U08YORw/tIMK4gpuKQQ3u5XFy6qKcBnxIIm37KwvPPA01Gc8egDbHP6x9szj1Hg5zJnZKdzA1AbKyvsV1iQhHxvK2O1L2rO6xNBi+cvP5zF6/ZuGsPoPO/NOl/Z3lqmIDEbAwAAIjb9myhct1rn7Na7lcFT5g7/59e/fuxRqrXpFzNwljGfpHTJLqVHgYjux+KciiVBgRjp8JQ2QNbg19/LisJ6ZfVU3SqANbANoq3Jo1a26//XZMXvzue0T4jykKLUeVqda5o0pUrPN0U6Q4/TwFXkx0D2VtB9tRU5Q3TkWyaLQLbgmpDb2DU82UZeDsNzUrUnnoLzpCDxKGAa880S954smnh0bHkDzpkSNxHE4+VWumnyZmsoDelE3vJkAF4IV8nmM1yDzowYMHD3/wgx9c0SdWlls60jAaUXe17LzcHjITRw6+YRUN86UoLFsG5qVcTGoJfp9hhjOpxFmcRu+t0Av1MABBvmrt8p1rjbddtXL4eHnP0dI9+8Zu3Tt4+4nRZ8dOICsuuN5KN7c8lyuyFyCnA0pVbDKyPxCFYinIjV0HG0A+W8m2a4EMQ6PChjyTCI7BRCsEAz+qe9VCQ0rW/d1QjfoqNfUTf/fq/LcePrjDPPF//v7VKDLCHohhMBEkNU0xk0BKydAjfiWdajk4IfyI08XQoW8USqFVtEespO+kV8orJYSJM4/M1I2wQpZ0Edl3lhtN69pqM6PVdtuYG6hzEBBlHxOacF22UYU3Cs2e0XR/n7suCPxL1q2/aLXZlYaRGG5q2bSm9WkInBPan3UAqBm/JrHACwK6YgUWSJdffPGr0LU/enwAYQD7Ai++uP+kcuBucBk0CTzOU4sBdG4k5xN+GpAxB+RPOI5wHJ6G5k35yhAnN6KRFQtKXiH/v7zv3k2bNrFnAZuhiyNcSzinzHA6EQCIjkadGzytkktM1TrdRmlzx209lTc0gBfYGhy3uZ/60Nana0vBwIruaoirKPHsTeKG3NUr5epg3dfUhL5jOF1//fWf+9znWHdwgx88HOFop0L+5966SbNazl6YGhxNulkY4ShijgCPw4dffufb33H5JRfDZnPKq2nhEiqMmeAuJnyXj8hH7hFpGrlNIGLHnGn0psbeSjxmBCtSD8txqHfr4dQm4dKnWYRAw8yXWcnVPwWovLei37tsVe+V56V/OhwciSp79lUeO166+aWhXxwa3cfSm2t7sANrGWu90jLLdApyBU05cILQxyimkMBq4FmeidCM+WNhJ4CFqOvIOfKKsB1qvGgkwJJOpuL0cJBOQvQTlfIV3X1//tDRrf0H3/5r63vJUKzenhYBmwBYsYMLeAQLIcDQ5WalT4ipXtzEHvXi7rLlcbuRsDZxVxTn077QPF4fuZYDja1h68aZ01LfpUME5Lgo1NgGuppmGHkVOiBEYzPKV4y421izOrFvO1K55X2FXDFfpbdElHdaoJsT2g+OBl56WabxNTiaV1ZsbFrQL3ITgWOuX7OaH1CG12SjfWBg4OjRo4cOHUIewL3yQyPDdCTEicUNmYDsNJGGDJM5fACBUGscfhz5t+nm+r7M/GRFcs1kEEgmLGfZjICcfPPGb69du3bLlk1IkkGyfBVzpmKkeeaO6jEwNWTwaH9H2dU3UIbi+FjsKJMsMst+Gnt04JgnN3A2cfXFZZ8JBFDoRRIic1+OFvFH9i+yOHPkAWKMAT0AVOkCTEI2b970kY985F//9V8PHXiJixtCNRKkW8Pm/PgcVW/Ws9XIhlY35Mz6jIaPjo5VxkrvfMc7rrvu9cJMitp9c94Lm6Psn6lcME9sdbHGY99Ydo8bMp7iVfYauNrVMF/EmkwQGjZCXdBPjZGdIvHS57mBAMOjWjDEQg6dIStFtMG4GtbfEPsbVna9MVn5p7FxbDQ8eLzywsGxBw8MPD5w4oejnjeYBOD+vLEzNlb7ySgXPJTjKqjVc7pDM7TdFUE6nMNqoMGtsjK9YR7VOOTJ2OOp9yHbtEnHJwLx9dNK/ZfdkVcvP+d9P3n6jo091+zojuzAi2tXgbfJatqfhEyAlVhYq9KnwI+BkeZSNjawkhj1IVQP0Qc3y7m8KFWMV1sVXZuAWYsEHOONwiMrw2YOODULbhlWHa24Tuxxi7PhWZUck5TNWMdPetiRcdzbDg/8xdt2vf7yjajbVOkWjtA1L7Zl/g0f5oT26zLqIYIfB5hkq0N+GQslNNX3Xc8TecC55+7kY7lchbRA/vfv3w8fgGwAEy7QG60iwKIHHkKLBMiT/iDbGRB+KklCkpNWZ8KTDOFC4DZ6evq++c1vf+Qjf9zb280GMuGzSNsoV4NIAKJEF7xSug6c8knM6UdunpvUQHqhr68veDYoIAPsxAF/ege2yfZlfx0qAgE+ZaW7k6w6jat7gScDgCejgqYgc9uyeSNWJu+7774777yzNMY1Weno0ElESJ3mf0bFrze/U9/jQbnEEOVuqmuuuQb2FESktsZaYgI5US33bTPA5AqfopNyHsw2Wc91RrYpppokeTAji8WRmLUmdrzz0x63ZxRsF1NlINBYXER2zmLXQYnDMipiJh/DP75YCnaS7l7j4t7C5Vt7rzfWjSbG4aOj+0vlfftGbts79J2BoT1D5UJsl7qt80yrGNhV28JE4JCf9gYoFnCpDP1dW7ToQVg/FKcEo2CacToack0NR//tE31dXX9604t3fGhVvm9FGFTcfHHKfKYTgbICrhCQRVENwQq6kAsPmjMBkZliZFhuGGC5wHqbQxKme8A8vqNmvKaxTDBNfVDWNLYf68Mzv4UWbCfOddxRMYCAAC/IeZVqmB5DBDFKn6JSU/ruezb95u6NrjUGJ19AQ0Iqc1rLrTmh/ZqaZq3mNfPrcQPU9CIei88spoUQKZaAiPhRQNuwYd369esuuuhCQtjX5JgA+gEvvvgirACvfqELpI9IgNxEOqUcxKCjQUmVqAb56IRQdyFmtt3T01MuVfyc//KRw/fee++v//qbCSQOgobThLUukUIb4KPDMxA19dC05uO3aexpB7JK1h0xzRR6uEP74ZAQ+69ZvVIn1OHTzGTG0SgFOFBheoSO0+OKEBzDoKe767o3XHvVVVfBMiJAoobzU6sZN2fGCTndsGHDhpWrVtBwBhPNZGwwCXhtnifG4th7FJNxnBayevKyR98iavMMslCunAGZuok5MFBJNnSrbE4LAWU5L3lmDIG8nLQAx2LNT6tvur4YAWaGsKSQc3R5pD6yFqa7LN82zlmX2449wC3L3//69C8r1eePlO5/YfBX+49/4wU7CEdQm7nQ7VrR443YlSEr7SHzUHLH6QlYqyfMZAuaqiM0nX1sLAzF1uau5JFDw5//ZfzR31zte82FjrVSOvmDBBINLaYCTDN8qmhGt0WaLvdZcUrFNtzAGrEC13TDKPXMY7861uLokMwzWaXVfrW6MZNaFGMOtah+i8lndVsIxjHuKD2VdvvR7m7/om7vsnNWvfOKVT15pyI6Tg42/dHxj5zIOQNpv3BbjMTxfXT9KlAARPwEdOOb9wI0kYyoO6gEs2eRRRddiQpY4iAP2LVrZ6USQPtB648+8eQLL7zA7gCHCeEAKAgHMeAppXTiSEKhOIAKRSEpNMMy7TCIkEPcccddrK76Vy73RG+cmJ1k3TpuRrSaTo/J6aieApx8Ick0U03OhxCKBsLkADbAjiG0fwa5kQO0FvhD+3V/adA1LXEWAxUcBAI6T4qGJ+OJQ8JPIJ7uYoHbbLE0hUIJ9zTNYunzn1Wr4aamkXCQbNLW9C1lBa+mVtNaygEh+QDokF/1Fj0gpQdh0+itAi25hc3j+DhGY/ceL73aiMX4nLAVrVIshc8mBPTI17OgPl/M6qB3S6eiOwfZkJUUu6p0E8yAWtxZ9BnvYp5BdgZctXsJB00mq21n1fauq89ZGVRK/33Y+NWBkR88eORLhweMg5HTW9zFjo5bjrm7Ua15qYCug0LZU7OPOjKl6DrnbL9aHu3LFU4E1mX9pf94+9gbLy5fuK4Foa1v4bT9yMnHZ0QNUWR1mJwHSvVegIoj52V9O+BKmq6nwtJH1/X91pvXT45MCGSNhoBkeOKyOPX+LBBPoYU4o9UybpWbRNhIsPOwLGkUeHZc6C10d8PJjdIq7vHx0sBKfO7kxHCjE/hyu8ZpuDlZ9wNuwNFAD4TqgKr4BiJSl1Y1gAyY6oZoekxy4or6kjJhBsLP57ytWzbxu3T37oGB43v27OFEPos89uOx0sOqvSHDKcFClaAZ7OjzpHR9nI9MoP3ou3JfCTVBhnz99e+mJri67p4y7zM0Aq2gZhpQ+IFbp0DTDQMyiP3JjOTSs3DZioeb02arLhCuUdMtugx/fYlURkloHEzWo82AGlr91wXnr++s+sojieUVjX0dqLhS3Qu1GVQfWfuFNZCep5eMQp5D1ZwUVqvCyVFbh4AkORCVoiBuRgdGy6yuZJsZWrNE+1sDbRa/1GiGmnX12TLQWdAL+ycoVBQ7UHcTW/mOUYHesy+DZpiwhglPVK5QCIBXIAd2farVIMRak+35dn5TP7KAwjsvXv3/DlRv2vPyt3710q3H4lLSd94ypUql1NkZkzXCPxU21KO3vp7hWNnr6gs5gJNGdq5YMeNv/OylC/5gKzqI9dFm7AcbSe3qKia1bZ0dIt/Q8Hyhsl1jHjTJTMfC63eed91VyxoSQYslRJZ/5H6K6jdEm/Q6ATud+tqiTqmYZYCVpgjIHoQdToa9mzBJXQ4j5jmmwZ6JjW4H8y0Y9YwWrMWpctr7WlSufaKpvtZDP4tbI+0tYFefJGMassCMLdC5cRJz3aoV61ZdfeXll+3bt+/OX979zDPPELnYJcecEG0Sn4UpAgOe9H5D8voqaVKhaQmibEgaX4E4xz751LOs795f3f+6N7x+1Yp+kK0eSFmtsnym49FpdU10DpSlW8pTV6BVPrKDBR/PWo2RDOekBjfjhzzrK9PwOjk3ZgbH3wgXOi38cbqit6cn36WBQHKqoSkr/na1SsxisefZF/a+8Y1voBqiSMZ8gJa0JD2T6zKTkKyxrTqUTDU3wFUz+E2UZs5gB5B17bJ2TbOyDaRWKza3gUkV67CyNQDvXeAKv3V9IRgmhK0OQ8IYCLVqjPsgIk0d1q+NKEgT1+g7/sj+ZVjMwuo8PP7sYO6mRS4F1kNAyHozp3hBzYHVxZBJyUZxbrx/NVtAYP2s8PPjMncXYQH6Anwt960O37t6zTuu3vrgM8fv/tVT//H5ghuPXdDlVsBZVi5xzSpbbEYXugHc0Ya4lbVwNY3zbo7zwiUbDUHhuSePatd3Yjax0V+rOqOhfVFP+j/2HHrvgS3nb4IGMw6xNyA8jNibFlrbwbDSZYlcw+mKw8GcDYPB8UWfA/vs5iuZRRO4cSU1RYZxT2iMICMp2KEZuEFhJE0aaT+tUekhAZoLaJJbs6BWM6lZXMLkKL9MbsHtwspJX1GiZblaNlIz0yx1mQUViTnG1lRyDhzjA3LFOEQzgL0A7hL80Ic+iJj3xODxCEs1rosMAMKPZgBjgtcZVIGEIFMtS3j00UfJYVwq0UFmDaO//lX7wf4ZAegg32bzqtPkVADqzo5JJvbXhD+rTxt2RDCAZWGmaWDghC6XyG1oT0d1O3si14+HOW61YAu9HOLZVchjmm8G9vzL6B/bTikKLg2X3zQ8MDQ2wvFoZ2HLVuYY8Asqe/CqugiYDf7uKMjlHeOqC1Z89P2vvfuPN/67HSufPGEFRk/BC6qi+Z+edEaCShU0aaAgkCY9lseVQmUv9SstLfSDN+A1UVFBZhUbAWyoY8Y3P/ICKw7oMzLhjEtBAXwGkGPFzDKpHlMr/FrjsKeTIVPyDHTTqfkM4ixI2g/vxfIO0kVHR5huMoydO3a+973vveGGGyD5mA+CpLHiZy+AONDvGcBFk0A4DDJ58MEHx8YwPjU7To8t8sLDU4/OjOI2LWPyV522aeSOAmkdlxlqEFEK9Dsj+ZMLzXKmdACLaT90MLPAJc8MIJANhhmknX4SOcrPWJPhJo9l3cWVubQaKUtZIiedbk5+YpfSwENnoOCPDiSHBspo6pqnt+k43bKX4s09BFAgkx0DNlsdVj6yW5AzouVm9eoN3f/lhp233nBBt2c8MhxujYOCFXuJ6Xd3c+izGoU5z4cj5LhWocLpjwax1Kl6Y+ZPziAigTI5SsCtf9Yqz/76QwcGhtl5R1WBBQQCblEgFInYtIflqQJEBjku3VDnv9rr+mVYNJuGeMCB+vXMedY3cBb9C5L2wz8CAogThMqxHUSZURi4ln3Jq87/+Ec+vPvSSwYHOX0u5gQyStYRyOh1EuLwwExgfejAgQPjAtqOcjoVWY8kXe1TodP2kZz26ieJIL3TTloXUS/9xkHHBzLEjAGKDrp6FIFj9POsS9bo1RGoAxsuRNRJGiMtvZ8xEBBby6I8XCPzy4r5rUVzBDPVImCV7uPJAODZfrXlJGaMbQ7f5pxYwc7teyEsm1wJuOQWCQQcuSpOWEFZPdtcy8fuc5pgCNAK83F4zYW5W/79rr+4aNu9I0lvZBST3MnhIZSgIeMVm3EQ21gONkWloBU4ZGkh6ojI11nXy1bBctd6+KT52H704VnICdVPUNWXlbuptVNbZdU0HBW4gN0DUZTP6iBajk0j1wfqwa+fM0St9dktEP+CpP16T1d3FT3NQPVcLFFj5zDs6+vByttb3/Ib2HdjDLBwr0XrvD/AiYwDkvNEn6DzDGopGugor5NDiNpRPZlFp1kfXQ0KxY4hWfFKM2GqCMHx2qYIvhITrgh1y7GxErYPCIFVmnGVlhLOKQQ4DJBtU9J1Bcc6b4U3hi126ekJJdOPE94nvojZFAz7hUGuxIUcyXf2DkcV9GkmRlp6W7AQYJQgfOeiPdMI4qQieqHctWt3FTgHl/qjibXGtP7L9av++W277qumnIbfUOg+7FQ9DtyWI9P3ER9yzSOy/FYAwBBIghVIOYEAeZeTeDAKYa7v588cVvv8wnqKHQqED5xUaJVL63AwUBiQKys3GZTtB7POpj4OfpkRCvvhx7UuajF8mTkJeWVbr8XUDCDdVYwXRh0SAOzwwFZi6ez3rv9dDASpbYGOa0qvk7Mm/FpncO/evQGGzE7DUU+dWgkUlN5sJ/ReJ88yoW6nMzJpHY7ccCtXrmTLXzNJWtSh68mnVs3V8IEDY8uf2xmIWJ+wVaql8FcKm0hHKjVwekqmSWpcuLY4Fiec95MRAMpTWG7K6hGL/VovCUtWst61vnlksDKILGCpYxcLBOKqEaMHCnFmS5U7djnToe7xiX3LifpiC9P/gelff83aW3/33Beqw+WkvKyaYoUWLiFnuoFj+6h/tCYpskwTdWVGHUZ1PPiAUhStzOcwMTQwKjfTMcDYn5LRmPGqnYCW7OV8P+qrghylHm2Q2OSMSYWrT6JDeOrI2es8eyZXdVZCWnfUrGQ/Z5loDT691lToS7oHegaxhwOoBtXLLrvk3e9+N4f12fufQS30CCB/uhlCy3k2JP8zyKchCRnqPLPxRIT60dYQv/5VJ9HDbppJ6pNrv06OP8uhp6d7y5YtnGkkRDMErOnx1Ndwcj5E0JmgCAm7TVrc5GhLIQ0Q0PDPng1f5+qV9Zve7a/1e7RzdY9saHXaZdzlU7WGvWpoR72eG5WC2w6UOOA/V9VeyneeIcBJcoer2OUeP1bnzGdE/tzIF6YYx3b5F6ehh0pAYlxz8eqvvGvDSycPb45s9uqHnIRLfCGRsYsMsCVNIS90RZUuf4I5PU4alkx7rVV9bCjef+wkGJwS5YePrDpvuzITxwaXXNcODW+Pwci+Yfzr+A2BvGYh2j//z84hMa0ULftpWqlfoUhqQ4exgW45NYA8c40LqEzIP+tXnrq3rn71VVzyxtp0BtXURBoqqFf/kMbTp/0Zxs8GpR5GU1avPr6OrBs4ZcL2EciWZoL/tbofr5qiE4iHZ5vkQAaHleXHH398EVvQawOBGXzK+jFLS8jkwOzrrHlkZtS2PbGiyYxZ29elLmDukPjH2B5xoqCMzSQsizr5/M1PvmQEGJRdcosBAtz2A/YU4ytcessNzwk3ycIImNiaxVZQla1VSHOCzVkEAvG7L9n0x29++93ll/sdv7eSHrMiLnVEHMtSqTUsLBeNAkHYEYoF8BeJ6y8zguHIPDI0LOhGUX29hlBjtnVOzb7A4IqDKtRkmjqnZlEnhdVPQ5VL7TEp4uIJWJC0ny14fkqqQ/3pZ8anvCLv1+HcDyBG+A3jzW94/YY1K2EINCWDkEOx6L32tI2vDAUiq2hE5oyoffDwET0c6ju/fsTUh2d+IpAqi6bLpQ66CB2uCPCpOFnazKNz4Klj4pGdtQ4GdpaTzAmK1u/aTzY7dmxVig3s4ocaPnwSBbEWDkUdzB9RGcv1Rkpjv3roQfCFTNs64RhJ9b5MizwWc3AGB91ImChOTrMFCeQFrsoJhJVfIgP4qJGCNmRyOvDCvBuarw4D36yG6PeZ1rZVxd196dFqSay/c30Yt7wbdp5DM1zMm7S81zHm6rcozjkrMaEcRsY21/qnPcN7BwMoRpRyHWRSRQYQqPNZcdgyl9NpyVLauYQAh8hrR/8x5IC9HcsVTAsewNCMhSkHxg+nPH0OzGNDEIMzf/Gm5No1654fG67k7G7QZSXA3Izd+gKt1OJMALmCLLyyy31QRnfVOoZ5CHv06b2CblxUBrkZkr1+FLVrzGoHDeYKgzEbRFpltwIzFF7KXQSYDGjNRaCbOP5RJqNIOgSJaddBwQszakv8vhCbo6m17jn6Eg9Gf6+77jpu59M2X2EC2KXmmdG/ps0kIeE8T2FnZetX59w0yYIOZL+fO4uRbdBAAMV+CiDSbW/TLr3tgsYfS38gzGHLLDLJ8dMdPDUws09ngycDneZ+GEywW5DLlw68/Mijj9919z0PPPjwi/teGhoexayyLFNQJ3U8AEV8eC+cZvJmC1YyyUFr4DkR5PLPzvvm+Wt6hipJgdNWKWrXFiesAs7rSV1a4gSHy2Ix5c/doiJni1gFogX2wycGUN12jFxeREhWBSqhMpiJVY3ZavBSPvMCATPx/uy6HSdHopWeA/Ywcr5X4hLadvLCyfVi2HPv4MslTOmLVEEYVMYR9iNlyHbmmDXMHU29STmOeTqrT2dFLuTY9SaeFnI7xuueUWuoO+MA8nPhhRcu/8nPUdkjpB6lZgh6POmpvwwavhIZRoGnjE615Q9q1gTvVNR591Ex3OwWm/NzO3bseP7555ctW0Z72zNGFC0VkA01gSfqFJhVfvyxJ6+8cndWLV1D8hmffrNb3wWQG2OPtjNaIPwYQsBExAMPPMDtUAwkHF9xsFyXXnrpRRddtH71KgIBWv3o0oNwtpqKGhSKULIEwqI7l7vYxmu39n3psZN+kQUcqlqpk3KFq9mVRAG0X0RjTRwXnKYc/AocTmmj4MUh8FWO/a8PHHnfq9f05uAi4AFSkSuoUpQeQEs2oknuS0ELCgIM127TuPbC4r9Zt+H24UM7/eKxOMpjbd4bFcOzzRyMpR7VUGNwBWNSu4LjPTFcKVdCN29j1VZUUPX1geMRmmXWJIzMMfnGB/BSk89LQRMhsKgmJ/hUt45BgAd8qqn1ZZddxi3ADFaNdqHoxGxP4YisMyEfPCBlMHhtGcf7uHB7IjDn/I1a6TIyz6wUiTLvjm3bfewYqxsLaaZmelplzo4xFWBxDxgBKuSfWw9YshJfdwH5ZGlnt6pZtme4Bzhwjxqj8Nlnn//MZz5z8803Y0Rh1ZrVPX29+a5C3/JlK1b2V8Pg9jvv+PRnP3Pf/Q/AT2nQgbZwaojJGJ4Vx6CRvkGUqkYuHcUC64p1+bzjoNjtQ8fF7inMnB0kyH5aY1xWaMoWUGIlGHWpmGnOSx8/Urnz6REktmVujo2TmmKtEp/OSuWXMjmTIWBb8fuv6B+puKEbFWOrZFn++JbidKrNWIPx7HHcp0fDkhzPqymOiqrfTMi30lJSSFKjnbMT+UwH8sRZVLR/MjknBLdr1y4NDmgSiFVzAG0ApEdMhn95hfYj1NK0P0uo0GVrRJnFmwMPRc9irqwJOeW/ffv20shoJuponz9gBLBUA4qFbf+XXz784IMPa4jxCYhpSnZ2zj3Qmeshwzd++ct7/+7v/o6T0P2rV7GcCbAxDkdquUg2RefZzfV09y3rW/GVr3zl5pt/xBkVOpVhBmCB2yyC7tRoEUUZIfwsjc5ZkT9vhTMQlDnLxZlrsDCWfstYRG+tpx2n3WlEOxKO0nIX3Ah6J37V93JfuP9YwHJNmQk24yrGWThopS6Saz+Ilr4uSAjowckzsiqoWZ+/zbQLuZJiLH228qei2Xo0wmnKT7mC4xzELqAsHggSmKAe02abvhXUmDiy4Bc9f5GinRr2rRKc3eGLivbr/qbL1SCQMUgIz+7ubi7khRrVf4JEte/6LBOdD8lxOsP2Cef6q5ovs0v7Dd/z2BzhBgQO4ejVP0xAq4YABEABPwSIiANLBIR//vOfI1whlQ7MAHUWzkDZEUmNffv2f+f731u+sh+AACKlb1pb0DP2ACBPtqIwF71xy9Yf3nzLbbfdDjCxsqxBmgGwVS90EK5Mnaiz0yKQ8UUv0yr25N60JXccvWyYAdb9XBgCA4A1N/buWzg56CXiXPgEbolDX9vmStHVPf4t+0/+7NGXPaMHnUbuFUaOgKZ1izyWghcPBBIzh3re6t7iOT3lUoquCJd6hRjvmX4LQcEgZc9OAmz5MkoxLMgVg+Qzo/FDKnIRBZpxzD/9mpyFMRfVFIXMgDEzYoNHBlSaIpRmbxX8m0XQ9KlNfxOTODx1HDxkhcte26Sdu09UA0f+439npyjaRWPP2b4dKGnFiCnho+ug6ROAzeXy3Kp877334td10jno2s5OLRdULtUo+u4Pvg8npJkkNkSQBMBV1RT9lWAdHIleZVehgKZkf3//nb+858iRY5wIwCno1Qbb6bebnXjBxxzEri36I+4CR37/lvN7gpQLWiL4Nch5xGWmHO9mM7+Fw3AGutCs6uETAif1UJOO0FPgv/X3d+wfHDHKWFA1uEKRjYMZIe8W5S4Fn5kQQJmFBXpX3n9Nt3WoWu23/CGUQTgL0KFDBYVjMCLlZxSi/S+0n1MGHS9vGHUR+gIKPY5XYdYm0XiGi+fvoqL9mjZn9AbKBPLlNZ9zWU5luuuaYuln055UlFXYCP2VVzC4Dmwaf54DqQklqsfslEyG8MqrVvXv3LkTOgQYgVtGxSeXAWSQDYhmr3JIfbGg3NfXx9J/YGCA3LSePx6yysA4OZ/FGgK+ueeee1CBRBwCBOAYkeczhCCbScgF0Ylnc52pB0XmVX5Joq+NQCUQucnsgwU5vgwZC1XqRM5tR4joOWx1ycYuw84FYo2FBb9diau+HN1sWb5pjiEUkPaYOcz75FPLjWQv7JyCc/OB8OdP77Vzjty/alS56A15UMuMlj4sCgiYZTnRWTCMNYW8Vw6H7WpPkotk52q6DmaUHwb+UBBliILTYCVJLJL/zlVGGJkKUcvSaLo1OIvjzQGieeWgCUGicP3MVq54ECapRZdsAuEYItrTpqakIg4RMg+vDUNKvzYENuSpM8ni8ApdpAJki9Phk3NuyASprMSk5jzVXjCZMDXIQeev49f7G3Jo/6ohxnS5/PLLK5USwnyK446krNoNyXU4petwsfji2rKFbbnfu/nmkDrajuiOkwkWvJXmbUMOi+NV2jiu3iitFV5HVi2Hjwz86Ec/7utbjooIbJJ0E+hMljOC2wS9pTGyUV6hujyJgCYg51GffPLJUqlCnvRIGxrcOfTYAWUos6hi+KDb18X1rFy/t6LY+3+cmzs4SHhSscpumg+jYWyutMwfuS4E3UHyj1XfYmhVaH1ie4ERru1KPvDTgyeGjJBVX6knx9JfZg98hPxgnnkBPqDmlpkvfVhwEChAswtl0+j2igkX+xZ8IxoxRfYzfSfDQyMuNYFI2FHyWkEqLRgSrROGOjaJUD5Er8ZJgkqK/YAWjnMvIuWKqmbsGE4Sm3aMEEtm6lnhZgLoBQcYTSaRZuvlu6a1snxp64hQG1KKAyBuRu10upnRWp1nlnPbKszfR71S37ZtG0fOMGAMoDSH1FENisXi00/tue2226A08k85lrwdZbKAIus2MiroTQaDYumwHpH84Ac/IBD6jSMcuk6j2owWnZylP1KTkydPElllNfdz07TfeOkmR0Suad5MK3m7K+pJHKltR64a+yvd3OhY+Ut3HQzjQNiKOC5jCkDNIP0kQyAAQJbIf0ewPbMjy9hnn99OrdDx4mqZ2x7ajPPJbQFHyA9pE/tSZMbxUlE1VXtUU6DnyZnJ4VUP00BsbsmVQGkpjQpiKahJzPogXWHmoA6USpwd7qxoJ+t+CD8dSjdnfdy+f4kJksri42FMgLl0Kl6z5PX+LLDBUx+nVQXq4zQkn4dXWheKCQTzyiuvBFbQIULqq9Sq2vV1Iz46lbfeeuu+AwfhrEiCGE+ZeauPtXj8DAKEjLQaB4XThO2OO+549tln2WMiBEdrgSRO+1s1XmfC1omm/dOBdqusph/OQumyrd27+/MDLPbTSs70SqnrdC6rt6LcyTi9ZFnPn/30qYf2VQ07KamzfhjEVGIPeWbNBxTTr+FSzDMaAqkll/7F1dEq9N8xUfpnHE2p6D+pSZyhxtak0jk1QqVqmjIIO5cQcfkghiqpgTIdIBIFYSnGifqkYiVAzzs8gqwUB58h+abxF1PgopqHuv8mdw9bkqxlQccKCdew8JQ4iNyIw+AgQzAXY4Jd8MmZtwkhh/qv+pWs6uup89fP+sjz7KelWPSjahj52bl9Gxr7ura6Ytqvn+0rBgORyxW+8Y1vAHOk3SSfEs7tMzzDv9JAESYxQuByjPS55/f++Cc/Y5ufViNKAWJ81XxAG+iRCQ6IEVNyY9NkXggk5/lW5oz3n9d7tFxdZrNug/vjVraO5TRYYsE022hQ2rai5/e+/tzIyWHPtXyugAGlqv6jdTRfk3/8Z3ifLlVvmhBg3NOXYXX0uZOQ3MS0PY6zdrLdL/p8kHy0TxgwasyDgSBJSjul82ESV+NDQbnXxHq1GZpJl+WW04jdxzZOJp5yxGGI4p2fqdemSvP2aVHR/slQoztxCF017Qf76K6ljydHbgjR40DHBI+zFG6g/dPJpCFPKkOIftZ/mhxS/3Ue/JAcSuFqLVica6+9Fo0/6FBWrm7plO2F8NMQLvjh/qRvf/vbiMRpbczKfyIPlGW70D20i+EExMKI3UV76OTIN7/5TbmuRBF+WofmBE+iMX6mXE9o/hLo6STzABwwNXey/ebFvXkvDJJ8NR1bhsV/uzMGl3r61kgZtb806knLL4fuf/rBAQvFLwPVlkSMFMMTKQ0Gxo9ifDtf0M0DLJaK6BwCmIXgzGc5Mh48Xl7tySmPiDP/U23Y15AJhFbRWl5LUbI+b3uInNBoUohZyNLUGLqxxszGUurkJSEUX4aZ3DCq2c/GuKfedX00jsK/RPtPgWZh+XRH1teZToXwQ/75hO66Jv8E4qmPNtmfDQISgrt7enq0EhyvOB1fj5jJaVuFZAknR+g0q8k5nEaIgAKAaIcppPPP3Tk6JEv/rFZtal5fbqFQYMugt3fZg488fNMtP5IlrNIdq8+qPv7i8HPRGWp9X/n610bLFd/PAwE9VGg1JB++irGUDafJTQbsgJcIiF44LsHg0qzY5JizG+Kh3W8Za9cW/2TXqoeOn1jvckPvTNTxymk1z21EaAxYxd1d1c88dOTLdwyBxC3Hsl3s/DLXpOJqCJ2N5z5mt9fOnNyUvou1f9R5YTRY5TsjQVV27Ts54wdh5ozJcBTu6vYKHuwiJ09pH2f8GD0dNxTzq5btw0DIRX5GMsawRNFPFG3bOY3iGJxqfDZZmLVLvJC/dQ7gM7i1uvOyCmb0Zs+ePSBWXomgEbHGtlnMyR4dmWhZKnayG9b9pOLr5LRZSEN9dHjTwCzJK+VBKU2DiDNmrutcc8011Wo5ax11nk61XcfDOpCGMFrrP/3pT+++995FvMpjTQGZhy9kgXvjjTfu3buPViM4h97jgB4fgBseXhlL7TuXyFu3bkVfsn20WfzKOqvMrUuW/aGrtrh+HCX5ESvmb6dFhEkucEtFo582Hq6MXbu8+wM/eeH7T4xgsIWssLHGkNDzZDqjqNPSl+K/UhCAqmLh4c5nR8I05i4oxP5O6soh/RYOAZAeAJrqZCvyUhRd0JPL52SzCc1TRf2n1tGbXEgYsd+fckhJDgySj1qhcZnf5Jg6JBuNGaIjvN7fKuHiCF9UtL9pl9CX3FLDOoyezhbuBLZZhxFTjwDBWYq6g9RAytlYaVrQlIE6+WlmMmUpM4hQW5cprTQmClLa88479+KLL6btuvk6T13z+pCGsgBXzuciUJk/+LkZ6Hvf+94TTzyZRWuTNouzgDy0kZU6HOFNN92EnINt/pLaKwFQyJkI1xwA0do3SnNdGPg777zzYLyIPJnLbJ/DzL4ikncdkK2zbkv3e7dtfaASdxsmO6+d5uYUCmbUzdGqcpisiPP7Csl53cV3ff3xAwcO1Mj/TOVkndZkKf58QoBteTZ67nlmwHPtcpDk8mLuOZCr+DpwTJY4jdfmZCBCtKH/Ysxf/+sgG4kaVKrHKqUidwCbFpdNst9fQuRWM2rZMq96pIS//rVlmkXxYcI8z5oN6uYn2yWczZUjyxOcgo/i43lwokLfnFiLIkkmxJ7PF1Vn3QoQrpz3TM09zz6/b99LruszyJD5g2epMEi5DUbWuFg3E9wehlUMmK9bvSqDT9amNgyEjkNZeDTV1H4drquhP+lsdRz9temTCFkcXa6uYdPInQUi+60TsbFhXS6V3vLrb4YawfFoQPHETdFek719iUNLHQfNQUPp/X3r6Weelctqxzkq3V7i1MMz89dDqbNWzF1sBjlWCtRQV4VQczVBbJdJcuP3b/r57Xf09PTRBOz0xer+Yt1Tui2aA+CrbjLwAZJQd57kRkwijIyMoGW5e/duCakNmDmfR7bpOmkZMz+9hvGha9e5paEuw68mkWN0BdZY4nQbSY8VJWIDOC65rc/9o6ZoYs/HQmPLGLU5JAgBiLbmvUs+9/wLxzEIgPCDQ+BVsIUltoHkoj9wiqgCql1ZzhQKiqk04hkF6ll+ZL2QITfwW6SONoA86A/5hUIuSpSs8FsYqerRG9hlUhF0Wr4jqtH1y0Zv8+oCZNVYI8VmfVUVJ8aVCJOsmCeMLgYDpE9bROLWhJRzScSQ/CUa/1VsSTH/Lq1q4EANqK8o8kdhNTGw4PTY/qEvP1va3uOhtGeNVFPfRoG0VQU5d+cnFkfo0cevmoXIjgpxtWKPGXHh3PXCHoYpx0O5DgK1f/51rHPKNRonHTvmwIFZcRJ/LEzyXFbRmh6xrONsAjoKDO1c4mCjOqFKznyMw1Ygms/wCbRfIyw1PcYFJgIe2e3WdcKDIxoORCbHt5SFGZCXjqCR3Xw2YHJZ1E1ovBytxkaKeffdd7M4m0y0iDY5rQ6hjcSnUTzx48Fh77ZV/I7Cm6KJNpXJMq9PiL919bMUM/ewbc8ex1vf+laWbij96e7GNDLkqqOqAkDcF77wBUQvgr7UFfVZtbKsAHIWSPzMf+Z4GA1RLKOCKoGr+UGy8f/wplt+8YtfrFu3TjeB5X59NzXUX0sCNOHXY4wIvOokb3nLW5Q5gHGKogRODTnM7quyvpdnizasBhdtK/7xFWseOFldbueq6ShWe3PxkJsORnmLbY3UyYWsyzp0/cWeC//hVw+9HDp2Poo9M8GCcIwCNgSWvCwzFM3CoJJLMQhvZYfQAABAAElEQVQUGadUSzssZtrR1aypKXPRgzhe+GGE2OAawqRiijH6mLvpQHmFcskwR0fiMpULk7JhVQK3YoYVaDQ9JiuLOvGMZuNaVSRCyEiOcomyayeuI2ktwwkThNRKsZ0blBOb9bIYm8FQboymuukROTC5aFE4D0kL3F4pZ9pljnJQOkjHZFM/jBwWCIlvhF/9ZSUtJn4YBU4c+ZZbMdzW++uwM2Vgy/l7j6UY+RQrptNl+TAMq1b0aP5GDTJpaUsOojUQ9DzSWEVzIG0mo2qNlJZhIZ1xw2vr0hb8lwl4VqMhGg+pg7jI9FQ2PsFZABGHBydUf9wyHQDAn+EvmUd1K8j5Bo/QQ6HWyPb1lbIPP/zo00/vgXqBtak/TcPhoWJ4WlVPx9RP1dYEDSwsrreK3ya8vhTtJ1ucTpJ5eK33N2RY/6k+w4Zos/JKe3U+dDRn/devX8/qnxBgiPI/njYVoJ7a6RyIiWMsAb3Pf/7z9957PxSUjiCQCHjYLCc+fsoikKLrmQCdyZnwZD0Gm0slqQw1ZLTTkDCOvvXt7/74xz/mCkRAxFfhEG2bsdemzhq8tDqbawCWM/1XXXXVts0bhA1QBpXJQbSg5thJT1MIUjADkX30767dkPOqI2lX3oDCRWHMaj5JUdZjQeZIezutTp8Z9aa5K77w2J37T7CmiiwvCisOiywTQsJhQhgo24DHMN0IxeypZLOdlt4mvh51qvG034riohHmTSdXhtfnqmPqQ1/nPdaj3UaukBp5CwIceHEeCzZiykYNY52/zoqQ8TybFIu9S4PhExtOUGWlOcZxSonFWEEpzS4laZkvhptiiCbBRuIog43zFxipYTXtc4ESd2pHkSOH314ZB+OD4V6ue6bj4GM4ulNNy3TfQ3sG/+qB5y7JF05YEWiXK50jEXyJJZWmjkNWrPWRoXKY345KSeQGhjVWtnZ0G5vWLmeS2SK4VePebL1L3zRrFQhmx85k9l3jmey1qSeLU+s+sNIZufZoWvnTDJwwnhjBwAKsJJmaZiAXI3C1F2we81J0J8AC/DSzDJCFbVVnkXVCwFeD4GlWaubJpTkaR1OlkZGxH//s547v6ZkJ2qV1OOK0r6eOD5YnGqgczL558+ZCQXayT98JjOqYD+2fTrb1MTMKPZ2EU8apzxk/A0C7Yt57+1t/M6rK1jV0GtDhaVO0gm4NwrpQHUISyD+n/m6//U5mfbkiJJ8ikMcQISudWachP2WF5zkClaRuGiaYK3Zcl6H1lX/92n333Qfh51w+XxE1MWCofxv46BFFZN1qnohS0I5cu2rlW978JrX+F04IRyZ81f65e+YioyIS0QQbPFGYnruu8J939zwzNFz0i4hOR9xCnHYhjnY9yD/2+///9t47zK7jOvC8+cXOGTmRAAFSFMFMkTRlJUuiSAUqUFS2gkeesdbe3T9mvNJ4vvF4dnc+yzsOO5YsyVYaURIl25Ilm5aoTDGTYgAJEARAZKBz94s37+/c6r543f1esxtoEiBXxeZD3bpVp06dqntO1alTp5aNyJgfbLXLawzvNz6/94FHh7kBwrILoVYO2BfGKCzKsJpIVsOChN7a9+qyK25RQJGd8UYXEMgl05owCBHt+CnW3TxHEyJDdq01bapiHRqd2jNR33v8xLGSbfnteKjWfZm4SCfN9o7q7sU7C0V3YIS4PMKBAyfbCjjBFh26X9e49k7PcQVurGVRmod0uqk5WbGXQ/gToHmsubbliiJaHD6elZCLcXvL/EWc7kOD0ESTnqu61f/jzv3tRStwp/NRQceNd5yJQzeWfbDmwWE7PzZDzpLg9B8eqId5WztSNa5cV+xtg+TsBs2OeZ0+WXagL1R3AFzgJ3x+8a5prEPlVAOjMf2lGp9zlhd60X6Zk0UovkxE/2NPPHbs2LHpiUnSkYJYM8Hs0HBixmXbsoaDLmqmZdJvs9/D2SIWHQ9KcGG4M23553/+5+HhYXTXpKgx0divpLRCmHTeAgFWThG8rXHJjTRuhjOfZvtUdQoyIHhUA3Tp4FQH8UtYeqml5AQg+BBossqvqti27fwbbrgBV30Dq1YjunilcjaFSfG0bIohiXAMaJ0rtn3nO9/Bbe2b3vQmGs8wSzuFzABngJF5kX5pWukLkAh6cmJNbEREGzY8PPrlL3+VocWEhjfMCcBBzTjV6b5FUFKTA35pKVMfVCkMzte//vXFYj7wfaUzSEfIInBW5BUr8AwMXfnoN+xS6P/b6zZ+9lcPHK92dXe4msvmq27U4OY5J/RsPcPad1n1Fu3uYb3ar5V7beP6L+371o3xzTesCoPYtbSMnuj49QiFOoYPPiZZVhYe8jwHIa1iAnw/aLhgYJZpYZJAF2awMwurI170xJ7KnY8N/3Bq4rGJgcgfjTXr4p6xN213PrK9u38tC4B84EpPJcxP1FcMANWhrZCH+zCtZZaD8UTZNAtmLROZRyqZPfuPHhye3j9cK3lme6Gwrjd33mB2qCu7uh+3iCjV7chCRoIYG9hZX88uplBqVfdKpMe6k8HyILCqdpj3LG58xJnDf/nX0R8erF0wVJiquHlms5EdGn6+HtYyLQ1DMj6bPtkABQj+8+08ZkU5K/AC+4YtfQnTSebEqleSuy/SmcASGxFzrbRcIs1JQ+lQ4TyLWPkvAMq3LGVmmdiC9y+1hDmyn2YL58VWK9R+8cu7uVB8amoKpsYoVzyOUU6EGQDr4LVr1+L7HVuwQhb/r/Ih8QkDQTHBs0In9VXzWfJh33XXXfc9+BDoIVRoFGHmm0+kJnhKT7cIZOYN3zNF4OYAob0t8j5H8sKRRL2ExRFYCJT8TEZIVwUVhguznV7KPMooIFJjQrRXv/rVe/bsQWYjvBFUkAX8F69IIZk2kyJKtHd09/z8l/cgNd/85jcPDvZTrwJFfoaN4qEKmcXhv9BvxYLEc1j/mvojjzx++ze/QYvauzpplMKZR9UjMvaSzm2KIdnIT2MpyC958DwBeS/ccQGEVYKfRCCQsymElU2MjDrueNls1iNH9Hqmneuy/+S1Wz/8zeP5rN4hTp7x16aj7Df1jHzby6w+LNfirDeC2tyKdg50vP17R3//6PHfveXSdVwCxAJXNzH3Y0qBFLZtFMGI4OdduvHdq3bMaFkSAa5zs6Kh1cLoX3eNfuEnJ/71oFbP6H2dxhbjZMbJGdnMifLEf/5x23/92Ynv3LTmVZevszOCJxCSKZxQRX0prcgDB9X9cmzrvlVo49MJ7K/fc/APH5jcd5LJNPqAZHsnnhR5pZmcvHjn5sJ167p/Y2vP2gEdd1vcvKhzdbI1R1u5/N5ohd1zpzO5tUwDx7uY5/m6a0f21+89/N/uenZLX+eRwB2yeiaNki1SvRLYeQObzxYBG2AYWN1m8iCrfzOamqoF2Zxz6YYergIyGIRiBoq9gNxwKUrmZQ44Phw6QiiT8Cciwl7wGNCCX8lbUWc3VNMiZ4sGvbiTzT/6oz+a0wJdn5iYuuOOO370k5+yLikUi5lMlqlxPs894wXi3NTOvIrL2nfv3vPQQw/iwY25QjFfzGRFtQ4oiLncPpuDwJk90PeuF9x33/133nlne0cnEkXxWTpYCRU1ONSwmNPrDfUyJnhFoEi5XOLk1ZWXX5GIXclEekPeJUUVQFV2YmLi/gcfYpeXRxl8SVgcJvWx3lRZ2VauViobN2zALHwpZVWe0/4FQz57/PxiMpnJ5qDeIqBUcxrbouJcF08LICbLXNQw4xOT9953f1dn50B/H4nAJBBR8cbii9T1Qr4KoxDvPdPT5e/feed3/umfWO4bYuiHmlOmQSCMRAf5dGLUqgmkq5byS5yRyZzybW97Gxo0mgMERUAiPCrIz2szI83l8hV8sVKf79fxW1mOtcvXtB84Mnz3cLXXsjHgQj0Rxx5bz1z+29qKqwWamZD1q2a7fsX0I2uw3f2no9rPH923Y003C4acjb49dCMujIQYbISgVHi+Zb98Q9TFPygAdCqW+4ZDJmwPP330f/vek5/66fhkrWdbt9FuTeW0DAbnbsYMvbJtdqzLTvWb1n+/d3Jbpm3r+jxdJDogel+MBZUtEVCbcwZ6WrNDnQsTjKhcKX3yH4//wU/HO7RgU3t+IKcNOuGqTLg6Z6zKOwM5p9exf36o9g+Hpj+36+TuAyfbtVp/n55xLMPD6eYpOrcaY6dyrFzMMFw2P8uhiyBgsHznniPv+PujO1cVTCPwzBz8Nq+5vmVlAyxEmKyIcVjzysXGnxkOs03MGIKcHh0sh6/f0vHBy9cYzANjWWRCTZgFUx0sJJKd/+aQmqZOTrt/fv/xQQczScwp5cJMnW0ULgporbBlBEh1MumI8EQ17Pu/e9lAL/dQnhafb4rVOZs4f45WrVW/9KUv7dq1a2BggIWm44iFFz2Jx5K668rSM/lOc/l8X38/bm6feuqpr3zlK3/3d3+HJReboIptna3WMubgp1ymwtYyvlGJq2UWKKsAYuQh8LgIkrSCDJSFR7Obi8KfmTvxRYos5VVaKQiQP32cF18IipyNmZMWtPi6FhZeQkqKj6oo/VV04JEtnre85S0s/bH/XwReK8QEjiFikuLq4Dsj56u3fx1/OMwdeQttFXlbQVik0hfgFftfe/bs/exnP8vQGhoawgkOeEKWVNgz62WwsXAnohrSFCtGlNKKMfOjOEVuvvlmzFE0XKMkH6KiPMABQrwpkBVMNONMNbEe92G0TpbLTDu4iTkO/tuN62qaWXEKFd12Aw7tsWaNnNZnt1qhxMrYNWq6a1kdup+vTmBSUPQP1swb/uqRv/jRsfFRN6u7OcvHDax8WsrMqBWsFUmflUmohoXU1BlpY2Nj//5zJ6/48r47jmR3dg8OWSeH4/EgW+Skn4viz68j93Rt3NXQZ/tXr7fe/b1du3fvxm+BheYi6SP6izEMZ2mFI/YUQVzws/WxQP/YHUf/9Cd7XjFUyOreuDtVCoOKlpkKc+NedszTx3x/Iqhv6Qgu6zDXWs4397s3fuPILZ85cMcvT1Y4d3CWAuaGge61YYGou//vXUdv+9auawatg54xDBWqI/0WRzrj9jrHO/NZC/P9lnwysDJeYjYDtZDuBbutarS/eVs/u/5MphX5+GWqLUcJW4JpSQU6Iu0FiSfcvmXuhrenvjWKte7HRUC9GF/NrPulxTID0r9xx98/tXtP/8Agum5Gfq1WzeWy8jIJaQtJwbgfKqEGyOXyU9Olx5/Y9fiuXTXX7+zpzWfYKWQiJbsvWEgz0Z4p2MDN4G4KbApTiiR0P9UTyTuVSLQxPWWOCogaNyfHJr/+zW/dd/8DxfZ2Nq7JwzeZFlcRkUOJLqgRWhpXeWTuCSaCTNReKP7W614nRMAeOinbiPAS46pGhQ9G3Q889DD6kxQ9JfxSHJrAnN2hAAGwomvWr1u3dSsmCBKa5F9m0iJAhM5CQ23t2tWccX/qyV2FfI7zz5JILQnXo3gjbdPKT4EVSpJFAokqHQrsO3Dwyd1PO9n8qqEhNlgSgjMDFzVcAltqkMxymB5mLU8pcBVJYc5Ln3nEoiqBRO3yJweTZT3AL2dTVCUzrwQ93s7ghlTmc+CB/aLp6dJ3v/8v3/3e92p1t79/AMNPADmO7Xli4qdaBETi/Ko+Vb8KB5UOKEFVY2sDq22xmpwaH3vfe27dtGF9HHh4vmW9o/LzK0gkyKUpz1dEDLikYrE+oA4O6YjVjmEVnYt78n/9wKGt9oBrlOIIHXedsw0oYxsxSdCc0Xk0pqfx5EvDbbBcEszZLiz8sRLnuO1Qru2bzxz91t6TRatt+0B7hiMAHlvmWY6Mc7TAwcKNabcs2WTFxiF3jiEk3UQHCUuhSvH6Skcm/Sl9K10nf0SRHLSE96wv+ZMGUVhGAtstlvicZTM4qOHa4OCw/1c/Pvz+O558ampisFgcyjpVv8LBPsvIIL9keSow+eawuLe5lgIRXgqM7rx19zPW26/sy3PIHRU4nugInui1Fnaa9DkwjNCr4rDZ+ux3h//0sWduWD14qDoeaXLhEy9n8rAZQUckeyGRYZc9hok71JYfbCscGpn8zhPHv/xEqTec6Mm2WW2O2tIGct3jNDtt4mYGOJY0TQYybjZQFMKhYzZqpDcSwog8FbqRR1EEpwIYOEoGecGfnGIFBaJhWDc8zB7LvNa5jJl/zJNl/z98fc//9csjWzo60ftHfoULm/jj7D+SO0CHz2eFabi0uHmgwzjH4NjdNb2GD6u4Vpu0tE+/dm1HEeNB4W3UJURAl4IGqEHJ0RycamvSABoNMY9NBl94YHigYE1zdpQtFjQ7HDtofSyZnYUCJyu4jdCIbLMtiE6M1uOP/caOgQJsijqFmnP+pIuaBZnuzM25+KPqhYUlEvBqPCTDVuqC28hYll4hzEzAVX26xoFZhow2rQUZTuomPWzqfCxzvtOkYJOfUzp/BvCTu/fiiI2NfK5xg5SksEBhcUOkSdHEvgnKEljxkJMl3b59+1AOT2MlYNtd3T1iFUqXgrvYxs4BwwOBdjYySpVIXaSrQFwl8qvS1a9iqfBoWXuJYj+6//4Hvnb719GoMxlht0KBJRvoqbIUXGLgM+LAFmVR+F95xRUXXXRRIvgTV9NLBNEsGy0CJrL//gdF9vMIYo2/zQpJWoo/EcgAnTesWy+yv1WBlUtXdAYFzNg3b9588ODBo0ePdnR1gwN9Sz0qQ2Mntqo8bQUZVJyeovseeeSRA/v2dXR09vR0A42BoqBJW9XAE15AsngWSQN0U3DIQxcTT1NUnoSwirdSneIrDMUkkkBTwClLdVKTBNFAyICh83WjXvew5L/99tuf2bcfzQeaJHWWj9GOMowxpmpMUUojtIKRCThyApA4rwQ6mk3fbysWsZ+95a1vvfzyyyRRlvwvQE+m2D13pKp5OwY7C0fDLx09uL0zc4K1XNAjF7TigS0hewqClqLqmJeYvm0VcS1vW8aaqMVffmL03idGBy1t3ao2ZtYZoxbpVi00bUzqhXdwbAzowj5mbOvpPvZNGCSoCmQfnLsiEbpMT8mAuQALUwQgWbAS53SyXAvLYUUEP3iSxm2zvhn6RnzoRO0zPx159z8+/cMDU9sLbexQ0zZaMa8hjSlkSMMTEyd3dmW3r+7C4QPW7SLzZWS15Lk1vZo3M48emHzHtx/b2e9g2Z7B/4zotpv3O5N7+AMqIiKMRlgrAWQ+/8T0f999IjqJTUDQ2RVmDNwyGi4nT0I2BOifgGmI4CGSi9bi2BaZCqWkz+g9RjltR0jTEMnCwEMbx8SEt2Icp9uczxdiVhHjTpgtWdhi+LYehBXzzl0jO2/fff/hqWsGOqfcTNUPbfTiGOYvJ+ioP7SM7ZZyIa53vN2l4JOXDbx259Aco7PlACQvbeEX4hA5MVH/zIMnUCNU8RiBeYK8nXnVFKpvm3odd1PsbAU138zkC+VI+9QleqZYTFZ+0E2WClBv5o/xL+7iFvyJyQZSecl/AkGmaPP+6LSkwmSgJYMD/PmvLi6KWWZIU5NCARZ5RhjUccIZ+pqJ4MdnBHNrGJmPWXXC5Zq2eE6ikB32xC+Tvh/9SK4fFbae3FdLOoOPz2ZOiYYHMoAmGVQeBigMkff33nffPffeyxzikksuQWCwxZvJwARnJLoCkLRPfhTvINIAWHp0Xgpv6WCFqtKsUimfB1R8/PFdP/7xjxFLhfYOxAnZYM0U562SCo2QF49TiuJ8zIpf0yKaAAFgPXPwWxzK7Fs1ImefTv1LOuHU8zkcg4BQGwok/g3D22677TOf+czJ0VHsH6EV3QGhoBK/yDkEW9OmNO1KlRM6sH2OLPziF7+4ffv2q668fMuWLcgT4VaJ+FTDg3Evg6yhD1RPgR44UHXTeklMKC0/5FdFyJ/A5F8xqRN9w8zQYsNI7uBhKsnO16O/evzuu+9mS4I7nHDrRNNoIxAoRgAXfltVSrakiphSxBV64ACuaE1OnDhx7dVXXXfdK3i7COatgL8A6Xj2jUL3f3/L+rvGT/5gfPz8XIe4arWyeuJmDgRSStIoWrpclPSadsiIu229o2D8ZKrys6/su/mnx2+8tu1VmwfX9GF14Nc09oUN241Nx6oZWg6pJGxK/mQhTzxhx6aBNk4eWaOb4llEgnxYHkf0MeDjPndDbocjAyb9pjZWN57ZNfbV+4f/Zm/VdbLb8pn2fHg0DvFmSF/MDnXpWdUuxT3U4FG/gKLtftb5yqMnX3fxWjuH5ESnIbZpsVY1tHbBYEHI4RDHiP/sJ8cDO1cPfFi1Htosqo24+Q4aJE1Hl6qXcULKyzvbM2HmT3516M/uDW5c0/nGl7ddu6Gzb20Xgr8YsDLBLR1s3MXwinVZOdRySc8kGxIzq2hZJCI+cGKQCggxNJzRWNSiMBebldihWRpnMdArVOMHnz38+V9OfmF3dVW/0TnY/lTFGLKjSoR2H+TF88fSA2I2H1bxC1Qzo8Egc8isvO+SXvaYULUsHcgiOb3EqlsolmRKNJOLZMegg/lQYKJo8q28WzfyMZ65svm+RnzmsunlDfVWgjNqodPgLAjoimpL8RZkq6xV5DAO3aVaBSPELEZYj6nlJLscqYRdmnwDcgoTOxQG5JLoKZkYzfweP3780KFDyGkl76EgGPDLq1YBbggT5C0fSWPOYkc76SdHR771D3+PMN64cSPmcuvWrRvs60ceq7kEK3VqENYLttIUqUhhIuMy6T0qBwXQIB2AshabZTQkjo5N7N+/HzUDvueQH2DOrJJ0kOFTUYKfuMwPWrPphU2jLgKTmJGRk9e/4lrONJIHhgOo5bI54CiyJCDVgBRptLDSczMFutFk1XB8OSAW0QS94x3v+Jsv/K0irLpyXglFhg3NXFZDYLjMG6gF3VzesR977LGHH354586duLZds2ZNoYBpITZoIiCBTI0yAmarUGQEPUJa6ULaNlKebDwChA7gH3AlkqjUZMARsR1ncmpy1xNPPfDAA6g38m3F3oF+TniyOa/KUhdVEBhUgGo1rtRMiGypdIdQlKWx7C7v2LHjrW99KwBJmW1U2oJzIsIaggW3kTf/n1tftuPzj+RDcc88Hh/L2O00qpEU0nezPbJ01Gv5tjavVo5c3Y13Oo63yvxh3b/j6yc39A5/cNv6G7d1bFmXKeS4aYi6ghwreiQ5unX6GUYh/E6WrBKYapJIHGEqeCVxfjJoAzh16eAu0A9qU66569D0g7uPfWl37bFS2crKUTozcGv1eEpDgpV0qzspLD9pc2hpGldvVdv53dbedefx0lPj1ctX5UW5TimZfyR8OgXUENFje9fRya8/W9vZlRuOC45Rxz7OMVoehGfAq6+JCCOEOEOFcTvKhCGY2FnQvE7jO+Xpb99ZNZ0Dt6ztv+nC7KUD/Wv6i0aOLZVMQqK4yJLQlTGm9HMQRHipDHkmBsksWriucFr+ICpPWT6lUCugdtG1IyOln+yd+N7j5W/vGQ7z+Zet0dxavjwZFnNuKTCzcUWrsz+wPF+MZmB6cVhz8kO+d28l/vcXdW9ck2eVJnisRMAhjdrkkw2YpKGJrx+0GM2r4HyhmbEsFz1Hu5d1Lbdme8WDXnQBgqRpmJlULHgnQ6BJEH1ls5DszTR5gQMnkd7iPGrmbSIB6RPhT7Ro3oCc1vyCzXZTkMVJpEwnUYlhWisfylLCzMEqBvQzzzzDOINbESeor5rB14rBAV0xbkqpzDBEEomzFqcXTMvp6S0A6pl9B3Y9uZuxu3Htmv7+/g0bNsDZUaJSnPw0j6My83Alkb+ECqdOnDPBwBEKvBhUkfqHDx/mCCLKsa7ePj4PjKVRzyhsQUkJJCpVKfPgL/5IEajM0vaaa64BB4CSn49o8VJLfJtQV8YKkXl9uUQIL1g2Rb2ZhsuqFUWLsXr1qg+89z0YvrHprbREZKMhizRHvZ2HNvmBjFCkOCOBZZfYzxsGdqYPPvgg9pVoXPjt6upkSZUMEqE/pVTvkFMB5FHFeUVKI0kZA1RBCnlUdSoD8xgilAIGrI94tVrnuB27D8w/OILI+b3OHvY1PIYbA4wtMKwUyQ0cMhNUXSq+8FdNN6lXVU1BUmjj5NjoujVr3nfbu2UWRbFkIrKw+FlP8cUOQMTAhsHij27Z8rrPHTi/p63LzFXZ1U7ozy+NUgOjkSxLxLzLDSqwChRzoXHCNtAcc5ZtU78zGfr/+cFD//EB84LOwrvP67lqS6a/V1vX3plvQ8hz2ICj2yi44YGoqbEBiazkrB29LtYbJhoBhoR0UFXzK2X32Ii7a0T75VHvB3tO7hstGZl8f1a7tNiD3K2UMDuzQuyYPa/H6qkGcs0HBemvtGfTyLxGkd5Zr+6ejg6fnFCyH0nBkTXs3OflPPWoZ3btG3cjzANwlmSVtEzWLFtBBqcGp/I0xNIRTl2wMnADMVhcm21VNXMyNDGv3wgt2t1c3PU/D5a+/dh0vXDssr72m9d1XLTW2jTkDHUUtVy2mGGgBywk0UtgFgCKLB6B6cc+pWUCgG0ECy9dWdjrE4F37PjE48PBT5+ofvFIpTYVm23axd25klZ3y9l6XNLsnO1nTaucydqTbtlMfDQ0IP4c0Xrs+U5XF5MZK8vh/o9ev5W9RBvXwDOf8nMUf87XriwiadXM6RtaSqBLWxXEv6AWZbl9oh7WOxjenHmx3LVs9uOBoHlohWjzfmxV8cwEZUEVTLpIY4YGJxPeodb6WOQCniduweDqJNxsoWVKSIZNQxWzEbQmZsnRnarm4CSKLQJmcQtgN0mYUQ4w2hClDDLhUJOTbG2qMQftmhSaTWKiAIawAMUFyAwcgrKwUFMB4MA9kaO8xVAc7S57qFSE2Ojr6+M0gdKpMsmganKy4FYFqQTVPbKBTVYCWI2MjKCcIEIiGFIp58UBC4unLL8U4RfgQCCdiEoRMi45kJlyo6PDb37TTZxBpydENSFBBtaSwcxkBBqYNJZSj/MSGzOcU/GUdHQQiCUaGm3DhvUf+9jH/vIv/5JE+otNIqG57UQt3L42bayiDAUJDBKA131xpJjlXGlH5+Fjx/fuP9DZVmTPiNOMGzZs6OtTPpXpnmQSkJAJ0iIJKEUgQf0mb+TjYYQo/ElnWBKnLuLMYFQeRD4aeHaLsNw+cOAAmz3I+L7BATgGf7SOgyIYXTFWGeoMLcYVqCYQJAI0BWfeL+lwajWMyQwcMjOBYMr73ve+F8HPFCIKRZ8BVq2AzIP5Qj5mtbiKytfy8278ys1DX3xr5d23H79gYwfH3SApTUvbTusIy8XNN8tOiKhmtm5FeLWPPBy9+nxmerC5MzSzzkRp9JMPjWgPsBK1rujrv7q7MtTduWGgG7tArlrJWh7uB7I5CxoGIdcQG7XARpU8WvJOjE6Njk89Pq4/Ojb95DRnS2WGsjpvXjzYzk73WByPa2Uth940w6El5q52Jqh5FTmonyysVXPUmKFRadPSFBLpL9z7Z6Ls8RNlLkSwWfjDluGjuAac4abz6cHhxT3Hp82oHllFrVbKZHsynoOTXrUIn597tl5VKdURiBO4EEkLc0YuY3icp4/xnV/2py5rd6ICBpHOs7XaJx+ta/eKE+C13ear2zu2dVt9nW2r+jq687ZjVPBNyAw2m3dQhNZrQbkeVUO7HNgny97B4YmT41P3nMjdP3bSrAZmu7VD05xubdqPJjjfHfd5wbSD6o1TG1FY1zPVGmrANvTMywpglsGnjzZ1fzX/51cOrV/TwRkKrDBnP8dlAWuSmdWJSoVO/D3nuMziYYJls2OYNCkIaiyczfgfdlW3dYgoSXv/VE1iRtcsSPc3CXwpTVJFSDVH7UipCgtS3Q1ngOEAAb4zVc5gXl3xorIblRh8geaKKSzfT5Qxg5cPtm9dZVy5bXAdbpE9re5kl+iAFg288C/Fm2B8iFV+VbMZbUQWYU98MOBHkE8n+XhUU1G757JZ0vEOAoMDCCZ5VGThKiCTLSSSmMTjwyPPHj4CV1WsBF5JUC3nLUG1HziABQ4Cngx4mGGB6OKIM5EZCj3QRiQobYdqEaUAC1YUAVTTPliYSJNJpCw7FFdffTXlmDXyX0IJ+cjPPCQtWyo+Z17dGUFI7LtEjZMEyAIxAUhk9arB3/md3/nrv/7rtk7R36DEjDC6bKHjaoUD0NDiKIs/OouZn5pNAl9NBOncx598io2Ajo4OvEkyCWC+SIT5IjBBDK4o41dURPPFsKKz6tBkeMqMAYAMleMjo6zy0eoj7/lVU0nW+mRjrY9wByxfHWKDmY3regpJygKBPECmukUGFQDJSdVkJiePQGNP6tZbb+3qbKd1vGU888vblKo8niMBh7t5vx44WVbGfOG3XrEF+fiROw+u7WiHIGBOc1Tz+YUsisjLQD7CNkkuaA9Y/vJR2XlqRJowztgK1Mpxu+H3dcRoxUte9Hhl4u6RTBSMxP5x6WjuF8DHsCz+qVBGJlEs1OVYAOtveD76pLzRaxovy1sZmKGplSJ/ol63DTODZ91M1ghZ5salsG77GJ8FNQtV6cx9JU2bMK91NDnO5uy8fWTaZRkmR965yVbEPh91cwahe/HhKgYTyd5oW2fGm/bZWLcR2M3zMyqgKl8EHwhDiDh1EuHYYUav1ctTjp0f1rweLfJsZ7KOFwXM54Nez1zvxHJzrV6Y8KK/HR4zDuVjbwLVAeotmGOM0Gepj3okSZGzTFy4i9ZWugB7CWvQmtqSLxbbzVLsjwexHThM0BCodXdCazMztS6Mv7yoisFqwcmVMCsXd0zLCDnuytPKz7r+ZW3xe1+1GutL3DtyZOA01lRNa5X1tGxhzFBV/YM0TZRBTUrIlls2tOpuzmyf1KtZLzzP6frwtx8VV9ZzA/QngUuM5ibPPMVRc3sjVapJEbWEWvDCSVwjKD4j+ovZEDdsrcDnxBJZgl4z9EJt6tsnR/MPD9V/cO/XXnfhm6/qz3GfAiYMSwiybUk2GQGzO+VqqKmyMCbGXCs4lKI4vIBfVZwI+VFJ4PZSXmEG6yd5OCeTBEDxr6oC9NEHkF/RqLFeVWNj1eqtKlt1RfAjJ/ildtAQVWDCZHlUefhs4FOUIoBJqyaodIo05uFC1dvedSs6CLXoT7jzfNGyOMBWb6mI0OrtuZYO6ZB/UEbhrAQ/cSLQfMuWTR/84Ae/8rXboXlbWztEa8X7WrUL+PQR/UhHA0SqS2QqEVL4paCMkGKBPBijPPnkk1SNygfjO+wwUBoxJ2CW0N3VoSDwFgggTFnwRLtLBLUEW0Wgh7xnlY/yaXxqEk0SGQDFNEI1kJwIHopTKXHmFGRgAimtxqlZol6iFiIEskEBHps2TQ1CNY8hJ7VzJdL73//+7nbhKRQnAxEZt4mOqimQs5jIlp2mZ1mXVvHbzqLM92559eaxcub/vGcv5KLVKoAhpCNOQ5aFLSbVKNNwJhgYbZH4iXNhEwyrwEB3rrGuyTiZMp+kHxZsp08Lh9pdbhAWD4DJHXp4I2BcwtNjMXBjkGASKKcl5AY57mQNw1qcp+NLRlzBlotzazgvwOmcZnoZ18Y1fejjgy5rOCi+J2JWou22WaEUge5IRztxekq1S7o8iavfsGaU7eAY1xDBhgUDjzUYck0OyDULujsx5RncdFPjzgAPmVoJ2vNGCYPE5utFaoGqyYCcMaiS6hmuGbviesVMG+qOTi1P61C1xVbNrxWLyHQjKBm+znE/9kM0c5vWaRenmfFAN8iAX2GPKwSw4oTIJujGyGHwt5JrFJgDBFG9wj5+pB0Nyh34ubFBcDrLeo3m5bEqz1ZCCBZ3hfYEVw6xuouxqGze3mY0kDRdq2btwqFx+/++dVOuwMRMi9w6TuFa5V9uOiRCPifWcEsqCikCN/adXFCvdJqFcT5K2zu/oy0rx43ncelEgrSwzUxUwk1qZCw1SRUbFeFsC4OoHWbrFWt9teIU11oIfGFoFBE9iRSXYR95uaCrq3tyQi9Ol7y+d379V39WuvB/eU3fQshNU8QOTn3AgFZBpZCbiPoAWrVBpatS5Ge88iuPNJlhAncDRTm2QJRekR8VKKjKUgVhJnXBP2qFNC85LQtuvOKL5Vdm+5GwaSqXx4RqM69adEBSirmvfPDEKYuQYA2KeLjpDa/bev4WEsW+f2Z4w+vlcq9lhRQZSglVxEJJzDWJq29bZZBXrZFUZVUeaKWIvHj+ZSG5SGY5dy7EFHqm2SSe2FQyW9+x44Lf/sD7v/w/vzo9NQ7pPF9mkFBS5SbeyEBTCGlEdb3KozqLV2lLiVMX6dLBsgY3e/oLFGFUoDFiU4A3PJKfqpGm6YYRKVIqMV5BANOtap0K6cgGeo7D1pKcsQQwq3w1LnlqbCZCgLfyKslGRSnlyaYeiYA8y3rAzqCa2JmKSVUCjXnJ8PCJredtRvDnZlVxSvADWgFMajm3fkxWsclKJo9+nJZgiRlrv3/z+sm49mf3HNzYOchMu+6WCo6FFhuuJAfIcOUq5/TloDeihTvfOPmtI2uaBVO+eD6tOpHk85IbfYhxMg2BpHF2TS6thRFjRy4QuPoFRQpf+CwwOoAhSMfNphBllJyy92PLU17KyAGqfN9yZxDbuHSLZcqSQNZVYViQaphmnNIbqVFBquTBT00Bb8d6PSjZ6IDkADVHW7nxp932D7TV1jI7qJrlvNaGJoeNg4alGgAkqBEV5Qo56vc6rbyHg0PX6MHCrc7BrFn0Veb0V+FAWVVcwSFeD2S66bKzJhMODMPkUCMOkTOmCwKiTaLjaJE0KvI1PO9kZykEgSRVAt8TWpKEYKKemlmD8tZB2wC5c5ojbnk5JsC2ceJix5KqfGxACCU0NjwAL9l6k6QFgauRYHV1jBkjma/VfFRIpqcHXZHzyHH3T36z+5Vb2+hUeKGL5YOGL9/TDI30gWhydI77D5NehzLok2EEWYtbIpsHZjT4t0gsRjMl9mxoFDpz9ppb6OQTmjUH1TQ1MQNt9kaGbpMAt2uSKqNIDRTVgw1CCFsZ1zma07M1E6ukq/sGf/8HxzYNajdduEpOT3Cck4MwDPOk7xdO02TdrwILrLGJEowVTqqUllCTocYvoSlOL/ZEPmUkBM2n1QQ2OzAp2Lnz5TfccANNIwU5QYQM/Ko4kaUHVTDNDxlVXWnKEiONcFRfCGM6qwEBxrXuqFs2bdr04Q9/+POf/zwL62Jbh6CXNFOteqHhCko4oNFoxC3aAsQqZCFOCunUi3UIynkiBEUx3hJY3LNhTwrp0I1AZCHxGom88G2rFCpVO2VUBAS+nWTWgdpAY/F64sSxyy+//NZ3vp3ifuA7VsI+W8E6J9MV3RRqn3rLtt5M/Im7Jq5a1cWe40iQ7WL3P/CcXHdUH3U9N9aLOc6U49oVAz4uq1vRFqWYnF5PnQYued1ytWrFK3G5gRNGflA3C301v9Rmj/hmzw0XrJnSjZyX0yyU41YsB7Qa+HJDfagk+joDazLUcJTYFuRY/YeirbT0F994aGhWy6j4/uL6n1LdbsvXwkyPY5SqQb/V9nC98vYLzA//1kUyL0PkGjazH5wdtyBbS/itXvANyhSRaRg/TPlk60TpLGfnPa1Kzk1vNcCa8g2KtsqfTrfmgk9E8fwkeW4Jp1lm0iIfb9MZzcpmM8xv9Cm/3pcNP/fjva9Y19/dgQJNeGMS0BvAlsWwuTEIw+IZMqFEZYUEV+VXpaimMkYbC7yU4jSQ9iKcCIh2TCsGBvre+MY3ItiY/UAZMqyg9BKATMYSAXZ6ZFSdxS8C7PQgrEypZAxhlMmIglBrVw194hOfwJ3D+NgYnx6LbAQ/FUFVtSBemUrnQqFrIALEJDB6VQ9SHR2KAoCglAHJ948pApYnYqEGjNOYw82t+dQTCFARYJmIUAU4ECfi4O4ML2PHjr3mN1/1nlvfJeiJMcqLntHj9+Vjv7X9L97Yce+hZ3u1XCf25kZbjI3E9AkfYzKrA5883PXrO2wYcEe9rCpXNjDyCSsLcxFoFU5Pea7l6Blu78G+PZfxayeznFGHq8Zjl260cYHMPjk7QMgy0Ya1CJYZbe7jBt/YKdRtfBwH3N47xVZWi+wv+uSska/HYT1vTflYOdS57bfbyQ9HmXWW/8e3vCyHSgACip0G+ziiIV6pBsNf1fCAORCI8+kRWTn4MvwWhuXCXwhBpSwXDs58zLhuoTeJMWtl+z9c065/d1/49PFJ0berHZnErU6y+J8PXqYGsDBoxAIOPg5nJE4K2CjCvYRlP22kpQS4NvHKdOk9t767r7sL9o0UUYmkKxKd9hhqLEj8DOkJBFBC4M3vyRfwmSZAtIQsYS6XQbXW1d72vtvec8UVl5VKU4kbABk8kFH9NlIgRVMRNn08jQhgCWACNRRVgUkgkRSEvXrkF+AqJ9l4JcVmw2nUmxahdQAk0FK0C0AGGUYOA6kyPYXUv/HGN8xUvZy7RFP450hEkRFk6FLUs//2hgu/9r6d9xyfwGusGR8xo64wv4Zrv+NonC11p+7Z5Tpb8mXWGS/ywLVl4w6uezvYFsAXIf6GdSPfZbuPjMWfumJwY78o2MWnKjqOkOuOFmpVZ9sfhddsH4xRfYe5SW4MNrrYm3/xk2e2dQv+rTAdYiPCNHOxlvdi03bKwfGj0cQ3PvyKLR0OjENOoOtsXvBVuuUZhfYCKMtP4Ovjs1blVER9+8uHtDIlWOo1/0sZ09zIcmvlWCnHFDHU9EIcMPN9ihWslut+9CAXT2NIKh/g7FSZ18KxG4O8hnmBA5btLN3QmpLCOoZ5AKyNAC9rLPBSitM6+DVtR3zUyqUPfehDq1cPuTOXc89wLkYww4hRRbbTaLsagjMDMdG5qPjpgVI48EuXnQaElSqSjAshnUyP5EsWyrS1Fd5y0803vv4NpUnufZZhA57okNQUamHVp0GHtAiQCQoNNUTVap5uIpCNt9SLSIZQPJJHTWpJT4EsRGm5KYClFn4pSF2qIj6crq6Oj370o1dccXmiekxm4C39viy3zrOWH9Khz4F8rG/fdWnPTz9x4YGKvdfr67SCfDjC+tfUOsXVGGeFOIQWhl3iK/bFHarM/6v1go2pIftbOQzpctnq/glza1fxf71+C3w14mQ4Syq0AFm857Zsb2hmLhgw37CquMvLdXLLHFc3WV1+ffrFTZ3W2LeHFQOv8GF7RRe/CxnD2hN1/uLdWy9fjbMB08EO3cdOEJ10wMo/l5hjtAa2jDeJth9+PnMMB1aQFJ7h5EsHxFBvGlpBaJp5kUQYRdPQqkirejln6aFfY6Vj6VwPg9yfQmXvuBwohevNF/ULDpUIXaiS32Kh+PrXvx5/+MRhZOhOicC7X8KyH8GAZhiTb7byPvKRj5x//hYIhjEYHUPbU/nKGDo9RbGCA6g0qN5NH5cYmQcHILPDeokAVjibQgCZlyIm1m1Y2djG9ddf+/GPfxwVFA4SWAojGtOZ55kjoQYqcKiXABHoI34ZrgTmIuqRDIrOSiqTgVdkUB2qEs8cGSAg5vkFIIHvhS+Fz2fz5s0f+u0PbNq0AeNTscRK0CNbOpxWpOqzAsTgbLYR1k2umreuX9V14Pc3vrE7enBK59rZ2K9hrF8zTK8WOXLtj+4mZnpnBc+VqtSqIu2tqDrqcNTNqHGYNahbbP9/8e0XZzsLtdCh1+GwdcYjVQYt9zhwiVQ0Oz/1+jXlyTomh44buu6Eid+cl2hwtZrZ2VGypnqyRSZHj5WiB24979LzO6oBFoNch13nABjTJnwi8vUs85zgYiQTmSUm5nz+8pswCeEEi5Vp9i4p2OSnWV5Ja5J1RZNa1ct5WI4q4KkJR024XoPV4rJKj6ZPlgNOvQpiNF1uQRMpLxYQc4OkIthAlQhu1NjtxlmeMllSCzuY5twiL50nGl6plIrFPGfVEmYtnJqlrKKGyK3ZDREiKnG5jVdCqLH4aYxFVSkIUFb9gudyMVnB/K5bY62rMJnFjeMScgEXAnnjxvW/93u/h40bR+cxo+CDTImQ4kBZQvq4xEhaRAGkg+hBAhECopfAo6ISspYI6aSoV8SpaAVJlyz4gYf+Q5+enhwfH33rW9/8/vfd1t3ZlX5namaA3ZssjF/kQTiJuF7XizGX0VtDXdmvfOhl//HargdG6vlIW2u7Vn0sZwRWzmK/MTZ6Vry5CwfSilfRCDAb47ynLTRj/M4O6bWx8tjTJfOuj+288jxM9TT2rUU1yh0NAWciUfm3dKZm41nY1C7Z1PulG7v2Ha/3dHidsY3r+Ma6XkpxI+ybiCaH9Pr+qcn9Rvaxj55/2fm9uB7I2DkWCOz1I5c4l6P5copgab7nl0QevIDzjasPXA0VxQqWVPgFzJTiNi+yXBRMlv0RDiyY8Bi4V4sNzrpy0jVTR9WicSWjmgjJQQ4WZqcs/2arEakPBjxylw9+Kl7zmt9E9v/iF7/A9E/JfsVDZ/O/pP5lc7q3txdXa4N9vezVcikW81CZICUiFsowjJActDmVOudC+xV6ZxETtoSoHb6ncGCcMHI4c8XeE8EPg46Otne+4+2bN5/3ve9/n6VwZ0cHOVO0T5uYQFA1pvJbgVKYpIkqj6qODCqPQoBEla7ynOEvoJhVsE2mvPTfdNNNA/19cHQ+GTUjUV+QEOclwefNoIJbnCz+UFjXI7pww5yzPnnjedeu7n3NvzytDfdc0+6VjYNlr7PbbZtur+XYIV+5ALUVsBXswcWx4540za/W7OJ6I7hvwg47sj/7yIVX9Re42C6x8bMzPochQ9gsrNb38WzZHB7TUZznssJ977XnHwzsP/7BkR0Dge7Zdc5CvhRDZAab49WPHRu5cl3b5965fdWQ5Ud1uWiGs4HitzYb+W4gvoYyjsyuSG9+PmK5tGHJiuxPPngRais5+JaLyguS38J9r+db2R6c6Ph2Lo44OTodG2349sHSLzE+RfEoXrBE/C9AaeYOXwgl+5ZyE7OxZdPGfC6/9+k9OGvjcBT8S97MThHYTQUsG53ybwJO8Vah9QJqN75a+HYBMktNSJFpLEAiAVTpfupCEvBIBqkXocQEPeHIqi284kzalZdectut7+ru7OTDZcVIEQ5qsZ9JERXIrKpQj43VLSVOqRQHJQbwuzEyPPKrxx5DQ5xgemqWughAZm1sK4OeLGqjqFIub9y4cfv2C87e4KZmIYnCWaiUJPAoSDL1RvoFwfq1q3dcsJWDvE/veRqXixiRMmRU70AWitMcyEIREgFCIdJJJCUFrqpIyagepe6GsEgir9KMKtsiv6Ch3jZWR3E+H7YW0C8QV6/AEIRJwVMQM6Gb3njjzW+6qaOtgCUnDuasWZ8t5KFIQhzwWKTmF8krg11teLjoEMUfH+7DEp8V64ac375wKJie+Ke9RzUzvzpbmELniDGb5eOrnUtjHY+j9xFSEh6E84BIvPBw+p49X5zLMI+Ewp7JlZwrZP8mqs7kT5GcbqMb+GNtLt0hU3kZFXyAUjVdaZm12HUiH2dejulgfI7jVC3L/r7fLg3MPzk89ZYLur7znp0v78d9L36J8P7CyXDlywdHOfJfYvrSqh9reDoLcOVjaNdvyvUU9a89Pn7UzpxnGTgVEn+8GVZuDC0ZK1xNHIvjIiwpMeNGm4szPnFmALJwYVnBid1o2qI56jfVOoUEA7XxsRVmjekL8ytKRhaK+QCO78TixjexL2MIGEHO5wQ9fr6yJnofS7ZOzXjAdPGasnt04qNXdP3tu7b092U8X8NRVGLaj0wSUS/KuETgI3aEjGcW1CcJDJzd/+NjI1NaWAy5KrAac7SmXvBQuHHSPSGtOHVIHELiWIL+E21Ns7CQDs1ynf20EKeIen8lquNSA02UGF0bAyPG8EWO8Zar1kFYdphsgz7h6gY+LUg9B+cZ2a/SWOjyRcB8162X63ZODA/jTI1dW/lqknJC5WRIEWGnVXFDGBxBQYBqjYFEHvklP0HFVc4z+W0Kh0QwpxYlTkBJSRTSYdxhIFfG8QoBw5lsFNG/9ZpXv+51ryWRTQ1WbwpJMq8gnsBUqKpfRSXmHA898qvEcfKMgRjTVYzSU8GzkDJ86tAdJEHVMsXIbsOGDVu3nj+3KxeWOwspSijSUtVknEZwheOGjZu4iIE7cjh+B3npAshOBqxJ6DK1KaAEfyO5yKkaQKLqyjTleWoYvQBkqgP/tK4kgpGXWL+CpPD4BJ/ArU9NT19//fVve9vbLth2Pi3GNRpfhPTyOdgxzxPJErBcJW7m7d+8qOeV/eb9h4P7xmtrcnoPPj3rtstN8KJS494di4NyeC7DA0MYVXE2Z+rcSc+8Dwt5NsT5Smc2a88c02TwCbNXoBhGTCvkLxFb+BNmYYrhgjgGhinxcel+p5HFTxHX31p6WPFCH3t+z2wP41/FhWpt6jOvXvXHb97YVYhdNAEs+ZeJYs3XMrIUq3HNGndWXrG+65XnFccPlu8aHV2dNQdsM6xaXCGr4WIOWzizmOXgAOKei7OZSfpIKDxBkoSSoWjIlYbMCNhSAXWUCfixDbl0sSlG6mtq+mqJiVCQvzAsteOK0TDLutxFxJXEOAk0EZ0cCZfbFu0KVzx7cZ+V67b9+2vRcLX4tbes+YPXbcRNN2bJLHNqOg6V5sueJeKw9Gz5jPno/umfHjs51NEWhDknxn9QqRBn4+TOpHQYyBedLIpFIDULS6/x7Oa0cd0TTRl2b90KTX+qyJzarA971nV9zhtePsDtTUy1cSSNc65Egs/nS3OULWIykEhoVjjbtp2P+H/40cfuvvtubrNlBpCIK/FzLgMiEfYw+oQzzqcA9CRJUZVI0zzzy5zWs4KsqgMAsgTOq7gzuCEjFQ5YXSlhQx40tFu3bMaqEZN+sCSbEvxECMK4Vy4oYip4YKKwxSuqmqMkVBQ2xWwA9BahEi0Ko0DZXYIhEZzarhyaKwkJVFWrFSXpAlLww88JUi7G/eEPf8iOkrqBiYGkWk2EIuRPO4K4okb6S9esJJYtYIGAQhsZT7+AORmJ00kIfnqNt4Ty1CSJW7ZsedVrX8PlAlkb7YWcouVwI/nx4aMa0qKSl2Kya7RlprkS7YaXrf/Bpu6/+uWR/3TvUdS627v6Oz2utbcrmpOrxKPZUI7GmyG+fDWMvXSfNYntyQIMf36xgyxZma+PLw0qzxsxCHn8DsIODQRpZDMBIQ/rIXgVrp+pmX19x9WnDJxGa/2+/oAfZGulP7jI/ne/sX3tum4xoI60DKv05Z97yiXLzYhreDjgR41BfM2a3i9+uOsfHhr/i3v23X2iXOwtbsDRT5SfsPW4jJF2sSj3odU9lCbcqOhroYtT3Q4/lENYoj2DUcE+Yg7YyEwU4b9wVJG+MHGJKY1l+QZzWs+Ur+HpqEMLp7nyGFycTM2w8poX1rB78Cq6tqpQPORXp4+Et16w8Q9vWrt+UDrThdp4EEbLj70DfpKWee/fErFNs5mG+/Lz89qjTqGW9cxRvEyyC1Mu4zb41Lji+yU/fY/sSmeHKQQVaWx+4yvFjhpTzm6cxYauF3yrlCmXHW520LxBs1srD28e7MGYkuEhDlYR6IwO5jqi65qD74xAStOU/IO14Z8Vh/akj41NcMvZfffdt3//fm405x4dVAvwdBgcy1BICaUI0IWyREihOAWJK7DqbVrFmUdSgKozVEXqlxQCcUIaZ2VJHGe9vV2dSH1uiGfxBr9G8QhDBx8lWmaGxcrNABQmaXvVI1qHz37hb3EgiHUaKUpOIFqQNOCcZm6MyJYYKsBE5+/VxHUdR8jWrF01fyLXWOZsxJHiitQMAEVYUFWIMJxYI5RKlXuSgIt7tpMM2yGnGnIQn8wE1XGN6Kt0UlQHNb5a2TjwlWWragXNAT5xEukdAsSn+9avX//KV75y69at7FTQY0xL4CfJVybIryxKLwpoMb53Wd4Lb7EgKE5TggAAFaxJREFUGTOgo8PaV+/a85+eOIZs38b9tu0dZT1br0WZyCvg/Mdq88IqfyjbDU4ncfILe0k48eyeyxm2Wu44S9gScOiSZFQJSAfVghEz4wgxSonxsssKnipNLrhl3Zr1uS0MBXv9ydFJ7jH46Mbz332DftV5q+hc2JkjN6hqOOIz8KKy3JU/7g4MNzYzSHHNKAdmsR5pRa3ia4Xp6crdT5780t1j3xp2uVDnYth1gbV8bTIG14zcS1x3o3wW921eOdRzZdoDCP64tVgiskvCHkzz++KWS0b19VFKDWN5VLMo7kPAe3/sGTqGu3nO5wVh1TG4CrvPyVWLYaVi5XYfDTJ93jevX/+GyweRwZrFKQYmxPXQyAv1iDPhm7PSXC52LfODp3rHLO7xZ4OXff6+q7uLw+OeVTArQdSeEa0qwp5G0XH8iFuBRFrJdVIv5mAE+pQTtsvGWzVTLw6b0XpTf3hC/977N71mB/M0fE3ySeJfOxNzfwPLq7nNlQ8jbT48bt6SRb3DbQfkO/jsYa7f5T6Vui92APBEpBdFYN9C1oTrKWiKjwNWPapX/DbWlVZ6GpGmoEgkgAy1EFFgwQSWPTE6gvL5uuuuu/TSSzs75Qq4ZIP/lN8CJX4kfdaP72lgtbBIIya8VY/8/uQXd3/7298eHFxFdUpMgifxhRBUChd2sFtOHIGK0xjWmh//+L9BE2BjRHauBpqpqJr2BZhKYqxzC/NDDz3EHGCqXEGZxOqfV2SeydCw2a/KphAo/gI0V9VCj1AvgUdOL3AQlKHOWv+qq65CjVHIi1E3ilkZaLMTappAftLV7wuA6jlShayJRQqhus9AEzrJd0tWLvfwkdrXfnr4L54ZC117c1brQbEdm5NxVueeHVz/sQ2AKEOpzZFQi4OBDjerrEiL6LO0C2RUJYF+NG3uCkaZzkSaJC59mdnvLbgFzcZSNXi0UrJ862Obu995XfeOrf2dkVXFlDrWMrGDBp7RZ+I1n4UNFwAtJ0Af7itK5hAmHBko+MPPAAlLQcEkHPVq+56tffmho597dsQtmWZX9jwD1bofl+tjmWxHmKtbHp6S65COxZXsBkj7iCSPunjXX4kAiVK6QUNAqm8ho1fY4A24WJGpiazm63Rct55h+lGLzaeGa1pP8OeXr33rdWtWc8WyMCoMXhD8NSFZVITkPvNBvFyvBJKLwAjiaj3O/4ev7P3LPRNXdYcn6kacydm1MromVYrWKXGvxH8r2a9avbCilDgLX52dFMvBMQ0GF7kal0Nk2u1oNPIsLffj371oTXugsZnGlgwT18gKOQQgxg5zQhN5jDRSjE+xY7LzyC9jgbMAwydH9+7du2vXrmeffRav5Ugj3JoqjTrzA8qSk0RFPn5VRNX5fNNO1YWwB2Ewkelewo6vu+bqSy65BH+9DEX0/2QDQ14RFLYKPYU8xdXjCv5SY2PbJ0rlT3/608xS2OlXymQwgYZIl6aVBlxoVsxzATw7L6MnT3zgAx+4+OKLaMq5tu4HeZpASyFv2hCoSgoUUKNI0QF2UKlUH3j4kSeeeGL//v3QnK0QMjABIgOP5E8DKSqo/kohr0gEyCkcalSPaYTeEY/9GWfbtm1XXnkl1/EpqQ+eCbbcQyhDnaBal4L6/1UEzsCHZFajkGtQ5QIoseqzMG1HtMXas4env3T/kT99erRU4tS3s9Goe3oO2yNW3jW8L2oc/XIoEtVQ+6eS+ozoR1/QI4CAbamI+sW3vOzxo35GQcHd55GWi8R88dG6X/OqmXbj35zf96Gd7RvWd7YZxYoe4Cqd7OKjSPdCWetbOOLHjEFL7rhaOooBW/VyE47ra/iyK8q0EVtYmszxADHj1TIwosj3rMzwCe3new5940n/X48erlbCTH/HDpbbWRfTwkmdtT/tEvYFAIatzF2SIGdrk8Slo9QqZwpHOD61SFVUxIwdU4hsTXPjqD4QZcLYeTL2vfp4pj37VxcOvun69T24cTaTi9Xl9ke7FGbaZHKicQQN30fJjfI1uSfoeQ0xpwbtg8e9TZ/5+TZcC+b7SsGUXOToJPXKtG9mk5rvnEGi2njmGK3MqG2NRys8aZgfux1GyfR6kPrrM133TBz54k2b333tBi7fNHxGDbJMrFxky0VUk3NCE9kPh1VkYRwQV7JQxZnLyYEl8Wrio7V+6um9Bw8ehHcjllAYIJmYBxBhT32GW88yVooTGvnsHCxO66ERGsCBgSoChBW/5pH1Mer9Cy+8sKdz1o3GLA4qf8roBbnk4iJKEWmEfFqozS8ETJIAqyLoDiHa//gfn+nq6kJMqtU/GVqORvn4QpbI0PzSl198yy23sLUccm/h7Hx2fn1n+5leQOTTNNVk2g1GCV1l/J0S8GKi4TGEHnnkEfaV2Ahg/DCKXJSyychRvxBN0U09rmzjGmGCNsBBm+oY0jQB9T62ihdesG3VqkGpN2kD6eqjID9dpn55SSTpYeYBp6Y+UuolH9iHjrKeLTyKY9wiLv04cryA+4wCT7d8dNejx91/eab6lSfG73xmFLP2QVNbncUjkj0SayUM7WOTS3bFBG9FglrhgEgi/mWVLLoZ9tkxtWdmicl9XPa8sbpXRfGvW+9drd+4c+srNuSGusUhJYf25JZfWSnJAI1zJip1y+dCcs3XpYHLNk3n9lwuOkDIiys7LgrxzQiTeWYdER6QMuIMSUeo5kUPYTA7qIVR5Xj5Z4fHv/vE2O0jJW3KNrPOet3oKJphzHkudh10BCrLbk9Mrtk+kM9KfSPqV1GxcWwvha6wdyXsaTdl1dKCiBXksNGkH7moYbSmPVuftLLaDd39H7yw95qXFdf0tFU0N6+Z9USn3xYhdkSfAdPCfbGaznFTs1gnPN/fBb6D4tA2o3uOjrzic3vsKLjG6Z/M1sc9HN9xdwBzERFpQopE9sslDCsRmI6tBJiWMERz3yy4ntHuoA3CX1I05LfdMzn6e5d0f/pd26EzIxZVFbva8ilIj8S2LN7nzCLmyP6Ui1HRbFy4OFN5hpQaSQw+4obcNCyg6m7AAW6uLdm3b9+BAwe4Ih3OznIWnggPZbgTIX8amjVh2WlAAxmFjyqs4MOvSezu7maVhsjHVjGXTQz4wyS/9LzcTJjWp+C0ekzTzySiquAXIOBGBMJySIaNp/vuf+hb3/oW+ICwEv8q28LqbDSiUYDg37Fjx/vfcxtTHDVlbT4iFpZ/oVJSoaharapN4nACpRk/JSnRynDxjvpqYGBsBKBPevzxx5kK1H25QZFmJi2V8QPRCI09fiZtakRPwVS/oIQdJW/pEbbzt2/fjpfrfE4OJqGkwQAWHKhXTdHQcKjredgRUymqpcnvqTF2Jni+aMpiqc9d8qJdtEXyyx29rPgsZAHCElmKhTr7JnXdqNS0oyen/v7x8g/3Hr1nuKJZHR1OfsBwi2bVNGvjfmFFmsz2unQTmLBBz7eWrPFgoBzsHa/rqKiZlQzktWvX5t+0veeKjd3rVjMO9SL3zbKqCSOKBIhnLr2POY3Cr1z962KbwDSBXX853zSHhz4nzhyQs2MLFSxTQtEisH3A5gGnQuACMAYc2sul7DaTDcYXWycIJl+PbOYbfjxyvPzwcO0XByd+cfDk3aMim9k7bzMtfAO3c2ESwKII0yFGHWjwqyIKpeV+L42ynyEN9fgBiGdURsv6RBXTiOiCbuOdWzpv3ta3aW3RaTOzke3HdZvONw3RMaPHyNS0qECj8DZHqzIMAVSt3FnIonF5ZHtOus7PgA4JxWmhhqpfOzxa+S/fP/zZfWUtLA04Ws5y8nLFFloI4SSUpF2u4j7zwbR8bqRtY6azJft7Ir2aNco174hue+PTf3hV/7+7eV2/1R5ENc/O5tlPY1Ag8phsPqfsb2zPUuLweiioGB/5WbdxlAsRte/wYc49c6aLXVLS4eMotOHjGNXwqEYkv8lAlSFLUGRVr+gbHhshp0RXGTIWV4d6Sl6qCGvijo6Oiy4UZs3FBJgjKJiqFlUqqeec+MHLG+d0mMw9s+/Aj370o917n2YGIPsmpti6E5fhmRCBhhPxq3Vy33DDDZiYMaHiDWsXJY3OifacLhKqW1Vfqz5CwY7SaPeevewo7d+/n0MBwE7Hj2bKilxRprFOPmeKKwjqrXpkZPJI4JE4geIEVKQqA3G0RATy8HbtwIBa6IvIz+d5Sy0KbGN1v46fIQV8rT5e0/Yc9e9+eupne07+6kT5BPf9WlZvzhg0nTacvhp83X42RG1pTWJe56lpn/QaVeNtQSEgW+aJD3dWN3w1uMAQOc32mY5GzETY1EJt2g1Y9mEnxxaZZfiXD7W/dl3xilX2+UPZwb52tisBda5paZDBKsi4ZbWabLbCbI8dmnpiuPKLYffnx9xHT1ZqdbE6xOrPykQ9ptNrWbi24VSgKxMtxjoF63BSZkKo7Jm/YNuoVpDsM8xy30jOrsSymS+3cnAA0QEiO/rRVM2fqMfl0GJvwtKmrt7Y/5pNbTesLVy0Ck5rc3s3JxbyqhvOmV8+V1nlhj6fs2ln3Fh7av+Jx596+m+OrXvm2NGTZeaajjhSoPEOvhPY8REunAb1vfPLYdOmbeK8nEpPi8xka+GXuDduPrJURQurAOzCRFImXZrD/UgorpjcRC6+U5hOGbpXN0O/bhTCG7d0/u6l6157Xj/7SCUdZ9HN4cwDPmfdP+/dEh9pScpeKcIjOm2YOEfXUAng8uzkyZPY2LOwq9VcBDYLJvLwqSo5R4OJKHIomgKECGMSua7IoaqgFj4AfjlaTRF2iPuTMDQ0xBJ/YGCAXmeGodCmIgVEQVhiW16gbGw8JYtFBmupXDp4+PDTTz/9zDPPYAaP5IM+tJ0AiZjEcLBi+/nnXXzxxbSVtoMh1CAgEV8gbJ/nalRzaK9qGh1nWtxuHkEKpo94mGAewBBiOFVdGQ/kpPeZKikKUJyCpBNUJH1UY4BHgho8KnO9XmUgkcgWA0t8JP3GjRsZP2uHBhUaKj+/6SPxX4cVowC0h/GIelufiuIjo+4zB6ePjZTu2FN/eHKszHF4s4vlAupxlo8bzWwxmvkiZnqZHbAkhOxBs4RGpRmFtSCeCCO2D2qanvPCOvJO/OFE69vMywYyV69u29KV3by+u6+Y682hCKBmPiWGnM2pvWVu368YGRYBpAYqGdSoZvQSsKNBo8GHgrX1sbHywZH64VH/xETtgePhgWr1qelKjS11NmnhHJgz4XWBz8QwioaFW4C8WNkzqYD38gYgTKOxYuAEpjGJpGeGoGt57BHEWyOTBG11QX/5oHX16tx5PZkrVg92dxVyWZQorKuhmxWyqDdYyi/SgrPwCn9SMoMR5hrJEU62U1HkYFZZDw+PTx8ruWNlbXTcn8AKoO5Puf6BQAzCYAUENaLUAINCTbHHPcPMwEvEUFpqxp5hQZkHEyazIBkO3kI2qx2XBQW2ZuS0HlM0h3OippnnLIjtZDP2Zb2Z9QPZbevb1/a2F9nPZw8DwHoV/1oLYDRJOCPZT+ORTwqqDM0k8Ag3VjOYVKfCle7MBvCFAkNHM09ASaACWtaaJ3MCQtoTAIHt5hyZlQMVia5W9sh7+DXMmm0F4slxgxlzfWpUFKV7KKKwSpCZ85imn8UIGNJYGgj1EFwoxNnDQ+SXp4QkRJBqvKIVHE8Qm4DZKwbSdjVS+yw2ZKWqVl9UKmhFmCdqdn4hA7/MithOQpnEyEGxxISSCCOKwQO5dEt0ntCEnET4VSEdnCQSZwgxZvhdPTikJo7IeyIQW+VXtlOKtmlZHlPEZgH/+t8zogBWfnL5QzJnkx5jwZlc/MPtOFMT/rGR8YPjlYMT7sEx/9lJb7gaPFRPFLVwUnpY+hftO7zQMPDFR9ehiDfDnB2tzdqbC5mhfO5lPRpb46t6smt6s73tmY4cFpk464M3ckqN2YJY+CvLAuEdgJ1lYmfUquezsBrVIS3goK+yZhA64BqBZa42rWPgXitNV6bL7lQpGJmKjkzVx6r+gVI0Hfijnj/shROeVpaT9qaYCNN+8fviZ61wgHsZMvzZXXZ2R3vU2ZZZ1ZNf05vvb3M60JLLfpcessDMYKGI/kUID8n5UoTdnuKyz2fjlwwbisAF2ECRD5bFfbLBQjvxzIxEYsIjUiUxkWbxhWUAXonofJH8ieyHu1KQX5+LqJoFi03z2dDIZ2QLp1kYc5mLNQ3N5xbJvKpJ/o506xyDkSTAnZKr0vGRSaGqGKCYWfb4gSszvKVtrpyR7F+IJhSBVzKv5pWKC0FnPy3GS5IuA0gFxD1SkPW96gDKqsBb2giEVN/LUi/pF/n2ldJ7BsTsP6TzUVAkFZDA5KXq0dlc59y/wgBnwyxVZp9n/4UmUIMnWkej0vVu2tLZjC+yfxs7izjYqxZ5nADHTlDT8ZNDotpWT9umxgwiX2aNqJJcl3lAOn4UHCimIswUmT8h79ETqCA6A+zKpa4U5EwEIPNGC0AAlc4D5hf49fNpUoBuTYRQUlyxBQ6AM/dHXQ8z89hxx5FloLt+VIrDckXmytgX88eZF3oE9kBPWUboZFAQcEG8kTFZKtgFJ5vDDFY8zyLcpIP5ny9n9rcunktjDNHEjg0oKAAQBsIwz6XAqGv8tBsefYY1h+zBGBrI1hXCLsZRiWPTGBptyjlLHNiSw5I1vdjVhh4MNsB/USCqEFptTIe1nGnnDbMI0bKOiXWcySVNOC+YkWHCS/lTFJQTejWbcwpRIlYgFLWwt4Kr5nONbsnMMHHHIMxEJAWElJvuamJhJW3SGUlsCMFOMVwT4/flBKwXl5OdISYCaAUCO1tyzAT8pftAgq8D9ihNwIZROoSAb2hWkUwHlzonWwHZ3zA0Z5splJ8bQAuzmdk0nlQQPFujOptL8qZFkocZWZhwASBIKwjwaFJ4JCRF5nxCUvDcCKCqMFTo8MhklY09HCqJXIdQyTyU5vCKrxdhRc7GUqrhakJwbrRpZbCgjQRgzWsa7SVwvHheNUk/z6Qly/5kOMkUUBLTtzzyJyNNxgULQFWPZEoGS5LKg1pRJaRuioYU/nU4cwokvYMcwlx95kOIxH6F3UoOacWBmUWyc0qJjjAweSNR9dJs98wiAAS4nqQCUHV5kgXbOna7WfdJMel6CchICzYJDxK2mSz/ZAEs9mjzR9Us/LP1L9jOkEWaJeHU50CbpbHJzEXEAXFc7VdFOEQZeUUTeSkzmjiLpaUa2vwmf2g7oKo6acf3IjIlySI6GNGFQDK+DToFyQ9otlNE3uCRaYZiPKhFiHw4Z4s8LetNRpRqMcOInp794NUEL6GA8NrE3AcoOJlMeQKPiktA7ZbOh+cu75OeSJChO5oFNSSbvEm6qUl6czCitYDqvAQ3zExx80Y30TbmeSLqxbCDSY7Yi4qjKh5bwJlX4/8HZKNbNLok6NgAAAAASUVORK5CYII=;rotation=90;" parent="1" vertex="1">
                    <mxGeometry x="-152.45" y="-148.91" width="234.83" height="49.99" as="geometry"/>
                </mxCell>
                <mxCell id="6" value="" style="ellipse;whiteSpace=wrap;html=1;aspect=fixed;" parent="1" vertex="1">
                    <mxGeometry x="-396" y="-206" width="206" height="206" as="geometry"/>
                </mxCell>
                <mxCell id="7" value="IGuessIllTellYouThisOne&lt;div&gt;PrimerApellido Segundo&lt;span style=&quot;background-color: transparent;&quot;&gt;Apellido&lt;/span&gt;&lt;/div&gt;" style="text;html=1;align=right;verticalAlign=middle;whiteSpace=wrap;rounded=0;fontSize=18;" parent="1" vertex="1">
                    <mxGeometry x="-260" y="-249" width="197.55" height="69" as="geometry"/>
                </mxCell>
                <mxCell id="9" value="they/them" style="shape=callout;whiteSpace=wrap;html=1;perimeter=calloutPerimeter;position2=0.08;base=14;size=10;position=0.08;fontSize=24;" parent="1" vertex="1">
                    <mxGeometry x="-396" y="-249" width="120" height="48" as="geometry"/>
                </mxCell>
                <mxCell id="10" value="James Madison&lt;br&gt;University" style="text;html=1;align=right;verticalAlign=middle;whiteSpace=wrap;rounded=0;fontSize=18;" parent="1" vertex="1">
                    <mxGeometry x="-190" y="-150" width="130" height="40" as="geometry"/>
                </mxCell>
                <mxCell id="11" value="Technical Symposium&lt;br&gt;Feb 26-Mar 1, 2025&lt;br&gt;Pittsburgh, PA" style="text;html=1;align=right;verticalAlign=middle;whiteSpace=wrap;rounded=0;fontSize=10;" parent="1" vertex="1">
                    <mxGeometry x="-200" y="-40" width="137.55" height="40" as="geometry"/>
                </mxCell>
            </root>
        </mxGraphModel>
    </diagram>
</mxfile>